<?xml version="1.0" standalone="no"?>
<!DOCTYPE svg PUBLIC "-//W3C//DTD SVG 1.1//EN" "http://www.w3.org/Graphics/SVG/1.1/DTD/svg11.dtd" >
<svg xmlns="http://www.w3.org/2000/svg" xmlns:xlink="http://www.w3.org/1999/xlink" version="1.1">
<metadata></metadata>
<defs>
<font id="urgh_type_personal_useregular" horiz-adv-x="823" >
<font-face units-per-em="2048" ascent="1638" descent="-410" />
<missing-glyph horiz-adv-x="327" />
<glyph horiz-adv-x="0" />
<glyph horiz-adv-x="682" />
<glyph unicode=" "  horiz-adv-x="327" />
<glyph unicode="&#x09;" horiz-adv-x="327" />
<glyph unicode="&#xa0;" horiz-adv-x="327" />
<glyph unicode="!" horiz-adv-x="399" d="M106 104q-3 34 0 136q27 7 50 30q141 0 141 -123q0 -47 -14 -124q-28 -25 -142 -48q-30 71 -35 129zM106 1430q34 51 89 51q35 0 88 -29q3 -390 10 -666q-12 -38 -12 -88q0 -18 5 -81t5 -80q0 -89 -39 -142q-28 -2 -102 -16q-23 23 -41 37q-9 108 -3 1014zM150 -104h28 q0 -35 -8 -35v16h-20v19zM150 1516v18q29 -3 38 -12q-17 0 -38 -6zM205 1184h55v14h-55v-14z" />
<glyph unicode="&#x22;" horiz-adv-x="563" d="M53 1489q107 -34 137 -64q0 -35 3 -108v-111q0 -287 -91 -329q-33 20 -36 22q-16 205 -13 590zM360 1139q0 101 25 321q33 8 113 8q32 -74 32 -297q0 -157 -18 -245q-31 -37 -68 -99q-84 90 -84 312z" />
<glyph unicode="#" horiz-adv-x="952" d="M-27 422q0 14 7 45q40 37 120 49v55h19v-39q9 6 18 9q56 267 72 448q28 4 57 4q-119 9 -166 4q0 2 -3.5 15.5t-4.5 21.5l-39 -8q12 55 17 86q81 31 139 57q6 13 74 250h-19q0 18 6 39q62 33 142 27q14 -32 14 -58q0 -27 -16 -49q-17 -53 -17 -86q0 -129 113 -129 q64 0 133 60q-25 18 -27 32h17q-23 77 -23 142q0 43 10 88l140 8q23 -51 26 -158v-168l119 -32v-91q-68 7 -90 7l47 -15q-7 -10 -10 -39q-29 9 -92 21q-12 -67 -51 -137q-1 -17 -19 -144q-16 -101 -16 -145q0 -29 2 -43q81 -33 112 -60q37 -29 64 -102l-41 25 q-10 -22 -14 -43l-152 -25q-20 -76 -20 -266h18q-23 -49 -39 -90h-117v235l25 8q-9 56 -6 103h-19v26q-160 -12 -170 -20q-26 -17 -26 -152q-17 -67 -39 -176q-29 -10 -47 -35q-74 -18 -101 -28q-4 168 -4 370q-68 25 -88 37q-35 21 -35 66zM51 819q9 6 21 6v-26h-19 q-2 6 -2 20zM100 -68l19 -8v-49q-14 -5 -19 -8v65zM100 606v37h19q-9 -37 -19 -37zM100 735v56h19q-9 -49 -19 -56zM100 834q0 51 2 65q10 -10 -2 -65zM100 1190v47h19q-9 -47 -19 -47zM246 1079q14 9 37 17q-29 -3 -37 -17zM256 1190q14 7 35 10v17l-35 -9v-18zM326 668 q0 -111 39 -162q144 22 174 26q-12 95 45 107q-18 10 -33 14v2v2v3v2v2v2v2v3v2v2v2v3v2v2v2v2v3v2v2v2v3v2v2v3v2v2v2v3v2v2v3v2v2v3v2v3v2v3v8q3 48 41 75l-35 11q7 58 31 186q-13 10 -78 16v-10l53 -12q-77 -21 -192 0q6 -30 -11 -37l-20 -143q-14 -95 -14 -166z M328 1010l32 10q-22 0 -32 -10zM338 1092l63 8v18q-10 2 -45 2q-10 -10 -18 -28zM410 1053h53v18l-53 -8v-10zM420 424q0 -6 16 -16l25 8zM475 1079h64v21q-21 0 -58 -6q-6 -6 -6 -15zM518 231h39q0 10 -39 19v-19zM530 477h35v21q-35 -9 -35 -21zM575 1055q27 -20 37 -29 q23 12 62 25q-86 4 -99 4zM600 434l47 8q0 9 -47 9v-17zM600 1135q6 -29 47 -64l17 8q-36 36 -41 39q17 12 30 17h-53zM604 500l8 -11l29 9q-8 2 -37 2zM647 954q4 2 19 13.5t28 19.5q-20 0 -47 -6v-27zM784 1100q23 9 47 12q-29 0 -47 -12zM819 250h39v-53h-27 q-7 16 -12 53zM831 125h27v-27h-18q-1 2 -3 7t-3.5 10.5t-2.5 9.5zM831 152v24q1 0 21 -4q-3 -13 -21 -20zM831 279v63h27v-63h-27zM831 588v39h27l-8 -31q-14 -5 -19 -8zM831 807v27h27q-3 -10 -27 -27zM831 881v34h17v-34h-17zM831 1319v35h17v-35h-17zM831 1427v27 q13 0 17 -2v-18q-6 0 -17 -7zM885 98v27h28q-10 -19 -28 -27z" />
<glyph unicode="$" horiz-adv-x="768" d="M68 322q18 15 63 18q-20 -1 0 -2h70q22 -22 47 -70q71 -51 125 -51q100 0 100 197q0 56 -10 141q-107 55 -350 207q-9 18 -29 24q-26 248 -8 557l102 52q71 42 94 65q30 109 109 109q13 0 53 -4q0 -125 119 -146q113 -88 113 -227q0 -54 -15 -127l-151 -6q-23 30 -29 86 q-6 57 -29 90q1 2 15 16q-103 3 -135 -8q-55 -15 -93 -86q21 -41 21 -98q0 -65 -21 -111q35 -18 84 -86l113 -41q81 -34 90 -61q59 -14 137 -80q18 -138 6 -524q-7 -2 -18 -13q0 -12 2 -16q-79 -94 -192 -115q-12 -82 -19 -96q-14 -26 -82 -35q-71 59 -71 96q0 9 4 25 q-80 37 -138 74l-30 39q-16 19 -41 26q-6 120 -6 181zM135 915h35v19h-35v-19zM217 776l35 -20q9 6 18 6q-5 1 -13 3t-19.5 5.5t-20.5 5.5zM252 705q17 -13 45 -25q19 8 41 10q-34 15 -86 15zM262 84q19 3 29 16q-23 0 -29 -2v-14zM262 807q9 6 17 6v16q-10 5 -17 5v-27z M262 1348l17 -9h18v25h-35v-16zM324 1356h47l-25 39h-22l16 -9q0 -10 4 -22q-20 0 -20 -8zM379 1458q3 -19 27 -43q9 34 -27 43zM414 66l71 8v10h-71v-18zM414 1018q14 0 20 -2q-2 -10 -2 -49zM451 152q3 -2 8 -11h26v19q-29 -7 -34 -8zM492 1384q0 -15 30 -36h64v16 q-80 19 -94 20zM532 434h35v19q-35 -9 -35 -19zM532 655q8 8 29 23q-2 6 -2 20q-17 -22 -27 -43zM541 512q27 12 49 37h-17zM543 256q0 -8 6 -23l33 27q-22 6 -39 -4z" />
<glyph unicode="%" horiz-adv-x="1267" d="M51 1049q0 62 6 170t6 141q53 117 189 117q31 0 147 -17l86 -84q6 -244 -6 -346h17l-25 -80q23 -23 23 -55q0 -60 -52 -127t-100 -76q-49 15 -207 21q-84 84 -84 336zM209 1092q0 -152 33 -275h100q-1 9 -8 29l41 14q-39 23 -39 74q0 35 22 96q-12 4 -24 4q5 84 16 109 q10 2 56 2v12l-64 6l-25 166q-77 0 -90 -10q-18 -117 -18 -227zM358 889q15 7 33 10q-23 0 -33 -10zM371 78q0 64 47 182l65 162q12 77 39 196q35 141 72 175q-15 6 -25 6q6 18 41 39q47 152 211 620l113 8q-3 -70 -35 -190l-53 -186l-27 -17q-2 -6 -2 -24q-18 0 -24 -2 q-29 -102 -60 -256q-26 0 -35 -3q0 -14 2 -20q12 4 25 4q-9 -30 -35 -39l-16 -160q-39 -25 -60 -137l-24 -162q-11 0 -39 -4q-3 -13 14 -26q-63 -120 -63 -191q-26 -26 -96 -71q-35 35 -35 96zM565 1133q20 4 25 4v-27h-21q-4 20 -4 23zM643 817l16 -18h29v18h-45zM825 676 l17 8q0 49 2 61q125 46 188 46q85 0 162 -62q23 -112 23 -180q0 -82 -25 -143l27 -9q-5 -189 -23 -358q-70 -45 -162 -57l-114 20q-64 18 -91 68q-10 265 -4 606zM942 420q0 -60 6 -262q32 -14 39 -21q19 -11 29 -31h55q0 9 -24 15q49 27 49 55q0 11 -11 33q6 358 -4 448 q-126 -15 -133 -22q-6 -156 -6 -215zM1065 686q10 -10 16 -20h17q-13 21 -13 22q-16 0 -20 -2z" />
<glyph unicode="&#x26;" horiz-adv-x="763" d="M70 500q7 36 34 155q89 47 89 123q0 42 -46 66l-20 153q-12 102 -12 162q0 193 118 268q0 11 7 21q56 16 110 16q61 0 228 -34q20 -39 22 -44q17 -20 35 -28v-254q-39 -25 -66 -25q-50 0 -96 107q-43 108 -84 108q-22 0 -53 -22q-41 -90 -41 -193q0 -64 20 -207 q69 -35 203 -41q143 -6 211 -28q0 -44 -31 -111q-34 -74 -45 -112q-15 -448 -24 -488q-34 -19 -37 -22v-35q-34 -7 -289 -53l-106 45q-51 29 -54 88q24 3 27 12q-35 6 -53 6q-1 15 -12 50t-11 48q0 26 8 50l-30 24v14l24 17q-10 17 -16 137q4 11 10 14zM111 537 q22 -3 32 -19h17q-15 24 -45 33q-4 -8 -4 -14zM125 432l25 -12q7 7 20 12l-45 14v-14zM135 342h33q0 9 -33 18v-18zM178 213l8 -12q2 5 21 12h-29zM256 475q0 -59 8 -127q10 -105 10 -110q-7 0 -12 -5q21 -6 55 -40q33 -33 62 -43q32 14 94 32q12 261 -6 482q-57 0 -176 -35 q-35 -47 -35 -154zM270 762q-6 -6 6 -33q9 6 21 6q-4 13 -27 27zM295 657h51v19h-51v-19zM350 418q4 2 21 2v-27h-17q-4 12 -4 25zM354 236l6 24q16 -3 19 -24h-25zM393 119q0 -11 4 -23q1 1 4 2t8 2.5t9 3.5zM430 27q11 7 31 10q-21 6 -31 6v-16zM498 141h43v19 q-43 -9 -43 -19zM516 182h33v19q-30 -3 -33 -19zM516 342h14l11 51h-17q-7 -33 -8 -51zM559 291q4 -2 8 -10h33v18zM567 948v72h25l-8 -64z" />
<glyph unicode="'" horiz-adv-x="243" d="M37 1147q0 119 26 323q35 9 111 9q33 -76 33 -297q0 -153 -19 -246q-30 -35 -67 -98q-84 90 -84 309z" />
<glyph unicode="(" horiz-adv-x="421" d="M31 469q0 7 4 23q12 4 20 4v-27h-24zM31 1497v19l26 -9q-21 -7 -26 -10zM31 1552q21 7 32 7v-27h-26zM37 74h26q-9 -59 -16 -117zM37 109l12 96q-3 -93 -12 -96zM37 -166h18q0 -90 -8 -90zM37 229v66h18v-66h-18zM37 549v37q15 0 12 -15q-3 -13 -12 -22zM37 1028v53h26 q-7 -35 -8 -47zM37 1100v26q17 -6 26 -26h-26zM37 1178v53h18l-8 -53h-10zM45 1450q0 -31 2 -41q-2 10 -2 41zM98 1239q0 182 76 240h135q94 -9 94 -64q0 -21 -16 -53q-34 -16 -108 -64q-29 -116 -29 -266q0 -140 24 -358q-18 0 -24 -2q7 -366 20 -672q-18 -21 -18 -68 q0 -5 4 -51q1 -11 2 -22.5t1.5 -17.5t0.5 -9q108 -89 150 -80q0 -66 -72 -94q-40 -13 -131 -29q-44 27 -72 107q23 12 37 14q-40 4 -41 4q-2 14 -2 60q-6 4 -20 10q22 93 22 188q0 58 -8 105q6 2 22 2l-10 98q3 6 15 10q-9 17 -21 56h-23q24 61 27 133q2 47 2 141 q-14 9 -18 16l28 66l-22 8v53q5 2 17 8t16 7q-22 17 -50 20v27l44 8l-23 16q0 2 4 48q20 4 25 4q3 8 -6 28q-14 33 -23 66q-29 293 -29 307zM150 283q3 -6 6 -27h18l-8 25q-4 2 -16 2zM150 354h24q-1 4 -3 9q-4 11 -6 13.5t-11 2.5q-4 -20 -4 -25z" />
<glyph unicode=")" horiz-adv-x="421" d="M16 1339q0 81 17 110.5t67 29.5q28 0 78 -9q25 -15 68 -53q43 -36 69 -39l2 -1587l-24 -31l8 -14l-57 -41q0 -3 4 -43q-91 -22 -125 -35q-2 4 -3.5 9t-2.5 8t-2 4q-61 -6 -90 14q0 89 8 105q9 15 80 30l14 56l35 8v20l-15 8l15 5l-10 108l-12 6l-10 5t-5 3q0 7 4 27 q6 2 33 2v127q-8 2 -33 2q21 84 33 199l-21 8q24 147 21 319l-45 11l35 10q7 20 10 110q-5 5 -33 21l23 8v252q-4 2 -23 2v19q6 2 33 2v67h-39q0 8 7 18t17 20l11 11q-32 14 -39 45zM190 1151q6 -5 7 -10l20 8q-6 2 -27 2zM215 53l8 -10q2 2 21 6q-12 4 -29 4zM217 883 q1 -1 6 -15l37 9l-24 16q-12 -3 -19 -10z" />
<glyph unicode="*" horiz-adv-x="704" d="M59 1106q0 6 7 24q64 28 133 91q-12 21 -76 59q-47 27 -47 57q0 21 22 60q55 22 80 22q28 0 111 -47l30 23q0 52 17 118q50 13 67 13q31 0 101 -37q0 -27 -23 -84q-20 -50 -20 -78q53 0 170 -6l8 -111q-16 -29 -64 -41q-61 -15 -79 -30q0 -14 17 -57.5t17 -55.5 q0 -22 -18 -43l-104 -41q-42 60 -62 117q-33 -3 -98 -27q-68 -22 -98 -22q-36 36 -50 94q-10 2 -41 2zM408 885v24l20 -6q-6 -4 -20 -18z" />
<glyph unicode="+" horiz-adv-x="780" d="M102 670q0 69 50 104q103 0 176 31l8 156q53 16 82 16q76 0 76 -105q0 -25 -7 -79q-3 -1 -18 -11q48 -5 229 -26q6 -115 0 -142q-76 -21 -170 -24q-9 -18 -24 -27q-19 -58 -27 -170l-119 -14q-16 37 -22 88q-8 63 -10 92q-92 28 -201 31q-23 41 -23 80zM145 516v33h25 l-8 -33h-17zM272 328v24q16 -3 25 -24h-25zM367 682h24v27q-10 0 -17 -8t-7 -19zM391 625l21 10q-2 3 -19 20q-10 -20 -2 -30zM391 727l21 14q-3 8 -21 -14zM424 555l70 25q-16 0 -70 -7v-18zM475 643l47 14q-10 16 -37 25q-7 -19 -10 -39z" />
<glyph unicode="," horiz-adv-x="342" d="M76 45q0 125 24 184l120 1q-10 0 -32 1q52 0 82 -18v-199q-4 -6 -43 -118q-28 -79 -55 -109l-74 -12q-14 78 27 182q-9 30 -49 88z" />
<glyph unicode="-" horiz-adv-x="499" d="M29 705q191 18 235 20q64 -6 228 -27q-14 -92 -17 -123q-80 -24 -115 -26q-92 28 -313 37q-27 53 -18 119zM233 793q5 16 29 26v-26h-29z" />
<glyph unicode="." horiz-adv-x="331" d="M70 205q21 41 69 41q3 0 9 -0.5t17.5 -1.5t22.5 -2q42 -4 54 -2q-1 6 -2 13.5t-1.5 11t-0.5 5.5h24v-241q-24 0 -74 -15q-37 -11 -71 -16q-18 25 -39 41zM238 295q3 26 14 37q3 -23 10 -37h-24z" />
<glyph unicode="/" horiz-adv-x="587" d="M37 -72l35 234q24 133 67 223h23q-6 50 -6 68q4 7 12 10q-10 10 -10 37q0 36 18 98q14 52 31 76q19 127 61 305l72 303l22 8l25 168q18 102 51 158q9 0 42 3t42 3q38 0 58 -20q0 -4 -23 -101q-33 -125 -61 -254q-136 -378 -148 -657q-51 0 -57 -80q-9 -97 -25 -113 l-16 -137q4 -2 16 -14q-49 -52 -78 -103l11 -22q-20 -78 -80 -223q-11 0 -35 -7q-14 14 -47 37zM143 311l25 -30q5 5 14 8q0 1 -3.5 8.5t-4.5 13.5h-31zM213 479h41v21h-41v-21zM330 354v99h24l-14 -99h-10z" />
<glyph unicode="0" horiz-adv-x="1394" d="M4 170q0 -22 8 -35q2 -11 19 -24q18 -9 35 -9q18 0 34 13q16 12 19 30l-17 7q-2 -10 -12 -25q-10 -10 -27 -10q-11 0 -22 8q-9 4 -12 18q-6 8 -6 27t2 27q5 10 16 18q8 8 25 8q15 0 20 -8q6 -2 14 -18l17 2q-6 21 -21 26q-8 11 -30 11q-18 0 -33 -9q-15 -7 -21 -20 q-8 -13 -8 -37zM6 80l25 -86h10l18 63q0 7 4 11q0 -2 3 -11l16 -63h10l25 86h-13l-12 -57q-4 -16 -6 -19q0 7 -4 31l-14 45h-13l-16 -60q0 -6 -2 -16q-2 3 -6 19l-11 57h-14zM6 80l25 -86h10l18 63q0 7 4 11q0 -2 3 -11l16 -63h10l25 86h-13l-12 -57q-4 -16 -6 -19 q0 7 -4 31l-14 45h-13l-16 -60q0 -6 -2 -16q-2 3 -6 19l-11 57h-14zM6 80l25 -86h10l18 63q0 7 4 11q0 -2 3 -11l16 -63h10l25 86h-13l-12 -57q-4 -16 -6 -19q0 7 -4 31l-14 45h-13l-16 -60q0 -6 -2 -16q-2 3 -6 19l-11 57h-14zM10 578l6 12h39q41 0 41 -45q0 -25 -18 -31 q22 -9 22 -39q0 -47 -37 -47h-47v139zM16 260h21v53h31q30 0 36 11q13 13 13 30q0 11 -4 15q-1 4 -11 14q-12 4 -16 4h-18h-52v-127zM37 330v45h31q14 0 16 -2q4 0 10 -6q0 -1 3 -7t3 -10q0 -8 -8 -16q-6 -4 -24 -4h-31zM43 453h12q19 0 19 22q0 27 -19 27h-12v-49zM43 524 h12q15 0 15 21q0 22 -15 22h-12v-43zM119 80l24 -86h11l18 63q0 7 2 11q0 -5 2 -11l17 -63h10l24 86h-10l-14 -57q-1 -4 -2 -10t-2 -9q0 13 -6 31l-13 45h-14l-16 -60q0 -1 -3 -16q-1 3 -2 9t-2 10l-12 57h-12zM119 80l24 -86h11l18 63q0 7 2 11q0 -5 2 -11l17 -63h10l24 86 h-10l-14 -57q-1 -4 -2 -10t-2 -9q0 13 -6 31l-13 45h-14l-16 -60q0 -1 -3 -16q-1 3 -2 9t-2 10l-12 57h-12zM119 80l24 -86h11l18 63q0 7 2 11q0 -5 2 -11l17 -63h10l24 86h-10l-14 -57q-1 -4 -2 -10t-2 -9q0 13 -6 31l-13 45h-14l-16 -60q0 -1 -3 -16q-1 3 -2 9t-2 10 l-12 57h-12zM121 428v162h24v-162l-14 -8zM135 168q0 -20 8 -33q6 -15 21 -24q23 -9 33 -9q12 0 30 9q17 10 25 24q8 20 8 35t-8 35q-9 15 -23 22q-15 9 -32 9q-29 0 -43 -19q-19 -14 -19 -49zM137 260h96v16h-77v43h69v15h-69v41h73v12h-92v-127zM154 168q0 31 12 41 q14 14 31 14t22 -8q13 -3 17 -18q6 -24 6 -27q0 -22 -15 -37q-11 -16 -30 -16q-18 0 -33 12q-10 15 -10 39zM170 428v162l10 10l13 -10v-137h43v-25h-66zM229 80l23 -86h12l19 63q0 7 4 11q0 -5 2 -11l16 -63h10l25 86h-10l-15 -57q-4 -16 -6 -19q0 7 -4 31l-14 45h-12 l-17 -60l-1 -5q-1 -5 -1 -11q-2 3 -6 19l-12 57h-13zM229 80l23 -86h12l19 63q0 7 4 11q0 -5 2 -11l16 -63h10l25 86h-10l-15 -57q-4 -16 -6 -19q0 7 -4 31l-14 45h-12l-17 -60l-1 -5q-1 -5 -1 -11q-2 3 -6 19l-12 57h-13zM229 80l23 -86h12l19 63q0 7 4 11q0 -5 2 -11 l16 -63h10l25 86h-10l-15 -57q-4 -16 -6 -19q0 7 -4 31l-14 45h-12l-17 -60l-1 -5q-1 -5 -1 -11q-2 3 -6 19l-12 57h-13zM252 428v162l10 10l14 -10v-137h41v-25h-65zM256 260h20v59h19q8 0 10 -4q4 0 8 -2q1 0 4 -3.5t5 -4.5l4 -7q5 -6 6 -11l18 -27h21l-23 35q-4 8 -14 18 q-1 1 -4 2.5t-6 3.5q18 3 28 13q8 8 8 22q0 5 -4 21q-5 7 -14 10q-8 2 -27 2h-59v-127zM276 332v43h39q15 0 21 -6t6 -15q0 -8 -2 -12q-4 -2 -10 -8q-4 -2 -21 -2h-33zM281 106h16v109l37 -109h16l37 107v-107h16v127h-20l-33 -88q-3 -15 -8 -20q0 6 -6 18l-31 90h-24v-127z M305 590h27l18 -58l19 58h26l-33 -92v-70h-22v70zM342 1067l254 27l106 233l103 -231l254 -29l-187 -170l50 -254l-220 129l-225 -129l53 248zM344 4v-10h14v10h-14zM344 4v-10h14v10h-14zM344 4v-10h14v10h-14zM377 -6h33h12l4 2q3 2 4 4q5 0 8 8l1 3q1 3 1 7q0 5 -4 13 q-6 6 -12 8q5 0 8 8q4 2 4 8q0 9 -4 13q-3 6 -10 8q-1 0 -5.5 2t-6.5 2h-33v-86zM377 -6h33h12l4 2q3 2 4 4q5 0 8 8l1 3q1 3 1 7q0 5 -4 13q-6 6 -12 8q5 0 8 8q4 2 4 8q0 9 -4 13q-3 6 -10 8q-1 0 -5.5 2t-6.5 2h-33v-86zM377 -6h33h12l4 2q3 2 4 4q5 0 8 8l1 3q1 3 1 7 q0 5 -4 13q-6 6 -12 8q5 0 8 8q4 2 4 8q0 9 -4 13q-3 6 -10 8q-1 0 -5.5 2t-6.5 2h-33v-86zM383 303q0 -8 4 -24q5 -6 19 -17q16 -4 30 -4q11 0 27 4q1 2 6.5 7t7.5 10q6 9 6 18q0 12 -6 18q-1 3 -3 5t-5.5 5t-5.5 5q-12 0 -31 8q-20 3 -22 8q-7 2 -7 10q0 10 7 13q5 8 22 8 q15 0 23 -8q6 -3 10 -19l16 4q0 7 -8 19q-4 8 -16 14q-8 4 -25 4q-18 0 -22 -4q-14 -4 -17 -12q-6 -6 -6 -19q0 -10 2 -16q3 -5 14 -12q10 -7 27 -9q4 -2 9 -3t8 -1.5t4 -1.5q9 -3 14 -8q2 -2 2 -10q0 -1 -1 -5t-1 -5q-3 -5 -14 -9q-2 -2 -15 -2q-5 0 -20 5q-5 0 -13 8 q-1 2 -3.5 7.5t-2.5 8.5h-14zM387 2v29h19h14q4 0 4 -4q4 -4 4 -9v-8q-4 -2 -6 -6h-6q-2 -2 -6 -2h-23zM387 2v29h19h14q4 0 4 -4q4 -4 4 -9v-8q-4 -2 -6 -6h-6q-2 -2 -6 -2h-23zM387 2v29h19h14q4 0 4 -4q4 -4 4 -9v-8q-4 -2 -6 -6h-6q-2 -2 -6 -2h-23zM387 41v27h16 q11 0 13 -2l6 -3q2 -2 2 -8t-2 -8q0 -2 -6 -2q-2 -4 -10 -4h-19zM387 41v27h16q11 0 13 -2l6 -3q2 -2 2 -8t-2 -8q0 -2 -6 -2q-2 -4 -10 -4h-19zM387 41v27h16q11 0 13 -2l6 -3q2 -2 2 -8t-2 -8q0 -2 -6 -2q-2 -4 -10 -4h-19zM430 428l27 162h35l26 -162l-14 -8l-12 8l-7 37 h-22l-8 -37l-15 -8zM432 106h17v54h32q29 0 39 10q10 13 10 27q0 6 -4 18q-7 11 -10 12q-6 6 -16 6h-19h-49v-127zM449 172v49h32q13 0 15 -4q6 0 14 -8q2 -2 2 -12q0 -14 -8 -17q-3 -8 -21 -8h-34zM457 -6h10v86h-10v-86zM457 -6h10v86h-10v-86zM457 -6h10v86h-10v-86z M465 489h18l-10 64zM489 -6h50v8h-39v78h-11v-86zM489 -6h50v8h-39v78h-11v-86zM489 -6h50v8h-39v78h-11v-86zM502 324q0 -20 8 -31q2 -14 20 -25q13 -10 33 -10q17 0 33 8q10 7 20 23q9 18 9 35q0 19 -9 34q-12 20 -20 25q-24 8 -33 8q-27 0 -45 -18q-16 -19 -16 -49z M518 324q0 29 12 41q18 12 33 12q14 0 25 -8q6 -3 12 -15q6 -8 6 -30q0 -24 -10 -37q-13 -13 -33 -13t-33 13q-12 12 -12 37zM530 580l9 10h36q41 0 41 -37v-25q0 -15 -16 -28l18 -72h-26l-12 61h-17v-61h-24v141zM553 -6h53v8h-41v78h-12v-86zM553 -6h53v8h-41v78h-12v-86z M553 -6h53v8h-41v78h-12v-86zM553 106h80v13h-64v114h-16v-127zM563 516h12q9 0 12 2.5t3 9.5v25q0 14 -15 14h-12v-51zM602 80l33 -51v-35h10v35l35 51h-12l-17 -27q-3 -3 -6 -8t-4 -6q-4 2 -8 14l-17 27h-14zM602 80l33 -51v-35h10v35l35 51h-12l-17 -27q-3 -3 -6 -8 t-4 -6q-4 2 -8 14l-17 27h-14zM602 80l33 -51v-35h10v35l35 51h-12l-17 -27q-3 -3 -6 -8t-4 -6q-4 2 -8 14l-17 27h-14zM602 786l31 -18l26 18l13 80h53l14 -80l29 -18l27 18l-60 353h-71zM637 465v88q0 41 39 41t39 -41v-18h-27v20q0 14 -12 14q-14 0 -14 -14v-90 q0 -12 14 -12q12 0 12 12v33h-12l-8 10l8 12h39v-55q0 -39 -39 -39t-39 39zM645 260h17v100l69 -100h17v127h-17v-98l-67 98h-19v-127zM653 106h97v13h-80v45h71v16h-71v41h78v12h-95v-127zM672 -6h10l12 24h35l10 -24h13l-35 86h-12zM672 -6h10l12 24h35l10 -24h13l-35 86 h-12zM672 -6h10l12 24h35l10 -24h13l-35 86h-12zM680 918l18 139l23 -139h-41zM696 29l9 24q4 8 4 15q2 -2 4 -8t2 -7l10 -24h-29zM696 29l9 24q4 8 4 15q2 -2 4 -8t2 -7l10 -24h-29zM696 29l9 24q4 8 4 15q2 -2 4 -8t2 -7l10 -24h-29zM729 580l6 10h70v-23h-45v-47h35v-22 h-35v-45h45v-25h-70v139zM760 -6h10v37h14h4l7 -2l3 -2q3 -2 3 -4q1 -1 3.5 -6t4.5 -7l12 -16h15l-17 20q-6 9 -8 15q-1 0 -1.5 0.5t-2 1t-4.5 0.5q3 2 7.5 3.5t7 2.5t3.5 2q6 6 6 16q0 9 -4 13q-3 5 -8 8q-2 0 -8 2t-10 2h-37v-86zM760 -6h10v37h14h4l7 -2l3 -2q3 -2 3 -4 q1 -1 3.5 -6t4.5 -7l12 -16h15l-17 20q-6 9 -8 15q-1 0 -1.5 0.5t-2 1t-4.5 0.5q3 2 7.5 3.5t7 2.5t3.5 2q6 6 6 16q0 9 -4 13q-3 5 -8 8q-2 0 -8 2t-10 2h-37v-86zM760 -6h10v37h14h4l7 -2l3 -2q3 -2 3 -4q1 -1 3.5 -6t4.5 -7l12 -16h15l-17 20q-6 9 -8 15q-1 0 -1.5 0.5 t-2 1t-4.5 0.5q3 2 7.5 3.5t7 2.5t3.5 2q6 6 6 16q0 9 -4 13q-3 5 -8 8q-2 0 -8 2t-10 2h-37v-86zM762 221h43v-115h18v115h43v12h-104v-12zM762 260h16l17 41h53l14 -41h21l-54 127h-18zM770 39v29h27q12 0 14 -2q4 -4 4 -11q0 -6 -2 -8q0 -6 -4 -6q-2 0 -6.5 -1t-7.5 -1 h-25zM770 39v29h27q12 0 14 -2q4 -4 4 -11q0 -6 -2 -8q0 -6 -4 -6q-2 0 -6.5 -1t-7.5 -1h-25zM770 39v29h27q12 0 14 -2q4 -4 4 -11q0 -6 -2 -8q0 -6 -4 -6q-2 0 -6.5 -1t-7.5 -1h-25zM797 313l16 37q6 24 6 25q8 -23 10 -27l13 -35h-45zM823 428v162l13 10l12 -10v-137h43 v-25h-68zM842 35q0 -4 1 -7.5t2.5 -8l2.5 -7.5q1 -5 16 -16q8 -4 21 -4q3 0 9.5 1t8.5 1q10 4 17 10v33h-35v-10h24v-17q-1 -1 -4.5 -2.5t-5.5 -3.5q-6 -2 -14 -2q-11 0 -17 2q-2 2 -10 14q-4 4 -4 19q0 2 1 7.5t1 8.5q6 6 6 8q6 5 10 7h13h10q8 -3 8 -7q6 -6 6 -8l11 2 q-2 6 -9 13q-3 6 -10 8q-6 4 -16 4q-5 0 -23 -6q-11 -4 -14 -17q0 -1 -3 -8.5t-3 -13.5zM842 35q0 -4 1 -7.5t2.5 -8l2.5 -7.5q1 -5 16 -16q8 -4 21 -4q3 0 9.5 1t8.5 1q10 4 17 10v33h-35v-10h24v-17q-1 -1 -4.5 -2.5t-5.5 -3.5q-6 -2 -14 -2q-11 0 -17 2q-2 2 -10 14 q-4 4 -4 19q0 2 1 7.5t1 8.5q6 6 6 8q6 5 10 7h13h10q8 -3 8 -7q6 -6 6 -8l11 2q-2 6 -9 13q-3 6 -10 8q-6 4 -16 4q-5 0 -23 -6q-11 -4 -14 -17q0 -1 -3 -8.5t-3 -13.5zM842 35q0 -4 1 -7.5t2.5 -8l2.5 -7.5q1 -5 16 -16q8 -4 21 -4q3 0 9.5 1t8.5 1q10 4 17 10v33h-35v-10 h24v-17q-1 -1 -4.5 -2.5t-5.5 -3.5q-6 -2 -14 -2q-11 0 -17 2q-2 2 -10 14q-4 4 -4 19q0 2 1 7.5t1 8.5q6 6 6 8q6 5 10 7h13h10q8 -3 8 -7q6 -6 6 -8l11 2q-2 6 -9 13q-3 6 -10 8q-6 4 -16 4q-5 0 -23 -6q-11 -4 -14 -17q0 -1 -3 -8.5t-3 -13.5zM885 106h96v13h-80v45h72 v16h-72v41h78v12h-94v-127zM893 260h82v16h-64v111h-18v-127zM915 580l7 10h69v-23h-43v-47h33v-22h-33v-70h-26v139zM938 -6h61v8h-51v29h47v10h-47v27h51v12h-61v-86zM938 -6h61v8h-51v29h47v10h-47v27h51v12h-61v-86zM938 -6h61v8h-51v29h47v10h-47v27h51v12h-61v-86z M1010 465v90q0 39 39 39q38 0 38 -39v-90q0 -37 -38 -37q-39 0 -39 37zM1016 -6h53v8h-43v78h-10v-86zM1016 -6h53v8h-43v78h-10v-86zM1016 -6h53v8h-43v78h-10v-86zM1034 465q0 -12 15 -12q12 0 12 12v90q0 14 -12 14q-15 0 -15 -14v-90zM1040 315q0 -26 2 -30 q13 -18 19 -19q8 -8 29 -8q19 0 30 8q12 6 15 19q4 8 4 30v72h-17v-72q0 -26 -8 -34q-10 -7 -27 -7q-3 0 -18 5q-6 2 -10 10q-4 6 -4 26v72h-15v-72zM1051 145q0 -12 4 -20q10 -14 20 -16q21 -7 29 -7q6 0 15.5 3.5t10.5 3.5q10 5 17 12q4 6 4 20q0 13 -4 19q-10 10 -17 12 q-20 7 -28 8q-6 2 -12 4.5t-9 3.5t-4 2q-6 4 -6 11q0 8 6 14q4 6 25 6q14 0 20 -6q7 -2 11 -18l16 2q0 13 -8 18q-2 6 -17 14q-10 5 -22 5q-19 0 -25 -3q-3 -2 -7 -4.5t-6 -4t-3 -3.5q-8 -8 -8 -20t6 -15q3 -10 12 -14q2 -1 11 -3.5t16 -4.5q20 -4 22 -4q2 -2 7 -4.5t6 -3.5 q2 -4 2 -11q0 -8 -2 -12q-4 -8 -11 -8q-6 -2 -18 -2q-15 0 -19 2q-9 5 -14 12q-4 4 -4 14zM1081 4v-10h15v10h-15zM1081 4v-10h15v10h-15zM1081 4v-10h15v10h-15zM1102 580l6 10h31l30 -109v109h25v-162h-27l-34 104v-104h-25v141zM1112 37q0 -9 4 -25q1 -1 5 -6.5t9 -9.5 q8 -4 21 -4q15 0 23 8q9 4 12 20l-10 3q-2 -8 -9 -15q-6 -6 -16 -6t-16 2l-7 14q-6 6 -6 19q0 2 1 7.5t1 8.5q1 1 5 6.5t6 6.5q4 2 16 2q10 0 14 -2q9 -4 9 -13l12 2q0 2 -12 19q-18 6 -23 6q-4 0 -7 -1t-7 -2.5t-7 -2.5q-2 0 -14 -13q-4 -16 -4 -24zM1112 37q0 -9 4 -25 q1 -1 5 -6.5t9 -9.5q8 -4 21 -4q15 0 23 8q9 4 12 20l-10 3q-2 -8 -9 -15q-6 -6 -16 -6t-16 2l-7 14q-6 6 -6 19q0 2 1 7.5t1 8.5q1 1 5 6.5t6 6.5q4 2 16 2q10 0 14 -2q9 -4 9 -13l12 2q0 2 -12 19q-18 6 -23 6q-4 0 -7 -1t-7 -2.5t-7 -2.5q-2 0 -14 -13q-4 -16 -4 -24z M1112 37q0 -9 4 -25q1 -1 5 -6.5t9 -9.5q8 -4 21 -4q15 0 23 8q9 4 12 20l-10 3q-2 -8 -9 -15q-6 -6 -16 -6t-16 2l-7 14q-6 6 -6 19q0 2 1 7.5t1 8.5q1 1 5 6.5t6 6.5q4 2 16 2q10 0 14 -2q9 -4 9 -13l12 2q0 2 -12 19q-18 6 -23 6q-4 0 -7 -1t-7 -2.5t-7 -2.5 q-2 0 -14 -13q-4 -16 -4 -24zM1161 303q0 -8 8 -24q2 -5 9.5 -10t9.5 -7q16 -4 31 -4q10 0 22 4q14 11 16 17q7 7 7 18q0 13 -7 18q-1 4 -16 15q-8 0 -29 8q-19 3 -24 8q-4 4 -4 10q0 10 8 13q3 8 20 8q18 0 23 -8q1 0 10 -19l17 4q0 3 -1.5 6t-3 7t-2.5 6q-6 8 -18 14 q-6 4 -25 4q-16 0 -24 -4q-11 -4 -14 -12q-7 -11 -7 -19q0 -9 7 -16q2 -7 12 -12q2 -5 24 -9q6 -2 14.5 -3.5t10.5 -2.5t5 -4t5 -4q2 -2 2 -10t-2 -10q-8 -8 -10 -9q-6 -2 -21 -2q-3 0 -18 5q-4 0 -12 8q0 1 -3 7t-3 9h-17zM1176 106h96v13h-78v45h72v16h-72v41h74v12h-92 v-127zM1196 35q0 -4 1 -7.5t2.5 -8l2.5 -7.5q1 -2 5.5 -7.5t6.5 -8.5q16 -4 23 -4q12 0 20 4q10 7 15 16q4 6 4 25q0 16 -2 20q-12 16 -17 17q-12 6 -20 6q-20 0 -29 -12q-12 -9 -12 -33zM1196 35q0 -4 1 -7.5t2.5 -8l2.5 -7.5q1 -2 5.5 -7.5t6.5 -8.5q16 -4 23 -4 q12 0 20 4q10 7 15 16q4 6 4 25q0 16 -2 20q-12 16 -17 17q-12 6 -20 6q-20 0 -29 -12q-12 -9 -12 -33zM1196 35q0 -4 1 -7.5t2.5 -8l2.5 -7.5q1 -2 5.5 -7.5t6.5 -8.5q16 -4 23 -4q12 0 20 4q10 7 15 16q4 6 4 25q0 16 -2 20q-12 16 -17 17q-12 6 -20 6q-20 0 -29 -12 q-12 -9 -12 -33zM1208 35q0 18 11 26q7 7 18 7q10 0 16 -2q6 -3 11 -13q2 -6 2 -16q0 -21 -9 -27q-5 -8 -20 -8t-23 8q-6 6 -6 25zM1208 35q0 18 11 26q7 7 18 7q10 0 16 -2q6 -3 11 -13q2 -6 2 -16q0 -21 -9 -27q-5 -8 -20 -8t-23 8q-6 6 -6 25zM1208 35q0 18 11 26 q7 7 18 7q10 0 16 -2q6 -3 11 -13q2 -6 2 -16q0 -21 -9 -27q-5 -8 -20 -8t-23 8q-6 6 -6 25zM1212 567v23h78v-23h-26v-139l-11 -8l-14 8v139h-27zM1288 221h41v-115h17v115h43v12h-101v-12zM1288 260h94v16h-75v43h67v15h-67v41h73v12h-92v-127zM1292 -6h11v72l24 -72h10 l25 69v-69h10v86h-16l-19 -62q-4 -12 -4 -14q0 2 -2 6.5t-2 7.5l-20 62h-17v-86zM1292 -6h11v72l24 -72h10l25 69v-69h10v86h-16l-19 -62q-4 -12 -4 -14q0 2 -2 6.5t-2 7.5l-20 62h-17v-86zM1292 -6h11v72l24 -72h10l25 69v-69h10v86h-16l-19 -62q-4 -12 -4 -14q0 2 -2 6.5 t-2 7.5l-20 62h-17v-86zM1309 473l8 8l12 -6q3 -15 7 -20.5t12 -5.5q16 0 16 18q0 12 -21 33q-18 18 -26 28q-8 16 -8 25q0 41 39 41q38 0 38 -39l-22 -4q-3 20 -16 20t-13 -18q0 -17 33 -43q21 -21 21 -39q0 -24 -9 -33.5t-32 -9.5q-39 0 -39 45z" />
<glyph unicode="1" horiz-adv-x="1394" d="M4 170q0 -22 8 -35q2 -11 19 -24q18 -9 35 -9q18 0 34 13q16 12 19 30l-17 7q-2 -10 -12 -25q-10 -10 -27 -10q-11 0 -22 8q-9 4 -12 18q-6 8 -6 27t2 27q5 10 16 18q8 8 25 8q15 0 20 -8q6 -2 14 -18l17 2q-6 21 -21 26q-8 11 -30 11q-18 0 -33 -9q-15 -7 -21 -20 q-8 -13 -8 -37zM6 80l25 -86h10l18 63q0 7 4 11q0 -2 3 -11l16 -63h10l25 86h-13l-12 -57q-4 -16 -6 -19q0 7 -4 31l-14 45h-13l-16 -60q0 -6 -2 -16q-2 3 -6 19l-11 57h-14zM6 80l25 -86h10l18 63q0 7 4 11q0 -2 3 -11l16 -63h10l25 86h-13l-12 -57q-4 -16 -6 -19 q0 7 -4 31l-14 45h-13l-16 -60q0 -6 -2 -16q-2 3 -6 19l-11 57h-14zM6 80l25 -86h10l18 63q0 7 4 11q0 -2 3 -11l16 -63h10l25 86h-13l-12 -57q-4 -16 -6 -19q0 7 -4 31l-14 45h-13l-16 -60q0 -6 -2 -16q-2 3 -6 19l-11 57h-14zM10 578l6 12h39q41 0 41 -45q0 -25 -18 -31 q22 -9 22 -39q0 -47 -37 -47h-47v139zM16 260h21v53h31q30 0 36 11q13 13 13 30q0 11 -4 15q-1 4 -11 14q-12 4 -16 4h-18h-52v-127zM37 330v45h31q14 0 16 -2q4 0 10 -6q0 -1 3 -7t3 -10q0 -8 -8 -16q-6 -4 -24 -4h-31zM43 453h12q19 0 19 22q0 27 -19 27h-12v-49zM43 524 h12q15 0 15 21q0 22 -15 22h-12v-43zM119 80l24 -86h11l18 63q0 7 2 11q0 -5 2 -11l17 -63h10l24 86h-10l-14 -57q-1 -4 -2 -10t-2 -9q0 13 -6 31l-13 45h-14l-16 -60q0 -1 -3 -16q-1 3 -2 9t-2 10l-12 57h-12zM119 80l24 -86h11l18 63q0 7 2 11q0 -5 2 -11l17 -63h10l24 86 h-10l-14 -57q-1 -4 -2 -10t-2 -9q0 13 -6 31l-13 45h-14l-16 -60q0 -1 -3 -16q-1 3 -2 9t-2 10l-12 57h-12zM119 80l24 -86h11l18 63q0 7 2 11q0 -5 2 -11l17 -63h10l24 86h-10l-14 -57q-1 -4 -2 -10t-2 -9q0 13 -6 31l-13 45h-14l-16 -60q0 -1 -3 -16q-1 3 -2 9t-2 10 l-12 57h-12zM121 428v162h24v-162l-14 -8zM135 168q0 -20 8 -33q6 -15 21 -24q23 -9 33 -9q12 0 30 9q17 10 25 24q8 20 8 35t-8 35q-9 15 -23 22q-15 9 -32 9q-29 0 -43 -19q-19 -14 -19 -49zM137 260h96v16h-77v43h69v15h-69v41h73v12h-92v-127zM154 168q0 31 12 41 q14 14 31 14t22 -8q13 -3 17 -18q6 -24 6 -27q0 -22 -15 -37q-11 -16 -30 -16q-18 0 -33 12q-10 15 -10 39zM170 428v162l10 10l13 -10v-137h43v-25h-66zM229 80l23 -86h12l19 63q0 7 4 11q0 -5 2 -11l16 -63h10l25 86h-10l-15 -57q-4 -16 -6 -19q0 7 -4 31l-14 45h-12 l-17 -60l-1 -5q-1 -5 -1 -11q-2 3 -6 19l-12 57h-13zM229 80l23 -86h12l19 63q0 7 4 11q0 -5 2 -11l16 -63h10l25 86h-10l-15 -57q-4 -16 -6 -19q0 7 -4 31l-14 45h-12l-17 -60l-1 -5q-1 -5 -1 -11q-2 3 -6 19l-12 57h-13zM229 80l23 -86h12l19 63q0 7 4 11q0 -5 2 -11 l16 -63h10l25 86h-10l-15 -57q-4 -16 -6 -19q0 7 -4 31l-14 45h-12l-17 -60l-1 -5q-1 -5 -1 -11q-2 3 -6 19l-12 57h-13zM252 428v162l10 10l14 -10v-137h41v-25h-65zM256 260h20v59h19q8 0 10 -4q4 0 8 -2q1 0 4 -3.5t5 -4.5l4 -7q5 -6 6 -11l18 -27h21l-23 35q-4 8 -14 18 q-1 1 -4 2.5t-6 3.5q18 3 28 13q8 8 8 22q0 5 -4 21q-5 7 -14 10q-8 2 -27 2h-59v-127zM276 332v43h39q15 0 21 -6t6 -15q0 -8 -2 -12q-4 -2 -10 -8q-4 -2 -21 -2h-33zM281 106h16v109l37 -109h16l37 107v-107h16v127h-20l-33 -88q-3 -15 -8 -20q0 6 -6 18l-31 90h-24v-127z M305 590h27l18 -58l19 58h26l-33 -92v-70h-22v70zM342 1067l254 27l106 233l103 -231l254 -29l-187 -170l50 -254l-220 129l-225 -129l53 248zM344 4v-10h14v10h-14zM344 4v-10h14v10h-14zM344 4v-10h14v10h-14zM377 -6h33h12l4 2q3 2 4 4q5 0 8 8l1 3q1 3 1 7q0 5 -4 13 q-6 6 -12 8q5 0 8 8q4 2 4 8q0 9 -4 13q-3 6 -10 8q-1 0 -5.5 2t-6.5 2h-33v-86zM377 -6h33h12l4 2q3 2 4 4q5 0 8 8l1 3q1 3 1 7q0 5 -4 13q-6 6 -12 8q5 0 8 8q4 2 4 8q0 9 -4 13q-3 6 -10 8q-1 0 -5.5 2t-6.5 2h-33v-86zM377 -6h33h12l4 2q3 2 4 4q5 0 8 8l1 3q1 3 1 7 q0 5 -4 13q-6 6 -12 8q5 0 8 8q4 2 4 8q0 9 -4 13q-3 6 -10 8q-1 0 -5.5 2t-6.5 2h-33v-86zM383 303q0 -8 4 -24q5 -6 19 -17q16 -4 30 -4q11 0 27 4q1 2 6.5 7t7.5 10q6 9 6 18q0 12 -6 18q-1 3 -3 5t-5.5 5t-5.5 5q-12 0 -31 8q-20 3 -22 8q-7 2 -7 10q0 10 7 13q5 8 22 8 q15 0 23 -8q6 -3 10 -19l16 4q0 7 -8 19q-4 8 -16 14q-8 4 -25 4q-18 0 -22 -4q-14 -4 -17 -12q-6 -6 -6 -19q0 -10 2 -16q3 -5 14 -12q10 -7 27 -9q4 -2 9 -3t8 -1.5t4 -1.5q9 -3 14 -8q2 -2 2 -10q0 -1 -1 -5t-1 -5q-3 -5 -14 -9q-2 -2 -15 -2q-5 0 -20 5q-5 0 -13 8 q-1 2 -3.5 7.5t-2.5 8.5h-14zM387 2v29h19h14q4 0 4 -4q4 -4 4 -9v-8q-4 -2 -6 -6h-6q-2 -2 -6 -2h-23zM387 2v29h19h14q4 0 4 -4q4 -4 4 -9v-8q-4 -2 -6 -6h-6q-2 -2 -6 -2h-23zM387 2v29h19h14q4 0 4 -4q4 -4 4 -9v-8q-4 -2 -6 -6h-6q-2 -2 -6 -2h-23zM387 41v27h16 q11 0 13 -2l6 -3q2 -2 2 -8t-2 -8q0 -2 -6 -2q-2 -4 -10 -4h-19zM387 41v27h16q11 0 13 -2l6 -3q2 -2 2 -8t-2 -8q0 -2 -6 -2q-2 -4 -10 -4h-19zM387 41v27h16q11 0 13 -2l6 -3q2 -2 2 -8t-2 -8q0 -2 -6 -2q-2 -4 -10 -4h-19zM430 428l27 162h35l26 -162l-14 -8l-12 8l-7 37 h-22l-8 -37l-15 -8zM432 106h17v54h32q29 0 39 10q10 13 10 27q0 6 -4 18q-7 11 -10 12q-6 6 -16 6h-19h-49v-127zM449 172v49h32q13 0 15 -4q6 0 14 -8q2 -2 2 -12q0 -14 -8 -17q-3 -8 -21 -8h-34zM457 -6h10v86h-10v-86zM457 -6h10v86h-10v-86zM457 -6h10v86h-10v-86z M465 489h18l-10 64zM489 -6h50v8h-39v78h-11v-86zM489 -6h50v8h-39v78h-11v-86zM489 -6h50v8h-39v78h-11v-86zM502 324q0 -20 8 -31q2 -14 20 -25q13 -10 33 -10q17 0 33 8q10 7 20 23q9 18 9 35q0 19 -9 34q-12 20 -20 25q-24 8 -33 8q-27 0 -45 -18q-16 -19 -16 -49z M518 324q0 29 12 41q18 12 33 12q14 0 25 -8q6 -3 12 -15q6 -8 6 -30q0 -24 -10 -37q-13 -13 -33 -13t-33 13q-12 12 -12 37zM530 580l9 10h36q41 0 41 -37v-25q0 -15 -16 -28l18 -72h-26l-12 61h-17v-61h-24v141zM553 -6h53v8h-41v78h-12v-86zM553 -6h53v8h-41v78h-12v-86z M553 -6h53v8h-41v78h-12v-86zM553 106h80v13h-64v114h-16v-127zM563 516h12q9 0 12 2.5t3 9.5v25q0 14 -15 14h-12v-51zM602 80l33 -51v-35h10v35l35 51h-12l-17 -27q-3 -3 -6 -8t-4 -6q-4 2 -8 14l-17 27h-14zM602 80l33 -51v-35h10v35l35 51h-12l-17 -27q-3 -3 -6 -8 t-4 -6q-4 2 -8 14l-17 27h-14zM602 80l33 -51v-35h10v35l35 51h-12l-17 -27q-3 -3 -6 -8t-4 -6q-4 2 -8 14l-17 27h-14zM602 786l31 -18l26 18l13 80h53l14 -80l29 -18l27 18l-60 353h-71zM637 465v88q0 41 39 41t39 -41v-18h-27v20q0 14 -12 14q-14 0 -14 -14v-90 q0 -12 14 -12q12 0 12 12v33h-12l-8 10l8 12h39v-55q0 -39 -39 -39t-39 39zM645 260h17v100l69 -100h17v127h-17v-98l-67 98h-19v-127zM653 106h97v13h-80v45h71v16h-71v41h78v12h-95v-127zM672 -6h10l12 24h35l10 -24h13l-35 86h-12zM672 -6h10l12 24h35l10 -24h13l-35 86 h-12zM672 -6h10l12 24h35l10 -24h13l-35 86h-12zM680 918l18 139l23 -139h-41zM696 29l9 24q4 8 4 15q2 -2 4 -8t2 -7l10 -24h-29zM696 29l9 24q4 8 4 15q2 -2 4 -8t2 -7l10 -24h-29zM696 29l9 24q4 8 4 15q2 -2 4 -8t2 -7l10 -24h-29zM729 580l6 10h70v-23h-45v-47h35v-22 h-35v-45h45v-25h-70v139zM760 -6h10v37h14h4l7 -2l3 -2q3 -2 3 -4q1 -1 3.5 -6t4.5 -7l12 -16h15l-17 20q-6 9 -8 15q-1 0 -1.5 0.5t-2 1t-4.5 0.5q3 2 7.5 3.5t7 2.5t3.5 2q6 6 6 16q0 9 -4 13q-3 5 -8 8q-2 0 -8 2t-10 2h-37v-86zM760 -6h10v37h14h4l7 -2l3 -2q3 -2 3 -4 q1 -1 3.5 -6t4.5 -7l12 -16h15l-17 20q-6 9 -8 15q-1 0 -1.5 0.5t-2 1t-4.5 0.5q3 2 7.5 3.5t7 2.5t3.5 2q6 6 6 16q0 9 -4 13q-3 5 -8 8q-2 0 -8 2t-10 2h-37v-86zM760 -6h10v37h14h4l7 -2l3 -2q3 -2 3 -4q1 -1 3.5 -6t4.5 -7l12 -16h15l-17 20q-6 9 -8 15q-1 0 -1.5 0.5 t-2 1t-4.5 0.5q3 2 7.5 3.5t7 2.5t3.5 2q6 6 6 16q0 9 -4 13q-3 5 -8 8q-2 0 -8 2t-10 2h-37v-86zM762 221h43v-115h18v115h43v12h-104v-12zM762 260h16l17 41h53l14 -41h21l-54 127h-18zM770 39v29h27q12 0 14 -2q4 -4 4 -11q0 -6 -2 -8q0 -6 -4 -6q-2 0 -6.5 -1t-7.5 -1 h-25zM770 39v29h27q12 0 14 -2q4 -4 4 -11q0 -6 -2 -8q0 -6 -4 -6q-2 0 -6.5 -1t-7.5 -1h-25zM770 39v29h27q12 0 14 -2q4 -4 4 -11q0 -6 -2 -8q0 -6 -4 -6q-2 0 -6.5 -1t-7.5 -1h-25zM797 313l16 37q6 24 6 25q8 -23 10 -27l13 -35h-45zM823 428v162l13 10l12 -10v-137h43 v-25h-68zM842 35q0 -4 1 -7.5t2.5 -8l2.5 -7.5q1 -5 16 -16q8 -4 21 -4q3 0 9.5 1t8.5 1q10 4 17 10v33h-35v-10h24v-17q-1 -1 -4.5 -2.5t-5.5 -3.5q-6 -2 -14 -2q-11 0 -17 2q-2 2 -10 14q-4 4 -4 19q0 2 1 7.5t1 8.5q6 6 6 8q6 5 10 7h13h10q8 -3 8 -7q6 -6 6 -8l11 2 q-2 6 -9 13q-3 6 -10 8q-6 4 -16 4q-5 0 -23 -6q-11 -4 -14 -17q0 -1 -3 -8.5t-3 -13.5zM842 35q0 -4 1 -7.5t2.5 -8l2.5 -7.5q1 -5 16 -16q8 -4 21 -4q3 0 9.5 1t8.5 1q10 4 17 10v33h-35v-10h24v-17q-1 -1 -4.5 -2.5t-5.5 -3.5q-6 -2 -14 -2q-11 0 -17 2q-2 2 -10 14 q-4 4 -4 19q0 2 1 7.5t1 8.5q6 6 6 8q6 5 10 7h13h10q8 -3 8 -7q6 -6 6 -8l11 2q-2 6 -9 13q-3 6 -10 8q-6 4 -16 4q-5 0 -23 -6q-11 -4 -14 -17q0 -1 -3 -8.5t-3 -13.5zM842 35q0 -4 1 -7.5t2.5 -8l2.5 -7.5q1 -5 16 -16q8 -4 21 -4q3 0 9.5 1t8.5 1q10 4 17 10v33h-35v-10 h24v-17q-1 -1 -4.5 -2.5t-5.5 -3.5q-6 -2 -14 -2q-11 0 -17 2q-2 2 -10 14q-4 4 -4 19q0 2 1 7.5t1 8.5q6 6 6 8q6 5 10 7h13h10q8 -3 8 -7q6 -6 6 -8l11 2q-2 6 -9 13q-3 6 -10 8q-6 4 -16 4q-5 0 -23 -6q-11 -4 -14 -17q0 -1 -3 -8.5t-3 -13.5zM885 106h96v13h-80v45h72 v16h-72v41h78v12h-94v-127zM893 260h82v16h-64v111h-18v-127zM915 580l7 10h69v-23h-43v-47h33v-22h-33v-70h-26v139zM938 -6h61v8h-51v29h47v10h-47v27h51v12h-61v-86zM938 -6h61v8h-51v29h47v10h-47v27h51v12h-61v-86zM938 -6h61v8h-51v29h47v10h-47v27h51v12h-61v-86z M1010 465v90q0 39 39 39q38 0 38 -39v-90q0 -37 -38 -37q-39 0 -39 37zM1016 -6h53v8h-43v78h-10v-86zM1016 -6h53v8h-43v78h-10v-86zM1016 -6h53v8h-43v78h-10v-86zM1034 465q0 -12 15 -12q12 0 12 12v90q0 14 -12 14q-15 0 -15 -14v-90zM1040 315q0 -26 2 -30 q13 -18 19 -19q8 -8 29 -8q19 0 30 8q12 6 15 19q4 8 4 30v72h-17v-72q0 -26 -8 -34q-10 -7 -27 -7q-3 0 -18 5q-6 2 -10 10q-4 6 -4 26v72h-15v-72zM1051 145q0 -12 4 -20q10 -14 20 -16q21 -7 29 -7q6 0 15.5 3.5t10.5 3.5q10 5 17 12q4 6 4 20q0 13 -4 19q-10 10 -17 12 q-20 7 -28 8q-6 2 -12 4.5t-9 3.5t-4 2q-6 4 -6 11q0 8 6 14q4 6 25 6q14 0 20 -6q7 -2 11 -18l16 2q0 13 -8 18q-2 6 -17 14q-10 5 -22 5q-19 0 -25 -3q-3 -2 -7 -4.5t-6 -4t-3 -3.5q-8 -8 -8 -20t6 -15q3 -10 12 -14q2 -1 11 -3.5t16 -4.5q20 -4 22 -4q2 -2 7 -4.5t6 -3.5 q2 -4 2 -11q0 -8 -2 -12q-4 -8 -11 -8q-6 -2 -18 -2q-15 0 -19 2q-9 5 -14 12q-4 4 -4 14zM1081 4v-10h15v10h-15zM1081 4v-10h15v10h-15zM1081 4v-10h15v10h-15zM1102 580l6 10h31l30 -109v109h25v-162h-27l-34 104v-104h-25v141zM1112 37q0 -9 4 -25q1 -1 5 -6.5t9 -9.5 q8 -4 21 -4q15 0 23 8q9 4 12 20l-10 3q-2 -8 -9 -15q-6 -6 -16 -6t-16 2l-7 14q-6 6 -6 19q0 2 1 7.5t1 8.5q1 1 5 6.5t6 6.5q4 2 16 2q10 0 14 -2q9 -4 9 -13l12 2q0 2 -12 19q-18 6 -23 6q-4 0 -7 -1t-7 -2.5t-7 -2.5q-2 0 -14 -13q-4 -16 -4 -24zM1112 37q0 -9 4 -25 q1 -1 5 -6.5t9 -9.5q8 -4 21 -4q15 0 23 8q9 4 12 20l-10 3q-2 -8 -9 -15q-6 -6 -16 -6t-16 2l-7 14q-6 6 -6 19q0 2 1 7.5t1 8.5q1 1 5 6.5t6 6.5q4 2 16 2q10 0 14 -2q9 -4 9 -13l12 2q0 2 -12 19q-18 6 -23 6q-4 0 -7 -1t-7 -2.5t-7 -2.5q-2 0 -14 -13q-4 -16 -4 -24z M1112 37q0 -9 4 -25q1 -1 5 -6.5t9 -9.5q8 -4 21 -4q15 0 23 8q9 4 12 20l-10 3q-2 -8 -9 -15q-6 -6 -16 -6t-16 2l-7 14q-6 6 -6 19q0 2 1 7.5t1 8.5q1 1 5 6.5t6 6.5q4 2 16 2q10 0 14 -2q9 -4 9 -13l12 2q0 2 -12 19q-18 6 -23 6q-4 0 -7 -1t-7 -2.5t-7 -2.5 q-2 0 -14 -13q-4 -16 -4 -24zM1161 303q0 -8 8 -24q2 -5 9.5 -10t9.5 -7q16 -4 31 -4q10 0 22 4q14 11 16 17q7 7 7 18q0 13 -7 18q-1 4 -16 15q-8 0 -29 8q-19 3 -24 8q-4 4 -4 10q0 10 8 13q3 8 20 8q18 0 23 -8q1 0 10 -19l17 4q0 3 -1.5 6t-3 7t-2.5 6q-6 8 -18 14 q-6 4 -25 4q-16 0 -24 -4q-11 -4 -14 -12q-7 -11 -7 -19q0 -9 7 -16q2 -7 12 -12q2 -5 24 -9q6 -2 14.5 -3.5t10.5 -2.5t5 -4t5 -4q2 -2 2 -10t-2 -10q-8 -8 -10 -9q-6 -2 -21 -2q-3 0 -18 5q-4 0 -12 8q0 1 -3 7t-3 9h-17zM1176 106h96v13h-78v45h72v16h-72v41h74v12h-92 v-127zM1196 35q0 -4 1 -7.5t2.5 -8l2.5 -7.5q1 -2 5.5 -7.5t6.5 -8.5q16 -4 23 -4q12 0 20 4q10 7 15 16q4 6 4 25q0 16 -2 20q-12 16 -17 17q-12 6 -20 6q-20 0 -29 -12q-12 -9 -12 -33zM1196 35q0 -4 1 -7.5t2.5 -8l2.5 -7.5q1 -2 5.5 -7.5t6.5 -8.5q16 -4 23 -4 q12 0 20 4q10 7 15 16q4 6 4 25q0 16 -2 20q-12 16 -17 17q-12 6 -20 6q-20 0 -29 -12q-12 -9 -12 -33zM1196 35q0 -4 1 -7.5t2.5 -8l2.5 -7.5q1 -2 5.5 -7.5t6.5 -8.5q16 -4 23 -4q12 0 20 4q10 7 15 16q4 6 4 25q0 16 -2 20q-12 16 -17 17q-12 6 -20 6q-20 0 -29 -12 q-12 -9 -12 -33zM1208 35q0 18 11 26q7 7 18 7q10 0 16 -2q6 -3 11 -13q2 -6 2 -16q0 -21 -9 -27q-5 -8 -20 -8t-23 8q-6 6 -6 25zM1208 35q0 18 11 26q7 7 18 7q10 0 16 -2q6 -3 11 -13q2 -6 2 -16q0 -21 -9 -27q-5 -8 -20 -8t-23 8q-6 6 -6 25zM1208 35q0 18 11 26 q7 7 18 7q10 0 16 -2q6 -3 11 -13q2 -6 2 -16q0 -21 -9 -27q-5 -8 -20 -8t-23 8q-6 6 -6 25zM1212 567v23h78v-23h-26v-139l-11 -8l-14 8v139h-27zM1288 221h41v-115h17v115h43v12h-101v-12zM1288 260h94v16h-75v43h67v15h-67v41h73v12h-92v-127zM1292 -6h11v72l24 -72h10 l25 69v-69h10v86h-16l-19 -62q-4 -12 -4 -14q0 2 -2 6.5t-2 7.5l-20 62h-17v-86zM1292 -6h11v72l24 -72h10l25 69v-69h10v86h-16l-19 -62q-4 -12 -4 -14q0 2 -2 6.5t-2 7.5l-20 62h-17v-86zM1292 -6h11v72l24 -72h10l25 69v-69h10v86h-16l-19 -62q-4 -12 -4 -14q0 2 -2 6.5 t-2 7.5l-20 62h-17v-86zM1309 473l8 8l12 -6q3 -15 7 -20.5t12 -5.5q16 0 16 18q0 12 -21 33q-18 18 -26 28q-8 16 -8 25q0 41 39 41q38 0 38 -39l-22 -4q-3 20 -16 20t-13 -18q0 -17 33 -43q21 -21 21 -39q0 -24 -9 -33.5t-32 -9.5q-39 0 -39 45z" />
<glyph unicode="2" horiz-adv-x="1394" d="M4 170q0 -22 8 -35q2 -11 19 -24q18 -9 35 -9q18 0 34 13q16 12 19 30l-17 7q-2 -10 -12 -25q-10 -10 -27 -10q-11 0 -22 8q-9 4 -12 18q-6 8 -6 27t2 27q5 10 16 18q8 8 25 8q15 0 20 -8q6 -2 14 -18l17 2q-6 21 -21 26q-8 11 -30 11q-18 0 -33 -9q-15 -7 -21 -20 q-8 -13 -8 -37zM6 80l25 -86h10l18 63q0 7 4 11q0 -2 3 -11l16 -63h10l25 86h-13l-12 -57q-4 -16 -6 -19q0 7 -4 31l-14 45h-13l-16 -60q0 -6 -2 -16q-2 3 -6 19l-11 57h-14zM6 80l25 -86h10l18 63q0 7 4 11q0 -2 3 -11l16 -63h10l25 86h-13l-12 -57q-4 -16 -6 -19 q0 7 -4 31l-14 45h-13l-16 -60q0 -6 -2 -16q-2 3 -6 19l-11 57h-14zM6 80l25 -86h10l18 63q0 7 4 11q0 -2 3 -11l16 -63h10l25 86h-13l-12 -57q-4 -16 -6 -19q0 7 -4 31l-14 45h-13l-16 -60q0 -6 -2 -16q-2 3 -6 19l-11 57h-14zM10 578l6 12h39q41 0 41 -45q0 -25 -18 -31 q22 -9 22 -39q0 -47 -37 -47h-47v139zM16 260h21v53h31q30 0 36 11q13 13 13 30q0 11 -4 15q-1 4 -11 14q-12 4 -16 4h-18h-52v-127zM37 330v45h31q14 0 16 -2q4 0 10 -6q0 -1 3 -7t3 -10q0 -8 -8 -16q-6 -4 -24 -4h-31zM43 453h12q19 0 19 22q0 27 -19 27h-12v-49zM43 524 h12q15 0 15 21q0 22 -15 22h-12v-43zM119 80l24 -86h11l18 63q0 7 2 11q0 -5 2 -11l17 -63h10l24 86h-10l-14 -57q-1 -4 -2 -10t-2 -9q0 13 -6 31l-13 45h-14l-16 -60q0 -1 -3 -16q-1 3 -2 9t-2 10l-12 57h-12zM119 80l24 -86h11l18 63q0 7 2 11q0 -5 2 -11l17 -63h10l24 86 h-10l-14 -57q-1 -4 -2 -10t-2 -9q0 13 -6 31l-13 45h-14l-16 -60q0 -1 -3 -16q-1 3 -2 9t-2 10l-12 57h-12zM119 80l24 -86h11l18 63q0 7 2 11q0 -5 2 -11l17 -63h10l24 86h-10l-14 -57q-1 -4 -2 -10t-2 -9q0 13 -6 31l-13 45h-14l-16 -60q0 -1 -3 -16q-1 3 -2 9t-2 10 l-12 57h-12zM121 428v162h24v-162l-14 -8zM135 168q0 -20 8 -33q6 -15 21 -24q23 -9 33 -9q12 0 30 9q17 10 25 24q8 20 8 35t-8 35q-9 15 -23 22q-15 9 -32 9q-29 0 -43 -19q-19 -14 -19 -49zM137 260h96v16h-77v43h69v15h-69v41h73v12h-92v-127zM154 168q0 31 12 41 q14 14 31 14t22 -8q13 -3 17 -18q6 -24 6 -27q0 -22 -15 -37q-11 -16 -30 -16q-18 0 -33 12q-10 15 -10 39zM170 428v162l10 10l13 -10v-137h43v-25h-66zM229 80l23 -86h12l19 63q0 7 4 11q0 -5 2 -11l16 -63h10l25 86h-10l-15 -57q-4 -16 -6 -19q0 7 -4 31l-14 45h-12 l-17 -60l-1 -5q-1 -5 -1 -11q-2 3 -6 19l-12 57h-13zM229 80l23 -86h12l19 63q0 7 4 11q0 -5 2 -11l16 -63h10l25 86h-10l-15 -57q-4 -16 -6 -19q0 7 -4 31l-14 45h-12l-17 -60l-1 -5q-1 -5 -1 -11q-2 3 -6 19l-12 57h-13zM229 80l23 -86h12l19 63q0 7 4 11q0 -5 2 -11 l16 -63h10l25 86h-10l-15 -57q-4 -16 -6 -19q0 7 -4 31l-14 45h-12l-17 -60l-1 -5q-1 -5 -1 -11q-2 3 -6 19l-12 57h-13zM252 428v162l10 10l14 -10v-137h41v-25h-65zM256 260h20v59h19q8 0 10 -4q4 0 8 -2q1 0 4 -3.5t5 -4.5l4 -7q5 -6 6 -11l18 -27h21l-23 35q-4 8 -14 18 q-1 1 -4 2.5t-6 3.5q18 3 28 13q8 8 8 22q0 5 -4 21q-5 7 -14 10q-8 2 -27 2h-59v-127zM276 332v43h39q15 0 21 -6t6 -15q0 -8 -2 -12q-4 -2 -10 -8q-4 -2 -21 -2h-33zM281 106h16v109l37 -109h16l37 107v-107h16v127h-20l-33 -88q-3 -15 -8 -20q0 6 -6 18l-31 90h-24v-127z M305 590h27l18 -58l19 58h26l-33 -92v-70h-22v70zM342 1067l254 27l106 233l103 -231l254 -29l-187 -170l50 -254l-220 129l-225 -129l53 248zM344 4v-10h14v10h-14zM344 4v-10h14v10h-14zM344 4v-10h14v10h-14zM377 -6h33h12l4 2q3 2 4 4q5 0 8 8l1 3q1 3 1 7q0 5 -4 13 q-6 6 -12 8q5 0 8 8q4 2 4 8q0 9 -4 13q-3 6 -10 8q-1 0 -5.5 2t-6.5 2h-33v-86zM377 -6h33h12l4 2q3 2 4 4q5 0 8 8l1 3q1 3 1 7q0 5 -4 13q-6 6 -12 8q5 0 8 8q4 2 4 8q0 9 -4 13q-3 6 -10 8q-1 0 -5.5 2t-6.5 2h-33v-86zM377 -6h33h12l4 2q3 2 4 4q5 0 8 8l1 3q1 3 1 7 q0 5 -4 13q-6 6 -12 8q5 0 8 8q4 2 4 8q0 9 -4 13q-3 6 -10 8q-1 0 -5.5 2t-6.5 2h-33v-86zM383 303q0 -8 4 -24q5 -6 19 -17q16 -4 30 -4q11 0 27 4q1 2 6.5 7t7.5 10q6 9 6 18q0 12 -6 18q-1 3 -3 5t-5.5 5t-5.5 5q-12 0 -31 8q-20 3 -22 8q-7 2 -7 10q0 10 7 13q5 8 22 8 q15 0 23 -8q6 -3 10 -19l16 4q0 7 -8 19q-4 8 -16 14q-8 4 -25 4q-18 0 -22 -4q-14 -4 -17 -12q-6 -6 -6 -19q0 -10 2 -16q3 -5 14 -12q10 -7 27 -9q4 -2 9 -3t8 -1.5t4 -1.5q9 -3 14 -8q2 -2 2 -10q0 -1 -1 -5t-1 -5q-3 -5 -14 -9q-2 -2 -15 -2q-5 0 -20 5q-5 0 -13 8 q-1 2 -3.5 7.5t-2.5 8.5h-14zM387 2v29h19h14q4 0 4 -4q4 -4 4 -9v-8q-4 -2 -6 -6h-6q-2 -2 -6 -2h-23zM387 2v29h19h14q4 0 4 -4q4 -4 4 -9v-8q-4 -2 -6 -6h-6q-2 -2 -6 -2h-23zM387 2v29h19h14q4 0 4 -4q4 -4 4 -9v-8q-4 -2 -6 -6h-6q-2 -2 -6 -2h-23zM387 41v27h16 q11 0 13 -2l6 -3q2 -2 2 -8t-2 -8q0 -2 -6 -2q-2 -4 -10 -4h-19zM387 41v27h16q11 0 13 -2l6 -3q2 -2 2 -8t-2 -8q0 -2 -6 -2q-2 -4 -10 -4h-19zM387 41v27h16q11 0 13 -2l6 -3q2 -2 2 -8t-2 -8q0 -2 -6 -2q-2 -4 -10 -4h-19zM430 428l27 162h35l26 -162l-14 -8l-12 8l-7 37 h-22l-8 -37l-15 -8zM432 106h17v54h32q29 0 39 10q10 13 10 27q0 6 -4 18q-7 11 -10 12q-6 6 -16 6h-19h-49v-127zM449 172v49h32q13 0 15 -4q6 0 14 -8q2 -2 2 -12q0 -14 -8 -17q-3 -8 -21 -8h-34zM457 -6h10v86h-10v-86zM457 -6h10v86h-10v-86zM457 -6h10v86h-10v-86z M465 489h18l-10 64zM489 -6h50v8h-39v78h-11v-86zM489 -6h50v8h-39v78h-11v-86zM489 -6h50v8h-39v78h-11v-86zM502 324q0 -20 8 -31q2 -14 20 -25q13 -10 33 -10q17 0 33 8q10 7 20 23q9 18 9 35q0 19 -9 34q-12 20 -20 25q-24 8 -33 8q-27 0 -45 -18q-16 -19 -16 -49z M518 324q0 29 12 41q18 12 33 12q14 0 25 -8q6 -3 12 -15q6 -8 6 -30q0 -24 -10 -37q-13 -13 -33 -13t-33 13q-12 12 -12 37zM530 580l9 10h36q41 0 41 -37v-25q0 -15 -16 -28l18 -72h-26l-12 61h-17v-61h-24v141zM553 -6h53v8h-41v78h-12v-86zM553 -6h53v8h-41v78h-12v-86z M553 -6h53v8h-41v78h-12v-86zM553 106h80v13h-64v114h-16v-127zM563 516h12q9 0 12 2.5t3 9.5v25q0 14 -15 14h-12v-51zM602 80l33 -51v-35h10v35l35 51h-12l-17 -27q-3 -3 -6 -8t-4 -6q-4 2 -8 14l-17 27h-14zM602 80l33 -51v-35h10v35l35 51h-12l-17 -27q-3 -3 -6 -8 t-4 -6q-4 2 -8 14l-17 27h-14zM602 80l33 -51v-35h10v35l35 51h-12l-17 -27q-3 -3 -6 -8t-4 -6q-4 2 -8 14l-17 27h-14zM602 786l31 -18l26 18l13 80h53l14 -80l29 -18l27 18l-60 353h-71zM637 465v88q0 41 39 41t39 -41v-18h-27v20q0 14 -12 14q-14 0 -14 -14v-90 q0 -12 14 -12q12 0 12 12v33h-12l-8 10l8 12h39v-55q0 -39 -39 -39t-39 39zM645 260h17v100l69 -100h17v127h-17v-98l-67 98h-19v-127zM653 106h97v13h-80v45h71v16h-71v41h78v12h-95v-127zM672 -6h10l12 24h35l10 -24h13l-35 86h-12zM672 -6h10l12 24h35l10 -24h13l-35 86 h-12zM672 -6h10l12 24h35l10 -24h13l-35 86h-12zM680 918l18 139l23 -139h-41zM696 29l9 24q4 8 4 15q2 -2 4 -8t2 -7l10 -24h-29zM696 29l9 24q4 8 4 15q2 -2 4 -8t2 -7l10 -24h-29zM696 29l9 24q4 8 4 15q2 -2 4 -8t2 -7l10 -24h-29zM729 580l6 10h70v-23h-45v-47h35v-22 h-35v-45h45v-25h-70v139zM760 -6h10v37h14h4l7 -2l3 -2q3 -2 3 -4q1 -1 3.5 -6t4.5 -7l12 -16h15l-17 20q-6 9 -8 15q-1 0 -1.5 0.5t-2 1t-4.5 0.5q3 2 7.5 3.5t7 2.5t3.5 2q6 6 6 16q0 9 -4 13q-3 5 -8 8q-2 0 -8 2t-10 2h-37v-86zM760 -6h10v37h14h4l7 -2l3 -2q3 -2 3 -4 q1 -1 3.5 -6t4.5 -7l12 -16h15l-17 20q-6 9 -8 15q-1 0 -1.5 0.5t-2 1t-4.5 0.5q3 2 7.5 3.5t7 2.5t3.5 2q6 6 6 16q0 9 -4 13q-3 5 -8 8q-2 0 -8 2t-10 2h-37v-86zM760 -6h10v37h14h4l7 -2l3 -2q3 -2 3 -4q1 -1 3.5 -6t4.5 -7l12 -16h15l-17 20q-6 9 -8 15q-1 0 -1.5 0.5 t-2 1t-4.5 0.5q3 2 7.5 3.5t7 2.5t3.5 2q6 6 6 16q0 9 -4 13q-3 5 -8 8q-2 0 -8 2t-10 2h-37v-86zM762 221h43v-115h18v115h43v12h-104v-12zM762 260h16l17 41h53l14 -41h21l-54 127h-18zM770 39v29h27q12 0 14 -2q4 -4 4 -11q0 -6 -2 -8q0 -6 -4 -6q-2 0 -6.5 -1t-7.5 -1 h-25zM770 39v29h27q12 0 14 -2q4 -4 4 -11q0 -6 -2 -8q0 -6 -4 -6q-2 0 -6.5 -1t-7.5 -1h-25zM770 39v29h27q12 0 14 -2q4 -4 4 -11q0 -6 -2 -8q0 -6 -4 -6q-2 0 -6.5 -1t-7.5 -1h-25zM797 313l16 37q6 24 6 25q8 -23 10 -27l13 -35h-45zM823 428v162l13 10l12 -10v-137h43 v-25h-68zM842 35q0 -4 1 -7.5t2.5 -8l2.5 -7.5q1 -5 16 -16q8 -4 21 -4q3 0 9.5 1t8.5 1q10 4 17 10v33h-35v-10h24v-17q-1 -1 -4.5 -2.5t-5.5 -3.5q-6 -2 -14 -2q-11 0 -17 2q-2 2 -10 14q-4 4 -4 19q0 2 1 7.5t1 8.5q6 6 6 8q6 5 10 7h13h10q8 -3 8 -7q6 -6 6 -8l11 2 q-2 6 -9 13q-3 6 -10 8q-6 4 -16 4q-5 0 -23 -6q-11 -4 -14 -17q0 -1 -3 -8.5t-3 -13.5zM842 35q0 -4 1 -7.5t2.5 -8l2.5 -7.5q1 -5 16 -16q8 -4 21 -4q3 0 9.5 1t8.5 1q10 4 17 10v33h-35v-10h24v-17q-1 -1 -4.5 -2.5t-5.5 -3.5q-6 -2 -14 -2q-11 0 -17 2q-2 2 -10 14 q-4 4 -4 19q0 2 1 7.5t1 8.5q6 6 6 8q6 5 10 7h13h10q8 -3 8 -7q6 -6 6 -8l11 2q-2 6 -9 13q-3 6 -10 8q-6 4 -16 4q-5 0 -23 -6q-11 -4 -14 -17q0 -1 -3 -8.5t-3 -13.5zM842 35q0 -4 1 -7.5t2.5 -8l2.5 -7.5q1 -5 16 -16q8 -4 21 -4q3 0 9.5 1t8.5 1q10 4 17 10v33h-35v-10 h24v-17q-1 -1 -4.5 -2.5t-5.5 -3.5q-6 -2 -14 -2q-11 0 -17 2q-2 2 -10 14q-4 4 -4 19q0 2 1 7.5t1 8.5q6 6 6 8q6 5 10 7h13h10q8 -3 8 -7q6 -6 6 -8l11 2q-2 6 -9 13q-3 6 -10 8q-6 4 -16 4q-5 0 -23 -6q-11 -4 -14 -17q0 -1 -3 -8.5t-3 -13.5zM885 106h96v13h-80v45h72 v16h-72v41h78v12h-94v-127zM893 260h82v16h-64v111h-18v-127zM915 580l7 10h69v-23h-43v-47h33v-22h-33v-70h-26v139zM938 -6h61v8h-51v29h47v10h-47v27h51v12h-61v-86zM938 -6h61v8h-51v29h47v10h-47v27h51v12h-61v-86zM938 -6h61v8h-51v29h47v10h-47v27h51v12h-61v-86z M1010 465v90q0 39 39 39q38 0 38 -39v-90q0 -37 -38 -37q-39 0 -39 37zM1016 -6h53v8h-43v78h-10v-86zM1016 -6h53v8h-43v78h-10v-86zM1016 -6h53v8h-43v78h-10v-86zM1034 465q0 -12 15 -12q12 0 12 12v90q0 14 -12 14q-15 0 -15 -14v-90zM1040 315q0 -26 2 -30 q13 -18 19 -19q8 -8 29 -8q19 0 30 8q12 6 15 19q4 8 4 30v72h-17v-72q0 -26 -8 -34q-10 -7 -27 -7q-3 0 -18 5q-6 2 -10 10q-4 6 -4 26v72h-15v-72zM1051 145q0 -12 4 -20q10 -14 20 -16q21 -7 29 -7q6 0 15.5 3.5t10.5 3.5q10 5 17 12q4 6 4 20q0 13 -4 19q-10 10 -17 12 q-20 7 -28 8q-6 2 -12 4.5t-9 3.5t-4 2q-6 4 -6 11q0 8 6 14q4 6 25 6q14 0 20 -6q7 -2 11 -18l16 2q0 13 -8 18q-2 6 -17 14q-10 5 -22 5q-19 0 -25 -3q-3 -2 -7 -4.5t-6 -4t-3 -3.5q-8 -8 -8 -20t6 -15q3 -10 12 -14q2 -1 11 -3.5t16 -4.5q20 -4 22 -4q2 -2 7 -4.5t6 -3.5 q2 -4 2 -11q0 -8 -2 -12q-4 -8 -11 -8q-6 -2 -18 -2q-15 0 -19 2q-9 5 -14 12q-4 4 -4 14zM1081 4v-10h15v10h-15zM1081 4v-10h15v10h-15zM1081 4v-10h15v10h-15zM1102 580l6 10h31l30 -109v109h25v-162h-27l-34 104v-104h-25v141zM1112 37q0 -9 4 -25q1 -1 5 -6.5t9 -9.5 q8 -4 21 -4q15 0 23 8q9 4 12 20l-10 3q-2 -8 -9 -15q-6 -6 -16 -6t-16 2l-7 14q-6 6 -6 19q0 2 1 7.5t1 8.5q1 1 5 6.5t6 6.5q4 2 16 2q10 0 14 -2q9 -4 9 -13l12 2q0 2 -12 19q-18 6 -23 6q-4 0 -7 -1t-7 -2.5t-7 -2.5q-2 0 -14 -13q-4 -16 -4 -24zM1112 37q0 -9 4 -25 q1 -1 5 -6.5t9 -9.5q8 -4 21 -4q15 0 23 8q9 4 12 20l-10 3q-2 -8 -9 -15q-6 -6 -16 -6t-16 2l-7 14q-6 6 -6 19q0 2 1 7.5t1 8.5q1 1 5 6.5t6 6.5q4 2 16 2q10 0 14 -2q9 -4 9 -13l12 2q0 2 -12 19q-18 6 -23 6q-4 0 -7 -1t-7 -2.5t-7 -2.5q-2 0 -14 -13q-4 -16 -4 -24z M1112 37q0 -9 4 -25q1 -1 5 -6.5t9 -9.5q8 -4 21 -4q15 0 23 8q9 4 12 20l-10 3q-2 -8 -9 -15q-6 -6 -16 -6t-16 2l-7 14q-6 6 -6 19q0 2 1 7.5t1 8.5q1 1 5 6.5t6 6.5q4 2 16 2q10 0 14 -2q9 -4 9 -13l12 2q0 2 -12 19q-18 6 -23 6q-4 0 -7 -1t-7 -2.5t-7 -2.5 q-2 0 -14 -13q-4 -16 -4 -24zM1161 303q0 -8 8 -24q2 -5 9.5 -10t9.5 -7q16 -4 31 -4q10 0 22 4q14 11 16 17q7 7 7 18q0 13 -7 18q-1 4 -16 15q-8 0 -29 8q-19 3 -24 8q-4 4 -4 10q0 10 8 13q3 8 20 8q18 0 23 -8q1 0 10 -19l17 4q0 3 -1.5 6t-3 7t-2.5 6q-6 8 -18 14 q-6 4 -25 4q-16 0 -24 -4q-11 -4 -14 -12q-7 -11 -7 -19q0 -9 7 -16q2 -7 12 -12q2 -5 24 -9q6 -2 14.5 -3.5t10.5 -2.5t5 -4t5 -4q2 -2 2 -10t-2 -10q-8 -8 -10 -9q-6 -2 -21 -2q-3 0 -18 5q-4 0 -12 8q0 1 -3 7t-3 9h-17zM1176 106h96v13h-78v45h72v16h-72v41h74v12h-92 v-127zM1196 35q0 -4 1 -7.5t2.5 -8l2.5 -7.5q1 -2 5.5 -7.5t6.5 -8.5q16 -4 23 -4q12 0 20 4q10 7 15 16q4 6 4 25q0 16 -2 20q-12 16 -17 17q-12 6 -20 6q-20 0 -29 -12q-12 -9 -12 -33zM1196 35q0 -4 1 -7.5t2.5 -8l2.5 -7.5q1 -2 5.5 -7.5t6.5 -8.5q16 -4 23 -4 q12 0 20 4q10 7 15 16q4 6 4 25q0 16 -2 20q-12 16 -17 17q-12 6 -20 6q-20 0 -29 -12q-12 -9 -12 -33zM1196 35q0 -4 1 -7.5t2.5 -8l2.5 -7.5q1 -2 5.5 -7.5t6.5 -8.5q16 -4 23 -4q12 0 20 4q10 7 15 16q4 6 4 25q0 16 -2 20q-12 16 -17 17q-12 6 -20 6q-20 0 -29 -12 q-12 -9 -12 -33zM1208 35q0 18 11 26q7 7 18 7q10 0 16 -2q6 -3 11 -13q2 -6 2 -16q0 -21 -9 -27q-5 -8 -20 -8t-23 8q-6 6 -6 25zM1208 35q0 18 11 26q7 7 18 7q10 0 16 -2q6 -3 11 -13q2 -6 2 -16q0 -21 -9 -27q-5 -8 -20 -8t-23 8q-6 6 -6 25zM1208 35q0 18 11 26 q7 7 18 7q10 0 16 -2q6 -3 11 -13q2 -6 2 -16q0 -21 -9 -27q-5 -8 -20 -8t-23 8q-6 6 -6 25zM1212 567v23h78v-23h-26v-139l-11 -8l-14 8v139h-27zM1288 221h41v-115h17v115h43v12h-101v-12zM1288 260h94v16h-75v43h67v15h-67v41h73v12h-92v-127zM1292 -6h11v72l24 -72h10 l25 69v-69h10v86h-16l-19 -62q-4 -12 -4 -14q0 2 -2 6.5t-2 7.5l-20 62h-17v-86zM1292 -6h11v72l24 -72h10l25 69v-69h10v86h-16l-19 -62q-4 -12 -4 -14q0 2 -2 6.5t-2 7.5l-20 62h-17v-86zM1292 -6h11v72l24 -72h10l25 69v-69h10v86h-16l-19 -62q-4 -12 -4 -14q0 2 -2 6.5 t-2 7.5l-20 62h-17v-86zM1309 473l8 8l12 -6q3 -15 7 -20.5t12 -5.5q16 0 16 18q0 12 -21 33q-18 18 -26 28q-8 16 -8 25q0 41 39 41q38 0 38 -39l-22 -4q-3 20 -16 20t-13 -18q0 -17 33 -43q21 -21 21 -39q0 -24 -9 -33.5t-32 -9.5q-39 0 -39 45z" />
<glyph unicode="3" horiz-adv-x="1394" d="M4 170q0 -22 8 -35q2 -11 19 -24q18 -9 35 -9q18 0 34 13q16 12 19 30l-17 7q-2 -10 -12 -25q-10 -10 -27 -10q-11 0 -22 8q-9 4 -12 18q-6 8 -6 27t2 27q5 10 16 18q8 8 25 8q15 0 20 -8q6 -2 14 -18l17 2q-6 21 -21 26q-8 11 -30 11q-18 0 -33 -9q-15 -7 -21 -20 q-8 -13 -8 -37zM6 80l25 -86h10l18 63q0 7 4 11q0 -2 3 -11l16 -63h10l25 86h-13l-12 -57q-4 -16 -6 -19q0 7 -4 31l-14 45h-13l-16 -60q0 -6 -2 -16q-2 3 -6 19l-11 57h-14zM6 80l25 -86h10l18 63q0 7 4 11q0 -2 3 -11l16 -63h10l25 86h-13l-12 -57q-4 -16 -6 -19 q0 7 -4 31l-14 45h-13l-16 -60q0 -6 -2 -16q-2 3 -6 19l-11 57h-14zM6 80l25 -86h10l18 63q0 7 4 11q0 -2 3 -11l16 -63h10l25 86h-13l-12 -57q-4 -16 -6 -19q0 7 -4 31l-14 45h-13l-16 -60q0 -6 -2 -16q-2 3 -6 19l-11 57h-14zM10 578l6 12h39q41 0 41 -45q0 -25 -18 -31 q22 -9 22 -39q0 -47 -37 -47h-47v139zM16 260h21v53h31q30 0 36 11q13 13 13 30q0 11 -4 15q-1 4 -11 14q-12 4 -16 4h-18h-52v-127zM37 330v45h31q14 0 16 -2q4 0 10 -6q0 -1 3 -7t3 -10q0 -8 -8 -16q-6 -4 -24 -4h-31zM43 453h12q19 0 19 22q0 27 -19 27h-12v-49zM43 524 h12q15 0 15 21q0 22 -15 22h-12v-43zM119 80l24 -86h11l18 63q0 7 2 11q0 -5 2 -11l17 -63h10l24 86h-10l-14 -57q-1 -4 -2 -10t-2 -9q0 13 -6 31l-13 45h-14l-16 -60q0 -1 -3 -16q-1 3 -2 9t-2 10l-12 57h-12zM119 80l24 -86h11l18 63q0 7 2 11q0 -5 2 -11l17 -63h10l24 86 h-10l-14 -57q-1 -4 -2 -10t-2 -9q0 13 -6 31l-13 45h-14l-16 -60q0 -1 -3 -16q-1 3 -2 9t-2 10l-12 57h-12zM119 80l24 -86h11l18 63q0 7 2 11q0 -5 2 -11l17 -63h10l24 86h-10l-14 -57q-1 -4 -2 -10t-2 -9q0 13 -6 31l-13 45h-14l-16 -60q0 -1 -3 -16q-1 3 -2 9t-2 10 l-12 57h-12zM121 428v162h24v-162l-14 -8zM135 168q0 -20 8 -33q6 -15 21 -24q23 -9 33 -9q12 0 30 9q17 10 25 24q8 20 8 35t-8 35q-9 15 -23 22q-15 9 -32 9q-29 0 -43 -19q-19 -14 -19 -49zM137 260h96v16h-77v43h69v15h-69v41h73v12h-92v-127zM154 168q0 31 12 41 q14 14 31 14t22 -8q13 -3 17 -18q6 -24 6 -27q0 -22 -15 -37q-11 -16 -30 -16q-18 0 -33 12q-10 15 -10 39zM170 428v162l10 10l13 -10v-137h43v-25h-66zM229 80l23 -86h12l19 63q0 7 4 11q0 -5 2 -11l16 -63h10l25 86h-10l-15 -57q-4 -16 -6 -19q0 7 -4 31l-14 45h-12 l-17 -60l-1 -5q-1 -5 -1 -11q-2 3 -6 19l-12 57h-13zM229 80l23 -86h12l19 63q0 7 4 11q0 -5 2 -11l16 -63h10l25 86h-10l-15 -57q-4 -16 -6 -19q0 7 -4 31l-14 45h-12l-17 -60l-1 -5q-1 -5 -1 -11q-2 3 -6 19l-12 57h-13zM229 80l23 -86h12l19 63q0 7 4 11q0 -5 2 -11 l16 -63h10l25 86h-10l-15 -57q-4 -16 -6 -19q0 7 -4 31l-14 45h-12l-17 -60l-1 -5q-1 -5 -1 -11q-2 3 -6 19l-12 57h-13zM252 428v162l10 10l14 -10v-137h41v-25h-65zM256 260h20v59h19q8 0 10 -4q4 0 8 -2q1 0 4 -3.5t5 -4.5l4 -7q5 -6 6 -11l18 -27h21l-23 35q-4 8 -14 18 q-1 1 -4 2.5t-6 3.5q18 3 28 13q8 8 8 22q0 5 -4 21q-5 7 -14 10q-8 2 -27 2h-59v-127zM276 332v43h39q15 0 21 -6t6 -15q0 -8 -2 -12q-4 -2 -10 -8q-4 -2 -21 -2h-33zM281 106h16v109l37 -109h16l37 107v-107h16v127h-20l-33 -88q-3 -15 -8 -20q0 6 -6 18l-31 90h-24v-127z M305 590h27l18 -58l19 58h26l-33 -92v-70h-22v70zM342 1067l254 27l106 233l103 -231l254 -29l-187 -170l50 -254l-220 129l-225 -129l53 248zM344 4v-10h14v10h-14zM344 4v-10h14v10h-14zM344 4v-10h14v10h-14zM377 -6h33h12l4 2q3 2 4 4q5 0 8 8l1 3q1 3 1 7q0 5 -4 13 q-6 6 -12 8q5 0 8 8q4 2 4 8q0 9 -4 13q-3 6 -10 8q-1 0 -5.5 2t-6.5 2h-33v-86zM377 -6h33h12l4 2q3 2 4 4q5 0 8 8l1 3q1 3 1 7q0 5 -4 13q-6 6 -12 8q5 0 8 8q4 2 4 8q0 9 -4 13q-3 6 -10 8q-1 0 -5.5 2t-6.5 2h-33v-86zM377 -6h33h12l4 2q3 2 4 4q5 0 8 8l1 3q1 3 1 7 q0 5 -4 13q-6 6 -12 8q5 0 8 8q4 2 4 8q0 9 -4 13q-3 6 -10 8q-1 0 -5.5 2t-6.5 2h-33v-86zM383 303q0 -8 4 -24q5 -6 19 -17q16 -4 30 -4q11 0 27 4q1 2 6.5 7t7.5 10q6 9 6 18q0 12 -6 18q-1 3 -3 5t-5.5 5t-5.5 5q-12 0 -31 8q-20 3 -22 8q-7 2 -7 10q0 10 7 13q5 8 22 8 q15 0 23 -8q6 -3 10 -19l16 4q0 7 -8 19q-4 8 -16 14q-8 4 -25 4q-18 0 -22 -4q-14 -4 -17 -12q-6 -6 -6 -19q0 -10 2 -16q3 -5 14 -12q10 -7 27 -9q4 -2 9 -3t8 -1.5t4 -1.5q9 -3 14 -8q2 -2 2 -10q0 -1 -1 -5t-1 -5q-3 -5 -14 -9q-2 -2 -15 -2q-5 0 -20 5q-5 0 -13 8 q-1 2 -3.5 7.5t-2.5 8.5h-14zM387 2v29h19h14q4 0 4 -4q4 -4 4 -9v-8q-4 -2 -6 -6h-6q-2 -2 -6 -2h-23zM387 2v29h19h14q4 0 4 -4q4 -4 4 -9v-8q-4 -2 -6 -6h-6q-2 -2 -6 -2h-23zM387 2v29h19h14q4 0 4 -4q4 -4 4 -9v-8q-4 -2 -6 -6h-6q-2 -2 -6 -2h-23zM387 41v27h16 q11 0 13 -2l6 -3q2 -2 2 -8t-2 -8q0 -2 -6 -2q-2 -4 -10 -4h-19zM387 41v27h16q11 0 13 -2l6 -3q2 -2 2 -8t-2 -8q0 -2 -6 -2q-2 -4 -10 -4h-19zM387 41v27h16q11 0 13 -2l6 -3q2 -2 2 -8t-2 -8q0 -2 -6 -2q-2 -4 -10 -4h-19zM430 428l27 162h35l26 -162l-14 -8l-12 8l-7 37 h-22l-8 -37l-15 -8zM432 106h17v54h32q29 0 39 10q10 13 10 27q0 6 -4 18q-7 11 -10 12q-6 6 -16 6h-19h-49v-127zM449 172v49h32q13 0 15 -4q6 0 14 -8q2 -2 2 -12q0 -14 -8 -17q-3 -8 -21 -8h-34zM457 -6h10v86h-10v-86zM457 -6h10v86h-10v-86zM457 -6h10v86h-10v-86z M465 489h18l-10 64zM489 -6h50v8h-39v78h-11v-86zM489 -6h50v8h-39v78h-11v-86zM489 -6h50v8h-39v78h-11v-86zM502 324q0 -20 8 -31q2 -14 20 -25q13 -10 33 -10q17 0 33 8q10 7 20 23q9 18 9 35q0 19 -9 34q-12 20 -20 25q-24 8 -33 8q-27 0 -45 -18q-16 -19 -16 -49z M518 324q0 29 12 41q18 12 33 12q14 0 25 -8q6 -3 12 -15q6 -8 6 -30q0 -24 -10 -37q-13 -13 -33 -13t-33 13q-12 12 -12 37zM530 580l9 10h36q41 0 41 -37v-25q0 -15 -16 -28l18 -72h-26l-12 61h-17v-61h-24v141zM553 -6h53v8h-41v78h-12v-86zM553 -6h53v8h-41v78h-12v-86z M553 -6h53v8h-41v78h-12v-86zM553 106h80v13h-64v114h-16v-127zM563 516h12q9 0 12 2.5t3 9.5v25q0 14 -15 14h-12v-51zM602 80l33 -51v-35h10v35l35 51h-12l-17 -27q-3 -3 -6 -8t-4 -6q-4 2 -8 14l-17 27h-14zM602 80l33 -51v-35h10v35l35 51h-12l-17 -27q-3 -3 -6 -8 t-4 -6q-4 2 -8 14l-17 27h-14zM602 80l33 -51v-35h10v35l35 51h-12l-17 -27q-3 -3 -6 -8t-4 -6q-4 2 -8 14l-17 27h-14zM602 786l31 -18l26 18l13 80h53l14 -80l29 -18l27 18l-60 353h-71zM637 465v88q0 41 39 41t39 -41v-18h-27v20q0 14 -12 14q-14 0 -14 -14v-90 q0 -12 14 -12q12 0 12 12v33h-12l-8 10l8 12h39v-55q0 -39 -39 -39t-39 39zM645 260h17v100l69 -100h17v127h-17v-98l-67 98h-19v-127zM653 106h97v13h-80v45h71v16h-71v41h78v12h-95v-127zM672 -6h10l12 24h35l10 -24h13l-35 86h-12zM672 -6h10l12 24h35l10 -24h13l-35 86 h-12zM672 -6h10l12 24h35l10 -24h13l-35 86h-12zM680 918l18 139l23 -139h-41zM696 29l9 24q4 8 4 15q2 -2 4 -8t2 -7l10 -24h-29zM696 29l9 24q4 8 4 15q2 -2 4 -8t2 -7l10 -24h-29zM696 29l9 24q4 8 4 15q2 -2 4 -8t2 -7l10 -24h-29zM729 580l6 10h70v-23h-45v-47h35v-22 h-35v-45h45v-25h-70v139zM760 -6h10v37h14h4l7 -2l3 -2q3 -2 3 -4q1 -1 3.5 -6t4.5 -7l12 -16h15l-17 20q-6 9 -8 15q-1 0 -1.5 0.5t-2 1t-4.5 0.5q3 2 7.5 3.5t7 2.5t3.5 2q6 6 6 16q0 9 -4 13q-3 5 -8 8q-2 0 -8 2t-10 2h-37v-86zM760 -6h10v37h14h4l7 -2l3 -2q3 -2 3 -4 q1 -1 3.5 -6t4.5 -7l12 -16h15l-17 20q-6 9 -8 15q-1 0 -1.5 0.5t-2 1t-4.5 0.5q3 2 7.5 3.5t7 2.5t3.5 2q6 6 6 16q0 9 -4 13q-3 5 -8 8q-2 0 -8 2t-10 2h-37v-86zM760 -6h10v37h14h4l7 -2l3 -2q3 -2 3 -4q1 -1 3.5 -6t4.5 -7l12 -16h15l-17 20q-6 9 -8 15q-1 0 -1.5 0.5 t-2 1t-4.5 0.5q3 2 7.5 3.5t7 2.5t3.5 2q6 6 6 16q0 9 -4 13q-3 5 -8 8q-2 0 -8 2t-10 2h-37v-86zM762 221h43v-115h18v115h43v12h-104v-12zM762 260h16l17 41h53l14 -41h21l-54 127h-18zM770 39v29h27q12 0 14 -2q4 -4 4 -11q0 -6 -2 -8q0 -6 -4 -6q-2 0 -6.5 -1t-7.5 -1 h-25zM770 39v29h27q12 0 14 -2q4 -4 4 -11q0 -6 -2 -8q0 -6 -4 -6q-2 0 -6.5 -1t-7.5 -1h-25zM770 39v29h27q12 0 14 -2q4 -4 4 -11q0 -6 -2 -8q0 -6 -4 -6q-2 0 -6.5 -1t-7.5 -1h-25zM797 313l16 37q6 24 6 25q8 -23 10 -27l13 -35h-45zM823 428v162l13 10l12 -10v-137h43 v-25h-68zM842 35q0 -4 1 -7.5t2.5 -8l2.5 -7.5q1 -5 16 -16q8 -4 21 -4q3 0 9.5 1t8.5 1q10 4 17 10v33h-35v-10h24v-17q-1 -1 -4.5 -2.5t-5.5 -3.5q-6 -2 -14 -2q-11 0 -17 2q-2 2 -10 14q-4 4 -4 19q0 2 1 7.5t1 8.5q6 6 6 8q6 5 10 7h13h10q8 -3 8 -7q6 -6 6 -8l11 2 q-2 6 -9 13q-3 6 -10 8q-6 4 -16 4q-5 0 -23 -6q-11 -4 -14 -17q0 -1 -3 -8.5t-3 -13.5zM842 35q0 -4 1 -7.5t2.5 -8l2.5 -7.5q1 -5 16 -16q8 -4 21 -4q3 0 9.5 1t8.5 1q10 4 17 10v33h-35v-10h24v-17q-1 -1 -4.5 -2.5t-5.5 -3.5q-6 -2 -14 -2q-11 0 -17 2q-2 2 -10 14 q-4 4 -4 19q0 2 1 7.5t1 8.5q6 6 6 8q6 5 10 7h13h10q8 -3 8 -7q6 -6 6 -8l11 2q-2 6 -9 13q-3 6 -10 8q-6 4 -16 4q-5 0 -23 -6q-11 -4 -14 -17q0 -1 -3 -8.5t-3 -13.5zM842 35q0 -4 1 -7.5t2.5 -8l2.5 -7.5q1 -5 16 -16q8 -4 21 -4q3 0 9.5 1t8.5 1q10 4 17 10v33h-35v-10 h24v-17q-1 -1 -4.5 -2.5t-5.5 -3.5q-6 -2 -14 -2q-11 0 -17 2q-2 2 -10 14q-4 4 -4 19q0 2 1 7.5t1 8.5q6 6 6 8q6 5 10 7h13h10q8 -3 8 -7q6 -6 6 -8l11 2q-2 6 -9 13q-3 6 -10 8q-6 4 -16 4q-5 0 -23 -6q-11 -4 -14 -17q0 -1 -3 -8.5t-3 -13.5zM885 106h96v13h-80v45h72 v16h-72v41h78v12h-94v-127zM893 260h82v16h-64v111h-18v-127zM915 580l7 10h69v-23h-43v-47h33v-22h-33v-70h-26v139zM938 -6h61v8h-51v29h47v10h-47v27h51v12h-61v-86zM938 -6h61v8h-51v29h47v10h-47v27h51v12h-61v-86zM938 -6h61v8h-51v29h47v10h-47v27h51v12h-61v-86z M1010 465v90q0 39 39 39q38 0 38 -39v-90q0 -37 -38 -37q-39 0 -39 37zM1016 -6h53v8h-43v78h-10v-86zM1016 -6h53v8h-43v78h-10v-86zM1016 -6h53v8h-43v78h-10v-86zM1034 465q0 -12 15 -12q12 0 12 12v90q0 14 -12 14q-15 0 -15 -14v-90zM1040 315q0 -26 2 -30 q13 -18 19 -19q8 -8 29 -8q19 0 30 8q12 6 15 19q4 8 4 30v72h-17v-72q0 -26 -8 -34q-10 -7 -27 -7q-3 0 -18 5q-6 2 -10 10q-4 6 -4 26v72h-15v-72zM1051 145q0 -12 4 -20q10 -14 20 -16q21 -7 29 -7q6 0 15.5 3.5t10.5 3.5q10 5 17 12q4 6 4 20q0 13 -4 19q-10 10 -17 12 q-20 7 -28 8q-6 2 -12 4.5t-9 3.5t-4 2q-6 4 -6 11q0 8 6 14q4 6 25 6q14 0 20 -6q7 -2 11 -18l16 2q0 13 -8 18q-2 6 -17 14q-10 5 -22 5q-19 0 -25 -3q-3 -2 -7 -4.5t-6 -4t-3 -3.5q-8 -8 -8 -20t6 -15q3 -10 12 -14q2 -1 11 -3.5t16 -4.5q20 -4 22 -4q2 -2 7 -4.5t6 -3.5 q2 -4 2 -11q0 -8 -2 -12q-4 -8 -11 -8q-6 -2 -18 -2q-15 0 -19 2q-9 5 -14 12q-4 4 -4 14zM1081 4v-10h15v10h-15zM1081 4v-10h15v10h-15zM1081 4v-10h15v10h-15zM1102 580l6 10h31l30 -109v109h25v-162h-27l-34 104v-104h-25v141zM1112 37q0 -9 4 -25q1 -1 5 -6.5t9 -9.5 q8 -4 21 -4q15 0 23 8q9 4 12 20l-10 3q-2 -8 -9 -15q-6 -6 -16 -6t-16 2l-7 14q-6 6 -6 19q0 2 1 7.5t1 8.5q1 1 5 6.5t6 6.5q4 2 16 2q10 0 14 -2q9 -4 9 -13l12 2q0 2 -12 19q-18 6 -23 6q-4 0 -7 -1t-7 -2.5t-7 -2.5q-2 0 -14 -13q-4 -16 -4 -24zM1112 37q0 -9 4 -25 q1 -1 5 -6.5t9 -9.5q8 -4 21 -4q15 0 23 8q9 4 12 20l-10 3q-2 -8 -9 -15q-6 -6 -16 -6t-16 2l-7 14q-6 6 -6 19q0 2 1 7.5t1 8.5q1 1 5 6.5t6 6.5q4 2 16 2q10 0 14 -2q9 -4 9 -13l12 2q0 2 -12 19q-18 6 -23 6q-4 0 -7 -1t-7 -2.5t-7 -2.5q-2 0 -14 -13q-4 -16 -4 -24z M1112 37q0 -9 4 -25q1 -1 5 -6.5t9 -9.5q8 -4 21 -4q15 0 23 8q9 4 12 20l-10 3q-2 -8 -9 -15q-6 -6 -16 -6t-16 2l-7 14q-6 6 -6 19q0 2 1 7.5t1 8.5q1 1 5 6.5t6 6.5q4 2 16 2q10 0 14 -2q9 -4 9 -13l12 2q0 2 -12 19q-18 6 -23 6q-4 0 -7 -1t-7 -2.5t-7 -2.5 q-2 0 -14 -13q-4 -16 -4 -24zM1161 303q0 -8 8 -24q2 -5 9.5 -10t9.5 -7q16 -4 31 -4q10 0 22 4q14 11 16 17q7 7 7 18q0 13 -7 18q-1 4 -16 15q-8 0 -29 8q-19 3 -24 8q-4 4 -4 10q0 10 8 13q3 8 20 8q18 0 23 -8q1 0 10 -19l17 4q0 3 -1.5 6t-3 7t-2.5 6q-6 8 -18 14 q-6 4 -25 4q-16 0 -24 -4q-11 -4 -14 -12q-7 -11 -7 -19q0 -9 7 -16q2 -7 12 -12q2 -5 24 -9q6 -2 14.5 -3.5t10.5 -2.5t5 -4t5 -4q2 -2 2 -10t-2 -10q-8 -8 -10 -9q-6 -2 -21 -2q-3 0 -18 5q-4 0 -12 8q0 1 -3 7t-3 9h-17zM1176 106h96v13h-78v45h72v16h-72v41h74v12h-92 v-127zM1196 35q0 -4 1 -7.5t2.5 -8l2.5 -7.5q1 -2 5.5 -7.5t6.5 -8.5q16 -4 23 -4q12 0 20 4q10 7 15 16q4 6 4 25q0 16 -2 20q-12 16 -17 17q-12 6 -20 6q-20 0 -29 -12q-12 -9 -12 -33zM1196 35q0 -4 1 -7.5t2.5 -8l2.5 -7.5q1 -2 5.5 -7.5t6.5 -8.5q16 -4 23 -4 q12 0 20 4q10 7 15 16q4 6 4 25q0 16 -2 20q-12 16 -17 17q-12 6 -20 6q-20 0 -29 -12q-12 -9 -12 -33zM1196 35q0 -4 1 -7.5t2.5 -8l2.5 -7.5q1 -2 5.5 -7.5t6.5 -8.5q16 -4 23 -4q12 0 20 4q10 7 15 16q4 6 4 25q0 16 -2 20q-12 16 -17 17q-12 6 -20 6q-20 0 -29 -12 q-12 -9 -12 -33zM1208 35q0 18 11 26q7 7 18 7q10 0 16 -2q6 -3 11 -13q2 -6 2 -16q0 -21 -9 -27q-5 -8 -20 -8t-23 8q-6 6 -6 25zM1208 35q0 18 11 26q7 7 18 7q10 0 16 -2q6 -3 11 -13q2 -6 2 -16q0 -21 -9 -27q-5 -8 -20 -8t-23 8q-6 6 -6 25zM1208 35q0 18 11 26 q7 7 18 7q10 0 16 -2q6 -3 11 -13q2 -6 2 -16q0 -21 -9 -27q-5 -8 -20 -8t-23 8q-6 6 -6 25zM1212 567v23h78v-23h-26v-139l-11 -8l-14 8v139h-27zM1288 221h41v-115h17v115h43v12h-101v-12zM1288 260h94v16h-75v43h67v15h-67v41h73v12h-92v-127zM1292 -6h11v72l24 -72h10 l25 69v-69h10v86h-16l-19 -62q-4 -12 -4 -14q0 2 -2 6.5t-2 7.5l-20 62h-17v-86zM1292 -6h11v72l24 -72h10l25 69v-69h10v86h-16l-19 -62q-4 -12 -4 -14q0 2 -2 6.5t-2 7.5l-20 62h-17v-86zM1292 -6h11v72l24 -72h10l25 69v-69h10v86h-16l-19 -62q-4 -12 -4 -14q0 2 -2 6.5 t-2 7.5l-20 62h-17v-86zM1309 473l8 8l12 -6q3 -15 7 -20.5t12 -5.5q16 0 16 18q0 12 -21 33q-18 18 -26 28q-8 16 -8 25q0 41 39 41q38 0 38 -39l-22 -4q-3 20 -16 20t-13 -18q0 -17 33 -43q21 -21 21 -39q0 -24 -9 -33.5t-32 -9.5q-39 0 -39 45z" />
<glyph unicode="4" horiz-adv-x="1394" d="M4 170q0 -22 8 -35q2 -11 19 -24q18 -9 35 -9q18 0 34 13q16 12 19 30l-17 7q-2 -10 -12 -25q-10 -10 -27 -10q-11 0 -22 8q-9 4 -12 18q-6 8 -6 27t2 27q5 10 16 18q8 8 25 8q15 0 20 -8q6 -2 14 -18l17 2q-6 21 -21 26q-8 11 -30 11q-18 0 -33 -9q-15 -7 -21 -20 q-8 -13 -8 -37zM6 80l25 -86h10l18 63q0 7 4 11q0 -2 3 -11l16 -63h10l25 86h-13l-12 -57q-4 -16 -6 -19q0 7 -4 31l-14 45h-13l-16 -60q0 -6 -2 -16q-2 3 -6 19l-11 57h-14zM6 80l25 -86h10l18 63q0 7 4 11q0 -2 3 -11l16 -63h10l25 86h-13l-12 -57q-4 -16 -6 -19 q0 7 -4 31l-14 45h-13l-16 -60q0 -6 -2 -16q-2 3 -6 19l-11 57h-14zM6 80l25 -86h10l18 63q0 7 4 11q0 -2 3 -11l16 -63h10l25 86h-13l-12 -57q-4 -16 -6 -19q0 7 -4 31l-14 45h-13l-16 -60q0 -6 -2 -16q-2 3 -6 19l-11 57h-14zM10 578l6 12h39q41 0 41 -45q0 -25 -18 -31 q22 -9 22 -39q0 -47 -37 -47h-47v139zM16 260h21v53h31q30 0 36 11q13 13 13 30q0 11 -4 15q-1 4 -11 14q-12 4 -16 4h-18h-52v-127zM37 330v45h31q14 0 16 -2q4 0 10 -6q0 -1 3 -7t3 -10q0 -8 -8 -16q-6 -4 -24 -4h-31zM43 453h12q19 0 19 22q0 27 -19 27h-12v-49zM43 524 h12q15 0 15 21q0 22 -15 22h-12v-43zM119 80l24 -86h11l18 63q0 7 2 11q0 -5 2 -11l17 -63h10l24 86h-10l-14 -57q-1 -4 -2 -10t-2 -9q0 13 -6 31l-13 45h-14l-16 -60q0 -1 -3 -16q-1 3 -2 9t-2 10l-12 57h-12zM119 80l24 -86h11l18 63q0 7 2 11q0 -5 2 -11l17 -63h10l24 86 h-10l-14 -57q-1 -4 -2 -10t-2 -9q0 13 -6 31l-13 45h-14l-16 -60q0 -1 -3 -16q-1 3 -2 9t-2 10l-12 57h-12zM119 80l24 -86h11l18 63q0 7 2 11q0 -5 2 -11l17 -63h10l24 86h-10l-14 -57q-1 -4 -2 -10t-2 -9q0 13 -6 31l-13 45h-14l-16 -60q0 -1 -3 -16q-1 3 -2 9t-2 10 l-12 57h-12zM121 428v162h24v-162l-14 -8zM135 168q0 -20 8 -33q6 -15 21 -24q23 -9 33 -9q12 0 30 9q17 10 25 24q8 20 8 35t-8 35q-9 15 -23 22q-15 9 -32 9q-29 0 -43 -19q-19 -14 -19 -49zM137 260h96v16h-77v43h69v15h-69v41h73v12h-92v-127zM154 168q0 31 12 41 q14 14 31 14t22 -8q13 -3 17 -18q6 -24 6 -27q0 -22 -15 -37q-11 -16 -30 -16q-18 0 -33 12q-10 15 -10 39zM170 428v162l10 10l13 -10v-137h43v-25h-66zM229 80l23 -86h12l19 63q0 7 4 11q0 -5 2 -11l16 -63h10l25 86h-10l-15 -57q-4 -16 -6 -19q0 7 -4 31l-14 45h-12 l-17 -60l-1 -5q-1 -5 -1 -11q-2 3 -6 19l-12 57h-13zM229 80l23 -86h12l19 63q0 7 4 11q0 -5 2 -11l16 -63h10l25 86h-10l-15 -57q-4 -16 -6 -19q0 7 -4 31l-14 45h-12l-17 -60l-1 -5q-1 -5 -1 -11q-2 3 -6 19l-12 57h-13zM229 80l23 -86h12l19 63q0 7 4 11q0 -5 2 -11 l16 -63h10l25 86h-10l-15 -57q-4 -16 -6 -19q0 7 -4 31l-14 45h-12l-17 -60l-1 -5q-1 -5 -1 -11q-2 3 -6 19l-12 57h-13zM252 428v162l10 10l14 -10v-137h41v-25h-65zM256 260h20v59h19q8 0 10 -4q4 0 8 -2q1 0 4 -3.5t5 -4.5l4 -7q5 -6 6 -11l18 -27h21l-23 35q-4 8 -14 18 q-1 1 -4 2.5t-6 3.5q18 3 28 13q8 8 8 22q0 5 -4 21q-5 7 -14 10q-8 2 -27 2h-59v-127zM276 332v43h39q15 0 21 -6t6 -15q0 -8 -2 -12q-4 -2 -10 -8q-4 -2 -21 -2h-33zM281 106h16v109l37 -109h16l37 107v-107h16v127h-20l-33 -88q-3 -15 -8 -20q0 6 -6 18l-31 90h-24v-127z M305 590h27l18 -58l19 58h26l-33 -92v-70h-22v70zM342 1067l254 27l106 233l103 -231l254 -29l-187 -170l50 -254l-220 129l-225 -129l53 248zM344 4v-10h14v10h-14zM344 4v-10h14v10h-14zM344 4v-10h14v10h-14zM377 -6h33h12l4 2q3 2 4 4q5 0 8 8l1 3q1 3 1 7q0 5 -4 13 q-6 6 -12 8q5 0 8 8q4 2 4 8q0 9 -4 13q-3 6 -10 8q-1 0 -5.5 2t-6.5 2h-33v-86zM377 -6h33h12l4 2q3 2 4 4q5 0 8 8l1 3q1 3 1 7q0 5 -4 13q-6 6 -12 8q5 0 8 8q4 2 4 8q0 9 -4 13q-3 6 -10 8q-1 0 -5.5 2t-6.5 2h-33v-86zM377 -6h33h12l4 2q3 2 4 4q5 0 8 8l1 3q1 3 1 7 q0 5 -4 13q-6 6 -12 8q5 0 8 8q4 2 4 8q0 9 -4 13q-3 6 -10 8q-1 0 -5.5 2t-6.5 2h-33v-86zM383 303q0 -8 4 -24q5 -6 19 -17q16 -4 30 -4q11 0 27 4q1 2 6.5 7t7.5 10q6 9 6 18q0 12 -6 18q-1 3 -3 5t-5.5 5t-5.5 5q-12 0 -31 8q-20 3 -22 8q-7 2 -7 10q0 10 7 13q5 8 22 8 q15 0 23 -8q6 -3 10 -19l16 4q0 7 -8 19q-4 8 -16 14q-8 4 -25 4q-18 0 -22 -4q-14 -4 -17 -12q-6 -6 -6 -19q0 -10 2 -16q3 -5 14 -12q10 -7 27 -9q4 -2 9 -3t8 -1.5t4 -1.5q9 -3 14 -8q2 -2 2 -10q0 -1 -1 -5t-1 -5q-3 -5 -14 -9q-2 -2 -15 -2q-5 0 -20 5q-5 0 -13 8 q-1 2 -3.5 7.5t-2.5 8.5h-14zM387 2v29h19h14q4 0 4 -4q4 -4 4 -9v-8q-4 -2 -6 -6h-6q-2 -2 -6 -2h-23zM387 2v29h19h14q4 0 4 -4q4 -4 4 -9v-8q-4 -2 -6 -6h-6q-2 -2 -6 -2h-23zM387 2v29h19h14q4 0 4 -4q4 -4 4 -9v-8q-4 -2 -6 -6h-6q-2 -2 -6 -2h-23zM387 41v27h16 q11 0 13 -2l6 -3q2 -2 2 -8t-2 -8q0 -2 -6 -2q-2 -4 -10 -4h-19zM387 41v27h16q11 0 13 -2l6 -3q2 -2 2 -8t-2 -8q0 -2 -6 -2q-2 -4 -10 -4h-19zM387 41v27h16q11 0 13 -2l6 -3q2 -2 2 -8t-2 -8q0 -2 -6 -2q-2 -4 -10 -4h-19zM430 428l27 162h35l26 -162l-14 -8l-12 8l-7 37 h-22l-8 -37l-15 -8zM432 106h17v54h32q29 0 39 10q10 13 10 27q0 6 -4 18q-7 11 -10 12q-6 6 -16 6h-19h-49v-127zM449 172v49h32q13 0 15 -4q6 0 14 -8q2 -2 2 -12q0 -14 -8 -17q-3 -8 -21 -8h-34zM457 -6h10v86h-10v-86zM457 -6h10v86h-10v-86zM457 -6h10v86h-10v-86z M465 489h18l-10 64zM489 -6h50v8h-39v78h-11v-86zM489 -6h50v8h-39v78h-11v-86zM489 -6h50v8h-39v78h-11v-86zM502 324q0 -20 8 -31q2 -14 20 -25q13 -10 33 -10q17 0 33 8q10 7 20 23q9 18 9 35q0 19 -9 34q-12 20 -20 25q-24 8 -33 8q-27 0 -45 -18q-16 -19 -16 -49z M518 324q0 29 12 41q18 12 33 12q14 0 25 -8q6 -3 12 -15q6 -8 6 -30q0 -24 -10 -37q-13 -13 -33 -13t-33 13q-12 12 -12 37zM530 580l9 10h36q41 0 41 -37v-25q0 -15 -16 -28l18 -72h-26l-12 61h-17v-61h-24v141zM553 -6h53v8h-41v78h-12v-86zM553 -6h53v8h-41v78h-12v-86z M553 -6h53v8h-41v78h-12v-86zM553 106h80v13h-64v114h-16v-127zM563 516h12q9 0 12 2.5t3 9.5v25q0 14 -15 14h-12v-51zM602 80l33 -51v-35h10v35l35 51h-12l-17 -27q-3 -3 -6 -8t-4 -6q-4 2 -8 14l-17 27h-14zM602 80l33 -51v-35h10v35l35 51h-12l-17 -27q-3 -3 -6 -8 t-4 -6q-4 2 -8 14l-17 27h-14zM602 80l33 -51v-35h10v35l35 51h-12l-17 -27q-3 -3 -6 -8t-4 -6q-4 2 -8 14l-17 27h-14zM602 786l31 -18l26 18l13 80h53l14 -80l29 -18l27 18l-60 353h-71zM637 465v88q0 41 39 41t39 -41v-18h-27v20q0 14 -12 14q-14 0 -14 -14v-90 q0 -12 14 -12q12 0 12 12v33h-12l-8 10l8 12h39v-55q0 -39 -39 -39t-39 39zM645 260h17v100l69 -100h17v127h-17v-98l-67 98h-19v-127zM653 106h97v13h-80v45h71v16h-71v41h78v12h-95v-127zM672 -6h10l12 24h35l10 -24h13l-35 86h-12zM672 -6h10l12 24h35l10 -24h13l-35 86 h-12zM672 -6h10l12 24h35l10 -24h13l-35 86h-12zM680 918l18 139l23 -139h-41zM696 29l9 24q4 8 4 15q2 -2 4 -8t2 -7l10 -24h-29zM696 29l9 24q4 8 4 15q2 -2 4 -8t2 -7l10 -24h-29zM696 29l9 24q4 8 4 15q2 -2 4 -8t2 -7l10 -24h-29zM729 580l6 10h70v-23h-45v-47h35v-22 h-35v-45h45v-25h-70v139zM760 -6h10v37h14h4l7 -2l3 -2q3 -2 3 -4q1 -1 3.5 -6t4.5 -7l12 -16h15l-17 20q-6 9 -8 15q-1 0 -1.5 0.5t-2 1t-4.5 0.5q3 2 7.5 3.5t7 2.5t3.5 2q6 6 6 16q0 9 -4 13q-3 5 -8 8q-2 0 -8 2t-10 2h-37v-86zM760 -6h10v37h14h4l7 -2l3 -2q3 -2 3 -4 q1 -1 3.5 -6t4.5 -7l12 -16h15l-17 20q-6 9 -8 15q-1 0 -1.5 0.5t-2 1t-4.5 0.5q3 2 7.5 3.5t7 2.5t3.5 2q6 6 6 16q0 9 -4 13q-3 5 -8 8q-2 0 -8 2t-10 2h-37v-86zM760 -6h10v37h14h4l7 -2l3 -2q3 -2 3 -4q1 -1 3.5 -6t4.5 -7l12 -16h15l-17 20q-6 9 -8 15q-1 0 -1.5 0.5 t-2 1t-4.5 0.5q3 2 7.5 3.5t7 2.5t3.5 2q6 6 6 16q0 9 -4 13q-3 5 -8 8q-2 0 -8 2t-10 2h-37v-86zM762 221h43v-115h18v115h43v12h-104v-12zM762 260h16l17 41h53l14 -41h21l-54 127h-18zM770 39v29h27q12 0 14 -2q4 -4 4 -11q0 -6 -2 -8q0 -6 -4 -6q-2 0 -6.5 -1t-7.5 -1 h-25zM770 39v29h27q12 0 14 -2q4 -4 4 -11q0 -6 -2 -8q0 -6 -4 -6q-2 0 -6.5 -1t-7.5 -1h-25zM770 39v29h27q12 0 14 -2q4 -4 4 -11q0 -6 -2 -8q0 -6 -4 -6q-2 0 -6.5 -1t-7.5 -1h-25zM797 313l16 37q6 24 6 25q8 -23 10 -27l13 -35h-45zM823 428v162l13 10l12 -10v-137h43 v-25h-68zM842 35q0 -4 1 -7.5t2.5 -8l2.5 -7.5q1 -5 16 -16q8 -4 21 -4q3 0 9.5 1t8.5 1q10 4 17 10v33h-35v-10h24v-17q-1 -1 -4.5 -2.5t-5.5 -3.5q-6 -2 -14 -2q-11 0 -17 2q-2 2 -10 14q-4 4 -4 19q0 2 1 7.5t1 8.5q6 6 6 8q6 5 10 7h13h10q8 -3 8 -7q6 -6 6 -8l11 2 q-2 6 -9 13q-3 6 -10 8q-6 4 -16 4q-5 0 -23 -6q-11 -4 -14 -17q0 -1 -3 -8.5t-3 -13.5zM842 35q0 -4 1 -7.5t2.5 -8l2.5 -7.5q1 -5 16 -16q8 -4 21 -4q3 0 9.5 1t8.5 1q10 4 17 10v33h-35v-10h24v-17q-1 -1 -4.5 -2.5t-5.5 -3.5q-6 -2 -14 -2q-11 0 -17 2q-2 2 -10 14 q-4 4 -4 19q0 2 1 7.5t1 8.5q6 6 6 8q6 5 10 7h13h10q8 -3 8 -7q6 -6 6 -8l11 2q-2 6 -9 13q-3 6 -10 8q-6 4 -16 4q-5 0 -23 -6q-11 -4 -14 -17q0 -1 -3 -8.5t-3 -13.5zM842 35q0 -4 1 -7.5t2.5 -8l2.5 -7.5q1 -5 16 -16q8 -4 21 -4q3 0 9.5 1t8.5 1q10 4 17 10v33h-35v-10 h24v-17q-1 -1 -4.5 -2.5t-5.5 -3.5q-6 -2 -14 -2q-11 0 -17 2q-2 2 -10 14q-4 4 -4 19q0 2 1 7.5t1 8.5q6 6 6 8q6 5 10 7h13h10q8 -3 8 -7q6 -6 6 -8l11 2q-2 6 -9 13q-3 6 -10 8q-6 4 -16 4q-5 0 -23 -6q-11 -4 -14 -17q0 -1 -3 -8.5t-3 -13.5zM885 106h96v13h-80v45h72 v16h-72v41h78v12h-94v-127zM893 260h82v16h-64v111h-18v-127zM915 580l7 10h69v-23h-43v-47h33v-22h-33v-70h-26v139zM938 -6h61v8h-51v29h47v10h-47v27h51v12h-61v-86zM938 -6h61v8h-51v29h47v10h-47v27h51v12h-61v-86zM938 -6h61v8h-51v29h47v10h-47v27h51v12h-61v-86z M1010 465v90q0 39 39 39q38 0 38 -39v-90q0 -37 -38 -37q-39 0 -39 37zM1016 -6h53v8h-43v78h-10v-86zM1016 -6h53v8h-43v78h-10v-86zM1016 -6h53v8h-43v78h-10v-86zM1034 465q0 -12 15 -12q12 0 12 12v90q0 14 -12 14q-15 0 -15 -14v-90zM1040 315q0 -26 2 -30 q13 -18 19 -19q8 -8 29 -8q19 0 30 8q12 6 15 19q4 8 4 30v72h-17v-72q0 -26 -8 -34q-10 -7 -27 -7q-3 0 -18 5q-6 2 -10 10q-4 6 -4 26v72h-15v-72zM1051 145q0 -12 4 -20q10 -14 20 -16q21 -7 29 -7q6 0 15.5 3.5t10.5 3.5q10 5 17 12q4 6 4 20q0 13 -4 19q-10 10 -17 12 q-20 7 -28 8q-6 2 -12 4.5t-9 3.5t-4 2q-6 4 -6 11q0 8 6 14q4 6 25 6q14 0 20 -6q7 -2 11 -18l16 2q0 13 -8 18q-2 6 -17 14q-10 5 -22 5q-19 0 -25 -3q-3 -2 -7 -4.5t-6 -4t-3 -3.5q-8 -8 -8 -20t6 -15q3 -10 12 -14q2 -1 11 -3.5t16 -4.5q20 -4 22 -4q2 -2 7 -4.5t6 -3.5 q2 -4 2 -11q0 -8 -2 -12q-4 -8 -11 -8q-6 -2 -18 -2q-15 0 -19 2q-9 5 -14 12q-4 4 -4 14zM1081 4v-10h15v10h-15zM1081 4v-10h15v10h-15zM1081 4v-10h15v10h-15zM1102 580l6 10h31l30 -109v109h25v-162h-27l-34 104v-104h-25v141zM1112 37q0 -9 4 -25q1 -1 5 -6.5t9 -9.5 q8 -4 21 -4q15 0 23 8q9 4 12 20l-10 3q-2 -8 -9 -15q-6 -6 -16 -6t-16 2l-7 14q-6 6 -6 19q0 2 1 7.5t1 8.5q1 1 5 6.5t6 6.5q4 2 16 2q10 0 14 -2q9 -4 9 -13l12 2q0 2 -12 19q-18 6 -23 6q-4 0 -7 -1t-7 -2.5t-7 -2.5q-2 0 -14 -13q-4 -16 -4 -24zM1112 37q0 -9 4 -25 q1 -1 5 -6.5t9 -9.5q8 -4 21 -4q15 0 23 8q9 4 12 20l-10 3q-2 -8 -9 -15q-6 -6 -16 -6t-16 2l-7 14q-6 6 -6 19q0 2 1 7.5t1 8.5q1 1 5 6.5t6 6.5q4 2 16 2q10 0 14 -2q9 -4 9 -13l12 2q0 2 -12 19q-18 6 -23 6q-4 0 -7 -1t-7 -2.5t-7 -2.5q-2 0 -14 -13q-4 -16 -4 -24z M1112 37q0 -9 4 -25q1 -1 5 -6.5t9 -9.5q8 -4 21 -4q15 0 23 8q9 4 12 20l-10 3q-2 -8 -9 -15q-6 -6 -16 -6t-16 2l-7 14q-6 6 -6 19q0 2 1 7.5t1 8.5q1 1 5 6.5t6 6.5q4 2 16 2q10 0 14 -2q9 -4 9 -13l12 2q0 2 -12 19q-18 6 -23 6q-4 0 -7 -1t-7 -2.5t-7 -2.5 q-2 0 -14 -13q-4 -16 -4 -24zM1161 303q0 -8 8 -24q2 -5 9.5 -10t9.5 -7q16 -4 31 -4q10 0 22 4q14 11 16 17q7 7 7 18q0 13 -7 18q-1 4 -16 15q-8 0 -29 8q-19 3 -24 8q-4 4 -4 10q0 10 8 13q3 8 20 8q18 0 23 -8q1 0 10 -19l17 4q0 3 -1.5 6t-3 7t-2.5 6q-6 8 -18 14 q-6 4 -25 4q-16 0 -24 -4q-11 -4 -14 -12q-7 -11 -7 -19q0 -9 7 -16q2 -7 12 -12q2 -5 24 -9q6 -2 14.5 -3.5t10.5 -2.5t5 -4t5 -4q2 -2 2 -10t-2 -10q-8 -8 -10 -9q-6 -2 -21 -2q-3 0 -18 5q-4 0 -12 8q0 1 -3 7t-3 9h-17zM1176 106h96v13h-78v45h72v16h-72v41h74v12h-92 v-127zM1196 35q0 -4 1 -7.5t2.5 -8l2.5 -7.5q1 -2 5.5 -7.5t6.5 -8.5q16 -4 23 -4q12 0 20 4q10 7 15 16q4 6 4 25q0 16 -2 20q-12 16 -17 17q-12 6 -20 6q-20 0 -29 -12q-12 -9 -12 -33zM1196 35q0 -4 1 -7.5t2.5 -8l2.5 -7.5q1 -2 5.5 -7.5t6.5 -8.5q16 -4 23 -4 q12 0 20 4q10 7 15 16q4 6 4 25q0 16 -2 20q-12 16 -17 17q-12 6 -20 6q-20 0 -29 -12q-12 -9 -12 -33zM1196 35q0 -4 1 -7.5t2.5 -8l2.5 -7.5q1 -2 5.5 -7.5t6.5 -8.5q16 -4 23 -4q12 0 20 4q10 7 15 16q4 6 4 25q0 16 -2 20q-12 16 -17 17q-12 6 -20 6q-20 0 -29 -12 q-12 -9 -12 -33zM1208 35q0 18 11 26q7 7 18 7q10 0 16 -2q6 -3 11 -13q2 -6 2 -16q0 -21 -9 -27q-5 -8 -20 -8t-23 8q-6 6 -6 25zM1208 35q0 18 11 26q7 7 18 7q10 0 16 -2q6 -3 11 -13q2 -6 2 -16q0 -21 -9 -27q-5 -8 -20 -8t-23 8q-6 6 -6 25zM1208 35q0 18 11 26 q7 7 18 7q10 0 16 -2q6 -3 11 -13q2 -6 2 -16q0 -21 -9 -27q-5 -8 -20 -8t-23 8q-6 6 -6 25zM1212 567v23h78v-23h-26v-139l-11 -8l-14 8v139h-27zM1288 221h41v-115h17v115h43v12h-101v-12zM1288 260h94v16h-75v43h67v15h-67v41h73v12h-92v-127zM1292 -6h11v72l24 -72h10 l25 69v-69h10v86h-16l-19 -62q-4 -12 -4 -14q0 2 -2 6.5t-2 7.5l-20 62h-17v-86zM1292 -6h11v72l24 -72h10l25 69v-69h10v86h-16l-19 -62q-4 -12 -4 -14q0 2 -2 6.5t-2 7.5l-20 62h-17v-86zM1292 -6h11v72l24 -72h10l25 69v-69h10v86h-16l-19 -62q-4 -12 -4 -14q0 2 -2 6.5 t-2 7.5l-20 62h-17v-86zM1309 473l8 8l12 -6q3 -15 7 -20.5t12 -5.5q16 0 16 18q0 12 -21 33q-18 18 -26 28q-8 16 -8 25q0 41 39 41q38 0 38 -39l-22 -4q-3 20 -16 20t-13 -18q0 -17 33 -43q21 -21 21 -39q0 -24 -9 -33.5t-32 -9.5q-39 0 -39 45z" />
<glyph unicode="5" horiz-adv-x="1394" d="M4 170q0 -22 8 -35q2 -11 19 -24q18 -9 35 -9q18 0 34 13q16 12 19 30l-17 7q-2 -10 -12 -25q-10 -10 -27 -10q-11 0 -22 8q-9 4 -12 18q-6 8 -6 27t2 27q5 10 16 18q8 8 25 8q15 0 20 -8q6 -2 14 -18l17 2q-6 21 -21 26q-8 11 -30 11q-18 0 -33 -9q-15 -7 -21 -20 q-8 -13 -8 -37zM6 80l25 -86h10l18 63q0 7 4 11q0 -2 3 -11l16 -63h10l25 86h-13l-12 -57q-4 -16 -6 -19q0 7 -4 31l-14 45h-13l-16 -60q0 -6 -2 -16q-2 3 -6 19l-11 57h-14zM6 80l25 -86h10l18 63q0 7 4 11q0 -2 3 -11l16 -63h10l25 86h-13l-12 -57q-4 -16 -6 -19 q0 7 -4 31l-14 45h-13l-16 -60q0 -6 -2 -16q-2 3 -6 19l-11 57h-14zM6 80l25 -86h10l18 63q0 7 4 11q0 -2 3 -11l16 -63h10l25 86h-13l-12 -57q-4 -16 -6 -19q0 7 -4 31l-14 45h-13l-16 -60q0 -6 -2 -16q-2 3 -6 19l-11 57h-14zM10 578l6 12h39q41 0 41 -45q0 -25 -18 -31 q22 -9 22 -39q0 -47 -37 -47h-47v139zM16 260h21v53h31q30 0 36 11q13 13 13 30q0 11 -4 15q-1 4 -11 14q-12 4 -16 4h-18h-52v-127zM37 330v45h31q14 0 16 -2q4 0 10 -6q0 -1 3 -7t3 -10q0 -8 -8 -16q-6 -4 -24 -4h-31zM43 453h12q19 0 19 22q0 27 -19 27h-12v-49zM43 524 h12q15 0 15 21q0 22 -15 22h-12v-43zM119 80l24 -86h11l18 63q0 7 2 11q0 -5 2 -11l17 -63h10l24 86h-10l-14 -57q-1 -4 -2 -10t-2 -9q0 13 -6 31l-13 45h-14l-16 -60q0 -1 -3 -16q-1 3 -2 9t-2 10l-12 57h-12zM119 80l24 -86h11l18 63q0 7 2 11q0 -5 2 -11l17 -63h10l24 86 h-10l-14 -57q-1 -4 -2 -10t-2 -9q0 13 -6 31l-13 45h-14l-16 -60q0 -1 -3 -16q-1 3 -2 9t-2 10l-12 57h-12zM119 80l24 -86h11l18 63q0 7 2 11q0 -5 2 -11l17 -63h10l24 86h-10l-14 -57q-1 -4 -2 -10t-2 -9q0 13 -6 31l-13 45h-14l-16 -60q0 -1 -3 -16q-1 3 -2 9t-2 10 l-12 57h-12zM121 428v162h24v-162l-14 -8zM135 168q0 -20 8 -33q6 -15 21 -24q23 -9 33 -9q12 0 30 9q17 10 25 24q8 20 8 35t-8 35q-9 15 -23 22q-15 9 -32 9q-29 0 -43 -19q-19 -14 -19 -49zM137 260h96v16h-77v43h69v15h-69v41h73v12h-92v-127zM154 168q0 31 12 41 q14 14 31 14t22 -8q13 -3 17 -18q6 -24 6 -27q0 -22 -15 -37q-11 -16 -30 -16q-18 0 -33 12q-10 15 -10 39zM170 428v162l10 10l13 -10v-137h43v-25h-66zM229 80l23 -86h12l19 63q0 7 4 11q0 -5 2 -11l16 -63h10l25 86h-10l-15 -57q-4 -16 -6 -19q0 7 -4 31l-14 45h-12 l-17 -60l-1 -5q-1 -5 -1 -11q-2 3 -6 19l-12 57h-13zM229 80l23 -86h12l19 63q0 7 4 11q0 -5 2 -11l16 -63h10l25 86h-10l-15 -57q-4 -16 -6 -19q0 7 -4 31l-14 45h-12l-17 -60l-1 -5q-1 -5 -1 -11q-2 3 -6 19l-12 57h-13zM229 80l23 -86h12l19 63q0 7 4 11q0 -5 2 -11 l16 -63h10l25 86h-10l-15 -57q-4 -16 -6 -19q0 7 -4 31l-14 45h-12l-17 -60l-1 -5q-1 -5 -1 -11q-2 3 -6 19l-12 57h-13zM252 428v162l10 10l14 -10v-137h41v-25h-65zM256 260h20v59h19q8 0 10 -4q4 0 8 -2q1 0 4 -3.5t5 -4.5l4 -7q5 -6 6 -11l18 -27h21l-23 35q-4 8 -14 18 q-1 1 -4 2.5t-6 3.5q18 3 28 13q8 8 8 22q0 5 -4 21q-5 7 -14 10q-8 2 -27 2h-59v-127zM276 332v43h39q15 0 21 -6t6 -15q0 -8 -2 -12q-4 -2 -10 -8q-4 -2 -21 -2h-33zM281 106h16v109l37 -109h16l37 107v-107h16v127h-20l-33 -88q-3 -15 -8 -20q0 6 -6 18l-31 90h-24v-127z M305 590h27l18 -58l19 58h26l-33 -92v-70h-22v70zM342 1067l254 27l106 233l103 -231l254 -29l-187 -170l50 -254l-220 129l-225 -129l53 248zM344 4v-10h14v10h-14zM344 4v-10h14v10h-14zM344 4v-10h14v10h-14zM377 -6h33h12l4 2q3 2 4 4q5 0 8 8l1 3q1 3 1 7q0 5 -4 13 q-6 6 -12 8q5 0 8 8q4 2 4 8q0 9 -4 13q-3 6 -10 8q-1 0 -5.5 2t-6.5 2h-33v-86zM377 -6h33h12l4 2q3 2 4 4q5 0 8 8l1 3q1 3 1 7q0 5 -4 13q-6 6 -12 8q5 0 8 8q4 2 4 8q0 9 -4 13q-3 6 -10 8q-1 0 -5.5 2t-6.5 2h-33v-86zM377 -6h33h12l4 2q3 2 4 4q5 0 8 8l1 3q1 3 1 7 q0 5 -4 13q-6 6 -12 8q5 0 8 8q4 2 4 8q0 9 -4 13q-3 6 -10 8q-1 0 -5.5 2t-6.5 2h-33v-86zM383 303q0 -8 4 -24q5 -6 19 -17q16 -4 30 -4q11 0 27 4q1 2 6.5 7t7.5 10q6 9 6 18q0 12 -6 18q-1 3 -3 5t-5.5 5t-5.5 5q-12 0 -31 8q-20 3 -22 8q-7 2 -7 10q0 10 7 13q5 8 22 8 q15 0 23 -8q6 -3 10 -19l16 4q0 7 -8 19q-4 8 -16 14q-8 4 -25 4q-18 0 -22 -4q-14 -4 -17 -12q-6 -6 -6 -19q0 -10 2 -16q3 -5 14 -12q10 -7 27 -9q4 -2 9 -3t8 -1.5t4 -1.5q9 -3 14 -8q2 -2 2 -10q0 -1 -1 -5t-1 -5q-3 -5 -14 -9q-2 -2 -15 -2q-5 0 -20 5q-5 0 -13 8 q-1 2 -3.5 7.5t-2.5 8.5h-14zM387 2v29h19h14q4 0 4 -4q4 -4 4 -9v-8q-4 -2 -6 -6h-6q-2 -2 -6 -2h-23zM387 2v29h19h14q4 0 4 -4q4 -4 4 -9v-8q-4 -2 -6 -6h-6q-2 -2 -6 -2h-23zM387 2v29h19h14q4 0 4 -4q4 -4 4 -9v-8q-4 -2 -6 -6h-6q-2 -2 -6 -2h-23zM387 41v27h16 q11 0 13 -2l6 -3q2 -2 2 -8t-2 -8q0 -2 -6 -2q-2 -4 -10 -4h-19zM387 41v27h16q11 0 13 -2l6 -3q2 -2 2 -8t-2 -8q0 -2 -6 -2q-2 -4 -10 -4h-19zM387 41v27h16q11 0 13 -2l6 -3q2 -2 2 -8t-2 -8q0 -2 -6 -2q-2 -4 -10 -4h-19zM430 428l27 162h35l26 -162l-14 -8l-12 8l-7 37 h-22l-8 -37l-15 -8zM432 106h17v54h32q29 0 39 10q10 13 10 27q0 6 -4 18q-7 11 -10 12q-6 6 -16 6h-19h-49v-127zM449 172v49h32q13 0 15 -4q6 0 14 -8q2 -2 2 -12q0 -14 -8 -17q-3 -8 -21 -8h-34zM457 -6h10v86h-10v-86zM457 -6h10v86h-10v-86zM457 -6h10v86h-10v-86z M465 489h18l-10 64zM489 -6h50v8h-39v78h-11v-86zM489 -6h50v8h-39v78h-11v-86zM489 -6h50v8h-39v78h-11v-86zM502 324q0 -20 8 -31q2 -14 20 -25q13 -10 33 -10q17 0 33 8q10 7 20 23q9 18 9 35q0 19 -9 34q-12 20 -20 25q-24 8 -33 8q-27 0 -45 -18q-16 -19 -16 -49z M518 324q0 29 12 41q18 12 33 12q14 0 25 -8q6 -3 12 -15q6 -8 6 -30q0 -24 -10 -37q-13 -13 -33 -13t-33 13q-12 12 -12 37zM530 580l9 10h36q41 0 41 -37v-25q0 -15 -16 -28l18 -72h-26l-12 61h-17v-61h-24v141zM553 -6h53v8h-41v78h-12v-86zM553 -6h53v8h-41v78h-12v-86z M553 -6h53v8h-41v78h-12v-86zM553 106h80v13h-64v114h-16v-127zM563 516h12q9 0 12 2.5t3 9.5v25q0 14 -15 14h-12v-51zM602 80l33 -51v-35h10v35l35 51h-12l-17 -27q-3 -3 -6 -8t-4 -6q-4 2 -8 14l-17 27h-14zM602 80l33 -51v-35h10v35l35 51h-12l-17 -27q-3 -3 -6 -8 t-4 -6q-4 2 -8 14l-17 27h-14zM602 80l33 -51v-35h10v35l35 51h-12l-17 -27q-3 -3 -6 -8t-4 -6q-4 2 -8 14l-17 27h-14zM602 786l31 -18l26 18l13 80h53l14 -80l29 -18l27 18l-60 353h-71zM637 465v88q0 41 39 41t39 -41v-18h-27v20q0 14 -12 14q-14 0 -14 -14v-90 q0 -12 14 -12q12 0 12 12v33h-12l-8 10l8 12h39v-55q0 -39 -39 -39t-39 39zM645 260h17v100l69 -100h17v127h-17v-98l-67 98h-19v-127zM653 106h97v13h-80v45h71v16h-71v41h78v12h-95v-127zM672 -6h10l12 24h35l10 -24h13l-35 86h-12zM672 -6h10l12 24h35l10 -24h13l-35 86 h-12zM672 -6h10l12 24h35l10 -24h13l-35 86h-12zM680 918l18 139l23 -139h-41zM696 29l9 24q4 8 4 15q2 -2 4 -8t2 -7l10 -24h-29zM696 29l9 24q4 8 4 15q2 -2 4 -8t2 -7l10 -24h-29zM696 29l9 24q4 8 4 15q2 -2 4 -8t2 -7l10 -24h-29zM729 580l6 10h70v-23h-45v-47h35v-22 h-35v-45h45v-25h-70v139zM760 -6h10v37h14h4l7 -2l3 -2q3 -2 3 -4q1 -1 3.5 -6t4.5 -7l12 -16h15l-17 20q-6 9 -8 15q-1 0 -1.5 0.5t-2 1t-4.5 0.5q3 2 7.5 3.5t7 2.5t3.5 2q6 6 6 16q0 9 -4 13q-3 5 -8 8q-2 0 -8 2t-10 2h-37v-86zM760 -6h10v37h14h4l7 -2l3 -2q3 -2 3 -4 q1 -1 3.5 -6t4.5 -7l12 -16h15l-17 20q-6 9 -8 15q-1 0 -1.5 0.5t-2 1t-4.5 0.5q3 2 7.5 3.5t7 2.5t3.5 2q6 6 6 16q0 9 -4 13q-3 5 -8 8q-2 0 -8 2t-10 2h-37v-86zM760 -6h10v37h14h4l7 -2l3 -2q3 -2 3 -4q1 -1 3.5 -6t4.5 -7l12 -16h15l-17 20q-6 9 -8 15q-1 0 -1.5 0.5 t-2 1t-4.5 0.5q3 2 7.5 3.5t7 2.5t3.5 2q6 6 6 16q0 9 -4 13q-3 5 -8 8q-2 0 -8 2t-10 2h-37v-86zM762 221h43v-115h18v115h43v12h-104v-12zM762 260h16l17 41h53l14 -41h21l-54 127h-18zM770 39v29h27q12 0 14 -2q4 -4 4 -11q0 -6 -2 -8q0 -6 -4 -6q-2 0 -6.5 -1t-7.5 -1 h-25zM770 39v29h27q12 0 14 -2q4 -4 4 -11q0 -6 -2 -8q0 -6 -4 -6q-2 0 -6.5 -1t-7.5 -1h-25zM770 39v29h27q12 0 14 -2q4 -4 4 -11q0 -6 -2 -8q0 -6 -4 -6q-2 0 -6.5 -1t-7.5 -1h-25zM797 313l16 37q6 24 6 25q8 -23 10 -27l13 -35h-45zM823 428v162l13 10l12 -10v-137h43 v-25h-68zM842 35q0 -4 1 -7.5t2.5 -8l2.5 -7.5q1 -5 16 -16q8 -4 21 -4q3 0 9.5 1t8.5 1q10 4 17 10v33h-35v-10h24v-17q-1 -1 -4.5 -2.5t-5.5 -3.5q-6 -2 -14 -2q-11 0 -17 2q-2 2 -10 14q-4 4 -4 19q0 2 1 7.5t1 8.5q6 6 6 8q6 5 10 7h13h10q8 -3 8 -7q6 -6 6 -8l11 2 q-2 6 -9 13q-3 6 -10 8q-6 4 -16 4q-5 0 -23 -6q-11 -4 -14 -17q0 -1 -3 -8.5t-3 -13.5zM842 35q0 -4 1 -7.5t2.5 -8l2.5 -7.5q1 -5 16 -16q8 -4 21 -4q3 0 9.5 1t8.5 1q10 4 17 10v33h-35v-10h24v-17q-1 -1 -4.5 -2.5t-5.5 -3.5q-6 -2 -14 -2q-11 0 -17 2q-2 2 -10 14 q-4 4 -4 19q0 2 1 7.5t1 8.5q6 6 6 8q6 5 10 7h13h10q8 -3 8 -7q6 -6 6 -8l11 2q-2 6 -9 13q-3 6 -10 8q-6 4 -16 4q-5 0 -23 -6q-11 -4 -14 -17q0 -1 -3 -8.5t-3 -13.5zM842 35q0 -4 1 -7.5t2.5 -8l2.5 -7.5q1 -5 16 -16q8 -4 21 -4q3 0 9.5 1t8.5 1q10 4 17 10v33h-35v-10 h24v-17q-1 -1 -4.5 -2.5t-5.5 -3.5q-6 -2 -14 -2q-11 0 -17 2q-2 2 -10 14q-4 4 -4 19q0 2 1 7.5t1 8.5q6 6 6 8q6 5 10 7h13h10q8 -3 8 -7q6 -6 6 -8l11 2q-2 6 -9 13q-3 6 -10 8q-6 4 -16 4q-5 0 -23 -6q-11 -4 -14 -17q0 -1 -3 -8.5t-3 -13.5zM885 106h96v13h-80v45h72 v16h-72v41h78v12h-94v-127zM893 260h82v16h-64v111h-18v-127zM915 580l7 10h69v-23h-43v-47h33v-22h-33v-70h-26v139zM938 -6h61v8h-51v29h47v10h-47v27h51v12h-61v-86zM938 -6h61v8h-51v29h47v10h-47v27h51v12h-61v-86zM938 -6h61v8h-51v29h47v10h-47v27h51v12h-61v-86z M1010 465v90q0 39 39 39q38 0 38 -39v-90q0 -37 -38 -37q-39 0 -39 37zM1016 -6h53v8h-43v78h-10v-86zM1016 -6h53v8h-43v78h-10v-86zM1016 -6h53v8h-43v78h-10v-86zM1034 465q0 -12 15 -12q12 0 12 12v90q0 14 -12 14q-15 0 -15 -14v-90zM1040 315q0 -26 2 -30 q13 -18 19 -19q8 -8 29 -8q19 0 30 8q12 6 15 19q4 8 4 30v72h-17v-72q0 -26 -8 -34q-10 -7 -27 -7q-3 0 -18 5q-6 2 -10 10q-4 6 -4 26v72h-15v-72zM1051 145q0 -12 4 -20q10 -14 20 -16q21 -7 29 -7q6 0 15.5 3.5t10.5 3.5q10 5 17 12q4 6 4 20q0 13 -4 19q-10 10 -17 12 q-20 7 -28 8q-6 2 -12 4.5t-9 3.5t-4 2q-6 4 -6 11q0 8 6 14q4 6 25 6q14 0 20 -6q7 -2 11 -18l16 2q0 13 -8 18q-2 6 -17 14q-10 5 -22 5q-19 0 -25 -3q-3 -2 -7 -4.5t-6 -4t-3 -3.5q-8 -8 -8 -20t6 -15q3 -10 12 -14q2 -1 11 -3.5t16 -4.5q20 -4 22 -4q2 -2 7 -4.5t6 -3.5 q2 -4 2 -11q0 -8 -2 -12q-4 -8 -11 -8q-6 -2 -18 -2q-15 0 -19 2q-9 5 -14 12q-4 4 -4 14zM1081 4v-10h15v10h-15zM1081 4v-10h15v10h-15zM1081 4v-10h15v10h-15zM1102 580l6 10h31l30 -109v109h25v-162h-27l-34 104v-104h-25v141zM1112 37q0 -9 4 -25q1 -1 5 -6.5t9 -9.5 q8 -4 21 -4q15 0 23 8q9 4 12 20l-10 3q-2 -8 -9 -15q-6 -6 -16 -6t-16 2l-7 14q-6 6 -6 19q0 2 1 7.5t1 8.5q1 1 5 6.5t6 6.5q4 2 16 2q10 0 14 -2q9 -4 9 -13l12 2q0 2 -12 19q-18 6 -23 6q-4 0 -7 -1t-7 -2.5t-7 -2.5q-2 0 -14 -13q-4 -16 -4 -24zM1112 37q0 -9 4 -25 q1 -1 5 -6.5t9 -9.5q8 -4 21 -4q15 0 23 8q9 4 12 20l-10 3q-2 -8 -9 -15q-6 -6 -16 -6t-16 2l-7 14q-6 6 -6 19q0 2 1 7.5t1 8.5q1 1 5 6.5t6 6.5q4 2 16 2q10 0 14 -2q9 -4 9 -13l12 2q0 2 -12 19q-18 6 -23 6q-4 0 -7 -1t-7 -2.5t-7 -2.5q-2 0 -14 -13q-4 -16 -4 -24z M1112 37q0 -9 4 -25q1 -1 5 -6.5t9 -9.5q8 -4 21 -4q15 0 23 8q9 4 12 20l-10 3q-2 -8 -9 -15q-6 -6 -16 -6t-16 2l-7 14q-6 6 -6 19q0 2 1 7.5t1 8.5q1 1 5 6.5t6 6.5q4 2 16 2q10 0 14 -2q9 -4 9 -13l12 2q0 2 -12 19q-18 6 -23 6q-4 0 -7 -1t-7 -2.5t-7 -2.5 q-2 0 -14 -13q-4 -16 -4 -24zM1161 303q0 -8 8 -24q2 -5 9.5 -10t9.5 -7q16 -4 31 -4q10 0 22 4q14 11 16 17q7 7 7 18q0 13 -7 18q-1 4 -16 15q-8 0 -29 8q-19 3 -24 8q-4 4 -4 10q0 10 8 13q3 8 20 8q18 0 23 -8q1 0 10 -19l17 4q0 3 -1.5 6t-3 7t-2.5 6q-6 8 -18 14 q-6 4 -25 4q-16 0 -24 -4q-11 -4 -14 -12q-7 -11 -7 -19q0 -9 7 -16q2 -7 12 -12q2 -5 24 -9q6 -2 14.5 -3.5t10.5 -2.5t5 -4t5 -4q2 -2 2 -10t-2 -10q-8 -8 -10 -9q-6 -2 -21 -2q-3 0 -18 5q-4 0 -12 8q0 1 -3 7t-3 9h-17zM1176 106h96v13h-78v45h72v16h-72v41h74v12h-92 v-127zM1196 35q0 -4 1 -7.5t2.5 -8l2.5 -7.5q1 -2 5.5 -7.5t6.5 -8.5q16 -4 23 -4q12 0 20 4q10 7 15 16q4 6 4 25q0 16 -2 20q-12 16 -17 17q-12 6 -20 6q-20 0 -29 -12q-12 -9 -12 -33zM1196 35q0 -4 1 -7.5t2.5 -8l2.5 -7.5q1 -2 5.5 -7.5t6.5 -8.5q16 -4 23 -4 q12 0 20 4q10 7 15 16q4 6 4 25q0 16 -2 20q-12 16 -17 17q-12 6 -20 6q-20 0 -29 -12q-12 -9 -12 -33zM1196 35q0 -4 1 -7.5t2.5 -8l2.5 -7.5q1 -2 5.5 -7.5t6.5 -8.5q16 -4 23 -4q12 0 20 4q10 7 15 16q4 6 4 25q0 16 -2 20q-12 16 -17 17q-12 6 -20 6q-20 0 -29 -12 q-12 -9 -12 -33zM1208 35q0 18 11 26q7 7 18 7q10 0 16 -2q6 -3 11 -13q2 -6 2 -16q0 -21 -9 -27q-5 -8 -20 -8t-23 8q-6 6 -6 25zM1208 35q0 18 11 26q7 7 18 7q10 0 16 -2q6 -3 11 -13q2 -6 2 -16q0 -21 -9 -27q-5 -8 -20 -8t-23 8q-6 6 -6 25zM1208 35q0 18 11 26 q7 7 18 7q10 0 16 -2q6 -3 11 -13q2 -6 2 -16q0 -21 -9 -27q-5 -8 -20 -8t-23 8q-6 6 -6 25zM1212 567v23h78v-23h-26v-139l-11 -8l-14 8v139h-27zM1288 221h41v-115h17v115h43v12h-101v-12zM1288 260h94v16h-75v43h67v15h-67v41h73v12h-92v-127zM1292 -6h11v72l24 -72h10 l25 69v-69h10v86h-16l-19 -62q-4 -12 -4 -14q0 2 -2 6.5t-2 7.5l-20 62h-17v-86zM1292 -6h11v72l24 -72h10l25 69v-69h10v86h-16l-19 -62q-4 -12 -4 -14q0 2 -2 6.5t-2 7.5l-20 62h-17v-86zM1292 -6h11v72l24 -72h10l25 69v-69h10v86h-16l-19 -62q-4 -12 -4 -14q0 2 -2 6.5 t-2 7.5l-20 62h-17v-86zM1309 473l8 8l12 -6q3 -15 7 -20.5t12 -5.5q16 0 16 18q0 12 -21 33q-18 18 -26 28q-8 16 -8 25q0 41 39 41q38 0 38 -39l-22 -4q-3 20 -16 20t-13 -18q0 -17 33 -43q21 -21 21 -39q0 -24 -9 -33.5t-32 -9.5q-39 0 -39 45z" />
<glyph unicode="6" horiz-adv-x="1394" d="M4 170q0 -22 8 -35q2 -11 19 -24q18 -9 35 -9q18 0 34 13q16 12 19 30l-17 7q-2 -10 -12 -25q-10 -10 -27 -10q-11 0 -22 8q-9 4 -12 18q-6 8 -6 27t2 27q5 10 16 18q8 8 25 8q15 0 20 -8q6 -2 14 -18l17 2q-6 21 -21 26q-8 11 -30 11q-18 0 -33 -9q-15 -7 -21 -20 q-8 -13 -8 -37zM6 80l25 -86h10l18 63q0 7 4 11q0 -2 3 -11l16 -63h10l25 86h-13l-12 -57q-4 -16 -6 -19q0 7 -4 31l-14 45h-13l-16 -60q0 -6 -2 -16q-2 3 -6 19l-11 57h-14zM6 80l25 -86h10l18 63q0 7 4 11q0 -2 3 -11l16 -63h10l25 86h-13l-12 -57q-4 -16 -6 -19 q0 7 -4 31l-14 45h-13l-16 -60q0 -6 -2 -16q-2 3 -6 19l-11 57h-14zM6 80l25 -86h10l18 63q0 7 4 11q0 -2 3 -11l16 -63h10l25 86h-13l-12 -57q-4 -16 -6 -19q0 7 -4 31l-14 45h-13l-16 -60q0 -6 -2 -16q-2 3 -6 19l-11 57h-14zM10 578l6 12h39q41 0 41 -45q0 -25 -18 -31 q22 -9 22 -39q0 -47 -37 -47h-47v139zM16 260h21v53h31q30 0 36 11q13 13 13 30q0 11 -4 15q-1 4 -11 14q-12 4 -16 4h-18h-52v-127zM37 330v45h31q14 0 16 -2q4 0 10 -6q0 -1 3 -7t3 -10q0 -8 -8 -16q-6 -4 -24 -4h-31zM43 453h12q19 0 19 22q0 27 -19 27h-12v-49zM43 524 h12q15 0 15 21q0 22 -15 22h-12v-43zM119 80l24 -86h11l18 63q0 7 2 11q0 -5 2 -11l17 -63h10l24 86h-10l-14 -57q-1 -4 -2 -10t-2 -9q0 13 -6 31l-13 45h-14l-16 -60q0 -1 -3 -16q-1 3 -2 9t-2 10l-12 57h-12zM119 80l24 -86h11l18 63q0 7 2 11q0 -5 2 -11l17 -63h10l24 86 h-10l-14 -57q-1 -4 -2 -10t-2 -9q0 13 -6 31l-13 45h-14l-16 -60q0 -1 -3 -16q-1 3 -2 9t-2 10l-12 57h-12zM119 80l24 -86h11l18 63q0 7 2 11q0 -5 2 -11l17 -63h10l24 86h-10l-14 -57q-1 -4 -2 -10t-2 -9q0 13 -6 31l-13 45h-14l-16 -60q0 -1 -3 -16q-1 3 -2 9t-2 10 l-12 57h-12zM121 428v162h24v-162l-14 -8zM135 168q0 -20 8 -33q6 -15 21 -24q23 -9 33 -9q12 0 30 9q17 10 25 24q8 20 8 35t-8 35q-9 15 -23 22q-15 9 -32 9q-29 0 -43 -19q-19 -14 -19 -49zM137 260h96v16h-77v43h69v15h-69v41h73v12h-92v-127zM154 168q0 31 12 41 q14 14 31 14t22 -8q13 -3 17 -18q6 -24 6 -27q0 -22 -15 -37q-11 -16 -30 -16q-18 0 -33 12q-10 15 -10 39zM170 428v162l10 10l13 -10v-137h43v-25h-66zM229 80l23 -86h12l19 63q0 7 4 11q0 -5 2 -11l16 -63h10l25 86h-10l-15 -57q-4 -16 -6 -19q0 7 -4 31l-14 45h-12 l-17 -60l-1 -5q-1 -5 -1 -11q-2 3 -6 19l-12 57h-13zM229 80l23 -86h12l19 63q0 7 4 11q0 -5 2 -11l16 -63h10l25 86h-10l-15 -57q-4 -16 -6 -19q0 7 -4 31l-14 45h-12l-17 -60l-1 -5q-1 -5 -1 -11q-2 3 -6 19l-12 57h-13zM229 80l23 -86h12l19 63q0 7 4 11q0 -5 2 -11 l16 -63h10l25 86h-10l-15 -57q-4 -16 -6 -19q0 7 -4 31l-14 45h-12l-17 -60l-1 -5q-1 -5 -1 -11q-2 3 -6 19l-12 57h-13zM252 428v162l10 10l14 -10v-137h41v-25h-65zM256 260h20v59h19q8 0 10 -4q4 0 8 -2q1 0 4 -3.5t5 -4.5l4 -7q5 -6 6 -11l18 -27h21l-23 35q-4 8 -14 18 q-1 1 -4 2.5t-6 3.5q18 3 28 13q8 8 8 22q0 5 -4 21q-5 7 -14 10q-8 2 -27 2h-59v-127zM276 332v43h39q15 0 21 -6t6 -15q0 -8 -2 -12q-4 -2 -10 -8q-4 -2 -21 -2h-33zM281 106h16v109l37 -109h16l37 107v-107h16v127h-20l-33 -88q-3 -15 -8 -20q0 6 -6 18l-31 90h-24v-127z M305 590h27l18 -58l19 58h26l-33 -92v-70h-22v70zM342 1067l254 27l106 233l103 -231l254 -29l-187 -170l50 -254l-220 129l-225 -129l53 248zM344 4v-10h14v10h-14zM344 4v-10h14v10h-14zM344 4v-10h14v10h-14zM377 -6h33h12l4 2q3 2 4 4q5 0 8 8l1 3q1 3 1 7q0 5 -4 13 q-6 6 -12 8q5 0 8 8q4 2 4 8q0 9 -4 13q-3 6 -10 8q-1 0 -5.5 2t-6.5 2h-33v-86zM377 -6h33h12l4 2q3 2 4 4q5 0 8 8l1 3q1 3 1 7q0 5 -4 13q-6 6 -12 8q5 0 8 8q4 2 4 8q0 9 -4 13q-3 6 -10 8q-1 0 -5.5 2t-6.5 2h-33v-86zM377 -6h33h12l4 2q3 2 4 4q5 0 8 8l1 3q1 3 1 7 q0 5 -4 13q-6 6 -12 8q5 0 8 8q4 2 4 8q0 9 -4 13q-3 6 -10 8q-1 0 -5.5 2t-6.5 2h-33v-86zM383 303q0 -8 4 -24q5 -6 19 -17q16 -4 30 -4q11 0 27 4q1 2 6.5 7t7.5 10q6 9 6 18q0 12 -6 18q-1 3 -3 5t-5.5 5t-5.5 5q-12 0 -31 8q-20 3 -22 8q-7 2 -7 10q0 10 7 13q5 8 22 8 q15 0 23 -8q6 -3 10 -19l16 4q0 7 -8 19q-4 8 -16 14q-8 4 -25 4q-18 0 -22 -4q-14 -4 -17 -12q-6 -6 -6 -19q0 -10 2 -16q3 -5 14 -12q10 -7 27 -9q4 -2 9 -3t8 -1.5t4 -1.5q9 -3 14 -8q2 -2 2 -10q0 -1 -1 -5t-1 -5q-3 -5 -14 -9q-2 -2 -15 -2q-5 0 -20 5q-5 0 -13 8 q-1 2 -3.5 7.5t-2.5 8.5h-14zM387 2v29h19h14q4 0 4 -4q4 -4 4 -9v-8q-4 -2 -6 -6h-6q-2 -2 -6 -2h-23zM387 2v29h19h14q4 0 4 -4q4 -4 4 -9v-8q-4 -2 -6 -6h-6q-2 -2 -6 -2h-23zM387 2v29h19h14q4 0 4 -4q4 -4 4 -9v-8q-4 -2 -6 -6h-6q-2 -2 -6 -2h-23zM387 41v27h16 q11 0 13 -2l6 -3q2 -2 2 -8t-2 -8q0 -2 -6 -2q-2 -4 -10 -4h-19zM387 41v27h16q11 0 13 -2l6 -3q2 -2 2 -8t-2 -8q0 -2 -6 -2q-2 -4 -10 -4h-19zM387 41v27h16q11 0 13 -2l6 -3q2 -2 2 -8t-2 -8q0 -2 -6 -2q-2 -4 -10 -4h-19zM430 428l27 162h35l26 -162l-14 -8l-12 8l-7 37 h-22l-8 -37l-15 -8zM432 106h17v54h32q29 0 39 10q10 13 10 27q0 6 -4 18q-7 11 -10 12q-6 6 -16 6h-19h-49v-127zM449 172v49h32q13 0 15 -4q6 0 14 -8q2 -2 2 -12q0 -14 -8 -17q-3 -8 -21 -8h-34zM457 -6h10v86h-10v-86zM457 -6h10v86h-10v-86zM457 -6h10v86h-10v-86z M465 489h18l-10 64zM489 -6h50v8h-39v78h-11v-86zM489 -6h50v8h-39v78h-11v-86zM489 -6h50v8h-39v78h-11v-86zM502 324q0 -20 8 -31q2 -14 20 -25q13 -10 33 -10q17 0 33 8q10 7 20 23q9 18 9 35q0 19 -9 34q-12 20 -20 25q-24 8 -33 8q-27 0 -45 -18q-16 -19 -16 -49z M518 324q0 29 12 41q18 12 33 12q14 0 25 -8q6 -3 12 -15q6 -8 6 -30q0 -24 -10 -37q-13 -13 -33 -13t-33 13q-12 12 -12 37zM530 580l9 10h36q41 0 41 -37v-25q0 -15 -16 -28l18 -72h-26l-12 61h-17v-61h-24v141zM553 -6h53v8h-41v78h-12v-86zM553 -6h53v8h-41v78h-12v-86z M553 -6h53v8h-41v78h-12v-86zM553 106h80v13h-64v114h-16v-127zM563 516h12q9 0 12 2.5t3 9.5v25q0 14 -15 14h-12v-51zM602 80l33 -51v-35h10v35l35 51h-12l-17 -27q-3 -3 -6 -8t-4 -6q-4 2 -8 14l-17 27h-14zM602 80l33 -51v-35h10v35l35 51h-12l-17 -27q-3 -3 -6 -8 t-4 -6q-4 2 -8 14l-17 27h-14zM602 80l33 -51v-35h10v35l35 51h-12l-17 -27q-3 -3 -6 -8t-4 -6q-4 2 -8 14l-17 27h-14zM602 786l31 -18l26 18l13 80h53l14 -80l29 -18l27 18l-60 353h-71zM637 465v88q0 41 39 41t39 -41v-18h-27v20q0 14 -12 14q-14 0 -14 -14v-90 q0 -12 14 -12q12 0 12 12v33h-12l-8 10l8 12h39v-55q0 -39 -39 -39t-39 39zM645 260h17v100l69 -100h17v127h-17v-98l-67 98h-19v-127zM653 106h97v13h-80v45h71v16h-71v41h78v12h-95v-127zM672 -6h10l12 24h35l10 -24h13l-35 86h-12zM672 -6h10l12 24h35l10 -24h13l-35 86 h-12zM672 -6h10l12 24h35l10 -24h13l-35 86h-12zM680 918l18 139l23 -139h-41zM696 29l9 24q4 8 4 15q2 -2 4 -8t2 -7l10 -24h-29zM696 29l9 24q4 8 4 15q2 -2 4 -8t2 -7l10 -24h-29zM696 29l9 24q4 8 4 15q2 -2 4 -8t2 -7l10 -24h-29zM729 580l6 10h70v-23h-45v-47h35v-22 h-35v-45h45v-25h-70v139zM760 -6h10v37h14h4l7 -2l3 -2q3 -2 3 -4q1 -1 3.5 -6t4.5 -7l12 -16h15l-17 20q-6 9 -8 15q-1 0 -1.5 0.5t-2 1t-4.5 0.5q3 2 7.5 3.5t7 2.5t3.5 2q6 6 6 16q0 9 -4 13q-3 5 -8 8q-2 0 -8 2t-10 2h-37v-86zM760 -6h10v37h14h4l7 -2l3 -2q3 -2 3 -4 q1 -1 3.5 -6t4.5 -7l12 -16h15l-17 20q-6 9 -8 15q-1 0 -1.5 0.5t-2 1t-4.5 0.5q3 2 7.5 3.5t7 2.5t3.5 2q6 6 6 16q0 9 -4 13q-3 5 -8 8q-2 0 -8 2t-10 2h-37v-86zM760 -6h10v37h14h4l7 -2l3 -2q3 -2 3 -4q1 -1 3.5 -6t4.5 -7l12 -16h15l-17 20q-6 9 -8 15q-1 0 -1.5 0.5 t-2 1t-4.5 0.5q3 2 7.5 3.5t7 2.5t3.5 2q6 6 6 16q0 9 -4 13q-3 5 -8 8q-2 0 -8 2t-10 2h-37v-86zM762 221h43v-115h18v115h43v12h-104v-12zM762 260h16l17 41h53l14 -41h21l-54 127h-18zM770 39v29h27q12 0 14 -2q4 -4 4 -11q0 -6 -2 -8q0 -6 -4 -6q-2 0 -6.5 -1t-7.5 -1 h-25zM770 39v29h27q12 0 14 -2q4 -4 4 -11q0 -6 -2 -8q0 -6 -4 -6q-2 0 -6.5 -1t-7.5 -1h-25zM770 39v29h27q12 0 14 -2q4 -4 4 -11q0 -6 -2 -8q0 -6 -4 -6q-2 0 -6.5 -1t-7.5 -1h-25zM797 313l16 37q6 24 6 25q8 -23 10 -27l13 -35h-45zM823 428v162l13 10l12 -10v-137h43 v-25h-68zM842 35q0 -4 1 -7.5t2.5 -8l2.5 -7.5q1 -5 16 -16q8 -4 21 -4q3 0 9.5 1t8.5 1q10 4 17 10v33h-35v-10h24v-17q-1 -1 -4.5 -2.5t-5.5 -3.5q-6 -2 -14 -2q-11 0 -17 2q-2 2 -10 14q-4 4 -4 19q0 2 1 7.5t1 8.5q6 6 6 8q6 5 10 7h13h10q8 -3 8 -7q6 -6 6 -8l11 2 q-2 6 -9 13q-3 6 -10 8q-6 4 -16 4q-5 0 -23 -6q-11 -4 -14 -17q0 -1 -3 -8.5t-3 -13.5zM842 35q0 -4 1 -7.5t2.5 -8l2.5 -7.5q1 -5 16 -16q8 -4 21 -4q3 0 9.5 1t8.5 1q10 4 17 10v33h-35v-10h24v-17q-1 -1 -4.5 -2.5t-5.5 -3.5q-6 -2 -14 -2q-11 0 -17 2q-2 2 -10 14 q-4 4 -4 19q0 2 1 7.5t1 8.5q6 6 6 8q6 5 10 7h13h10q8 -3 8 -7q6 -6 6 -8l11 2q-2 6 -9 13q-3 6 -10 8q-6 4 -16 4q-5 0 -23 -6q-11 -4 -14 -17q0 -1 -3 -8.5t-3 -13.5zM842 35q0 -4 1 -7.5t2.5 -8l2.5 -7.5q1 -5 16 -16q8 -4 21 -4q3 0 9.5 1t8.5 1q10 4 17 10v33h-35v-10 h24v-17q-1 -1 -4.5 -2.5t-5.5 -3.5q-6 -2 -14 -2q-11 0 -17 2q-2 2 -10 14q-4 4 -4 19q0 2 1 7.5t1 8.5q6 6 6 8q6 5 10 7h13h10q8 -3 8 -7q6 -6 6 -8l11 2q-2 6 -9 13q-3 6 -10 8q-6 4 -16 4q-5 0 -23 -6q-11 -4 -14 -17q0 -1 -3 -8.5t-3 -13.5zM885 106h96v13h-80v45h72 v16h-72v41h78v12h-94v-127zM893 260h82v16h-64v111h-18v-127zM915 580l7 10h69v-23h-43v-47h33v-22h-33v-70h-26v139zM938 -6h61v8h-51v29h47v10h-47v27h51v12h-61v-86zM938 -6h61v8h-51v29h47v10h-47v27h51v12h-61v-86zM938 -6h61v8h-51v29h47v10h-47v27h51v12h-61v-86z M1010 465v90q0 39 39 39q38 0 38 -39v-90q0 -37 -38 -37q-39 0 -39 37zM1016 -6h53v8h-43v78h-10v-86zM1016 -6h53v8h-43v78h-10v-86zM1016 -6h53v8h-43v78h-10v-86zM1034 465q0 -12 15 -12q12 0 12 12v90q0 14 -12 14q-15 0 -15 -14v-90zM1040 315q0 -26 2 -30 q13 -18 19 -19q8 -8 29 -8q19 0 30 8q12 6 15 19q4 8 4 30v72h-17v-72q0 -26 -8 -34q-10 -7 -27 -7q-3 0 -18 5q-6 2 -10 10q-4 6 -4 26v72h-15v-72zM1051 145q0 -12 4 -20q10 -14 20 -16q21 -7 29 -7q6 0 15.5 3.5t10.5 3.5q10 5 17 12q4 6 4 20q0 13 -4 19q-10 10 -17 12 q-20 7 -28 8q-6 2 -12 4.5t-9 3.5t-4 2q-6 4 -6 11q0 8 6 14q4 6 25 6q14 0 20 -6q7 -2 11 -18l16 2q0 13 -8 18q-2 6 -17 14q-10 5 -22 5q-19 0 -25 -3q-3 -2 -7 -4.5t-6 -4t-3 -3.5q-8 -8 -8 -20t6 -15q3 -10 12 -14q2 -1 11 -3.5t16 -4.5q20 -4 22 -4q2 -2 7 -4.5t6 -3.5 q2 -4 2 -11q0 -8 -2 -12q-4 -8 -11 -8q-6 -2 -18 -2q-15 0 -19 2q-9 5 -14 12q-4 4 -4 14zM1081 4v-10h15v10h-15zM1081 4v-10h15v10h-15zM1081 4v-10h15v10h-15zM1102 580l6 10h31l30 -109v109h25v-162h-27l-34 104v-104h-25v141zM1112 37q0 -9 4 -25q1 -1 5 -6.5t9 -9.5 q8 -4 21 -4q15 0 23 8q9 4 12 20l-10 3q-2 -8 -9 -15q-6 -6 -16 -6t-16 2l-7 14q-6 6 -6 19q0 2 1 7.5t1 8.5q1 1 5 6.5t6 6.5q4 2 16 2q10 0 14 -2q9 -4 9 -13l12 2q0 2 -12 19q-18 6 -23 6q-4 0 -7 -1t-7 -2.5t-7 -2.5q-2 0 -14 -13q-4 -16 -4 -24zM1112 37q0 -9 4 -25 q1 -1 5 -6.5t9 -9.5q8 -4 21 -4q15 0 23 8q9 4 12 20l-10 3q-2 -8 -9 -15q-6 -6 -16 -6t-16 2l-7 14q-6 6 -6 19q0 2 1 7.5t1 8.5q1 1 5 6.5t6 6.5q4 2 16 2q10 0 14 -2q9 -4 9 -13l12 2q0 2 -12 19q-18 6 -23 6q-4 0 -7 -1t-7 -2.5t-7 -2.5q-2 0 -14 -13q-4 -16 -4 -24z M1112 37q0 -9 4 -25q1 -1 5 -6.5t9 -9.5q8 -4 21 -4q15 0 23 8q9 4 12 20l-10 3q-2 -8 -9 -15q-6 -6 -16 -6t-16 2l-7 14q-6 6 -6 19q0 2 1 7.5t1 8.5q1 1 5 6.5t6 6.5q4 2 16 2q10 0 14 -2q9 -4 9 -13l12 2q0 2 -12 19q-18 6 -23 6q-4 0 -7 -1t-7 -2.5t-7 -2.5 q-2 0 -14 -13q-4 -16 -4 -24zM1161 303q0 -8 8 -24q2 -5 9.5 -10t9.5 -7q16 -4 31 -4q10 0 22 4q14 11 16 17q7 7 7 18q0 13 -7 18q-1 4 -16 15q-8 0 -29 8q-19 3 -24 8q-4 4 -4 10q0 10 8 13q3 8 20 8q18 0 23 -8q1 0 10 -19l17 4q0 3 -1.5 6t-3 7t-2.5 6q-6 8 -18 14 q-6 4 -25 4q-16 0 -24 -4q-11 -4 -14 -12q-7 -11 -7 -19q0 -9 7 -16q2 -7 12 -12q2 -5 24 -9q6 -2 14.5 -3.5t10.5 -2.5t5 -4t5 -4q2 -2 2 -10t-2 -10q-8 -8 -10 -9q-6 -2 -21 -2q-3 0 -18 5q-4 0 -12 8q0 1 -3 7t-3 9h-17zM1176 106h96v13h-78v45h72v16h-72v41h74v12h-92 v-127zM1196 35q0 -4 1 -7.5t2.5 -8l2.5 -7.5q1 -2 5.5 -7.5t6.5 -8.5q16 -4 23 -4q12 0 20 4q10 7 15 16q4 6 4 25q0 16 -2 20q-12 16 -17 17q-12 6 -20 6q-20 0 -29 -12q-12 -9 -12 -33zM1196 35q0 -4 1 -7.5t2.5 -8l2.5 -7.5q1 -2 5.5 -7.5t6.5 -8.5q16 -4 23 -4 q12 0 20 4q10 7 15 16q4 6 4 25q0 16 -2 20q-12 16 -17 17q-12 6 -20 6q-20 0 -29 -12q-12 -9 -12 -33zM1196 35q0 -4 1 -7.5t2.5 -8l2.5 -7.5q1 -2 5.5 -7.5t6.5 -8.5q16 -4 23 -4q12 0 20 4q10 7 15 16q4 6 4 25q0 16 -2 20q-12 16 -17 17q-12 6 -20 6q-20 0 -29 -12 q-12 -9 -12 -33zM1208 35q0 18 11 26q7 7 18 7q10 0 16 -2q6 -3 11 -13q2 -6 2 -16q0 -21 -9 -27q-5 -8 -20 -8t-23 8q-6 6 -6 25zM1208 35q0 18 11 26q7 7 18 7q10 0 16 -2q6 -3 11 -13q2 -6 2 -16q0 -21 -9 -27q-5 -8 -20 -8t-23 8q-6 6 -6 25zM1208 35q0 18 11 26 q7 7 18 7q10 0 16 -2q6 -3 11 -13q2 -6 2 -16q0 -21 -9 -27q-5 -8 -20 -8t-23 8q-6 6 -6 25zM1212 567v23h78v-23h-26v-139l-11 -8l-14 8v139h-27zM1288 221h41v-115h17v115h43v12h-101v-12zM1288 260h94v16h-75v43h67v15h-67v41h73v12h-92v-127zM1292 -6h11v72l24 -72h10 l25 69v-69h10v86h-16l-19 -62q-4 -12 -4 -14q0 2 -2 6.5t-2 7.5l-20 62h-17v-86zM1292 -6h11v72l24 -72h10l25 69v-69h10v86h-16l-19 -62q-4 -12 -4 -14q0 2 -2 6.5t-2 7.5l-20 62h-17v-86zM1292 -6h11v72l24 -72h10l25 69v-69h10v86h-16l-19 -62q-4 -12 -4 -14q0 2 -2 6.5 t-2 7.5l-20 62h-17v-86zM1309 473l8 8l12 -6q3 -15 7 -20.5t12 -5.5q16 0 16 18q0 12 -21 33q-18 18 -26 28q-8 16 -8 25q0 41 39 41q38 0 38 -39l-22 -4q-3 20 -16 20t-13 -18q0 -17 33 -43q21 -21 21 -39q0 -24 -9 -33.5t-32 -9.5q-39 0 -39 45z" />
<glyph unicode="7" horiz-adv-x="1394" d="M4 170q0 -22 8 -35q2 -11 19 -24q18 -9 35 -9q18 0 34 13q16 12 19 30l-17 7q-2 -10 -12 -25q-10 -10 -27 -10q-11 0 -22 8q-9 4 -12 18q-6 8 -6 27t2 27q5 10 16 18q8 8 25 8q15 0 20 -8q6 -2 14 -18l17 2q-6 21 -21 26q-8 11 -30 11q-18 0 -33 -9q-15 -7 -21 -20 q-8 -13 -8 -37zM6 80l25 -86h10l18 63q0 7 4 11q0 -2 3 -11l16 -63h10l25 86h-13l-12 -57q-4 -16 -6 -19q0 7 -4 31l-14 45h-13l-16 -60q0 -6 -2 -16q-2 3 -6 19l-11 57h-14zM6 80l25 -86h10l18 63q0 7 4 11q0 -2 3 -11l16 -63h10l25 86h-13l-12 -57q-4 -16 -6 -19 q0 7 -4 31l-14 45h-13l-16 -60q0 -6 -2 -16q-2 3 -6 19l-11 57h-14zM6 80l25 -86h10l18 63q0 7 4 11q0 -2 3 -11l16 -63h10l25 86h-13l-12 -57q-4 -16 -6 -19q0 7 -4 31l-14 45h-13l-16 -60q0 -6 -2 -16q-2 3 -6 19l-11 57h-14zM10 578l6 12h39q41 0 41 -45q0 -25 -18 -31 q22 -9 22 -39q0 -47 -37 -47h-47v139zM16 260h21v53h31q30 0 36 11q13 13 13 30q0 11 -4 15q-1 4 -11 14q-12 4 -16 4h-18h-52v-127zM37 330v45h31q14 0 16 -2q4 0 10 -6q0 -1 3 -7t3 -10q0 -8 -8 -16q-6 -4 -24 -4h-31zM43 453h12q19 0 19 22q0 27 -19 27h-12v-49zM43 524 h12q15 0 15 21q0 22 -15 22h-12v-43zM119 80l24 -86h11l18 63q0 7 2 11q0 -5 2 -11l17 -63h10l24 86h-10l-14 -57q-1 -4 -2 -10t-2 -9q0 13 -6 31l-13 45h-14l-16 -60q0 -1 -3 -16q-1 3 -2 9t-2 10l-12 57h-12zM119 80l24 -86h11l18 63q0 7 2 11q0 -5 2 -11l17 -63h10l24 86 h-10l-14 -57q-1 -4 -2 -10t-2 -9q0 13 -6 31l-13 45h-14l-16 -60q0 -1 -3 -16q-1 3 -2 9t-2 10l-12 57h-12zM119 80l24 -86h11l18 63q0 7 2 11q0 -5 2 -11l17 -63h10l24 86h-10l-14 -57q-1 -4 -2 -10t-2 -9q0 13 -6 31l-13 45h-14l-16 -60q0 -1 -3 -16q-1 3 -2 9t-2 10 l-12 57h-12zM121 428v162h24v-162l-14 -8zM135 168q0 -20 8 -33q6 -15 21 -24q23 -9 33 -9q12 0 30 9q17 10 25 24q8 20 8 35t-8 35q-9 15 -23 22q-15 9 -32 9q-29 0 -43 -19q-19 -14 -19 -49zM137 260h96v16h-77v43h69v15h-69v41h73v12h-92v-127zM154 168q0 31 12 41 q14 14 31 14t22 -8q13 -3 17 -18q6 -24 6 -27q0 -22 -15 -37q-11 -16 -30 -16q-18 0 -33 12q-10 15 -10 39zM170 428v162l10 10l13 -10v-137h43v-25h-66zM229 80l23 -86h12l19 63q0 7 4 11q0 -5 2 -11l16 -63h10l25 86h-10l-15 -57q-4 -16 -6 -19q0 7 -4 31l-14 45h-12 l-17 -60l-1 -5q-1 -5 -1 -11q-2 3 -6 19l-12 57h-13zM229 80l23 -86h12l19 63q0 7 4 11q0 -5 2 -11l16 -63h10l25 86h-10l-15 -57q-4 -16 -6 -19q0 7 -4 31l-14 45h-12l-17 -60l-1 -5q-1 -5 -1 -11q-2 3 -6 19l-12 57h-13zM229 80l23 -86h12l19 63q0 7 4 11q0 -5 2 -11 l16 -63h10l25 86h-10l-15 -57q-4 -16 -6 -19q0 7 -4 31l-14 45h-12l-17 -60l-1 -5q-1 -5 -1 -11q-2 3 -6 19l-12 57h-13zM252 428v162l10 10l14 -10v-137h41v-25h-65zM256 260h20v59h19q8 0 10 -4q4 0 8 -2q1 0 4 -3.5t5 -4.5l4 -7q5 -6 6 -11l18 -27h21l-23 35q-4 8 -14 18 q-1 1 -4 2.5t-6 3.5q18 3 28 13q8 8 8 22q0 5 -4 21q-5 7 -14 10q-8 2 -27 2h-59v-127zM276 332v43h39q15 0 21 -6t6 -15q0 -8 -2 -12q-4 -2 -10 -8q-4 -2 -21 -2h-33zM281 106h16v109l37 -109h16l37 107v-107h16v127h-20l-33 -88q-3 -15 -8 -20q0 6 -6 18l-31 90h-24v-127z M305 590h27l18 -58l19 58h26l-33 -92v-70h-22v70zM342 1067l254 27l106 233l103 -231l254 -29l-187 -170l50 -254l-220 129l-225 -129l53 248zM344 4v-10h14v10h-14zM344 4v-10h14v10h-14zM344 4v-10h14v10h-14zM377 -6h33h12l4 2q3 2 4 4q5 0 8 8l1 3q1 3 1 7q0 5 -4 13 q-6 6 -12 8q5 0 8 8q4 2 4 8q0 9 -4 13q-3 6 -10 8q-1 0 -5.5 2t-6.5 2h-33v-86zM377 -6h33h12l4 2q3 2 4 4q5 0 8 8l1 3q1 3 1 7q0 5 -4 13q-6 6 -12 8q5 0 8 8q4 2 4 8q0 9 -4 13q-3 6 -10 8q-1 0 -5.5 2t-6.5 2h-33v-86zM377 -6h33h12l4 2q3 2 4 4q5 0 8 8l1 3q1 3 1 7 q0 5 -4 13q-6 6 -12 8q5 0 8 8q4 2 4 8q0 9 -4 13q-3 6 -10 8q-1 0 -5.5 2t-6.5 2h-33v-86zM383 303q0 -8 4 -24q5 -6 19 -17q16 -4 30 -4q11 0 27 4q1 2 6.5 7t7.5 10q6 9 6 18q0 12 -6 18q-1 3 -3 5t-5.5 5t-5.5 5q-12 0 -31 8q-20 3 -22 8q-7 2 -7 10q0 10 7 13q5 8 22 8 q15 0 23 -8q6 -3 10 -19l16 4q0 7 -8 19q-4 8 -16 14q-8 4 -25 4q-18 0 -22 -4q-14 -4 -17 -12q-6 -6 -6 -19q0 -10 2 -16q3 -5 14 -12q10 -7 27 -9q4 -2 9 -3t8 -1.5t4 -1.5q9 -3 14 -8q2 -2 2 -10q0 -1 -1 -5t-1 -5q-3 -5 -14 -9q-2 -2 -15 -2q-5 0 -20 5q-5 0 -13 8 q-1 2 -3.5 7.5t-2.5 8.5h-14zM387 2v29h19h14q4 0 4 -4q4 -4 4 -9v-8q-4 -2 -6 -6h-6q-2 -2 -6 -2h-23zM387 2v29h19h14q4 0 4 -4q4 -4 4 -9v-8q-4 -2 -6 -6h-6q-2 -2 -6 -2h-23zM387 2v29h19h14q4 0 4 -4q4 -4 4 -9v-8q-4 -2 -6 -6h-6q-2 -2 -6 -2h-23zM387 41v27h16 q11 0 13 -2l6 -3q2 -2 2 -8t-2 -8q0 -2 -6 -2q-2 -4 -10 -4h-19zM387 41v27h16q11 0 13 -2l6 -3q2 -2 2 -8t-2 -8q0 -2 -6 -2q-2 -4 -10 -4h-19zM387 41v27h16q11 0 13 -2l6 -3q2 -2 2 -8t-2 -8q0 -2 -6 -2q-2 -4 -10 -4h-19zM430 428l27 162h35l26 -162l-14 -8l-12 8l-7 37 h-22l-8 -37l-15 -8zM432 106h17v54h32q29 0 39 10q10 13 10 27q0 6 -4 18q-7 11 -10 12q-6 6 -16 6h-19h-49v-127zM449 172v49h32q13 0 15 -4q6 0 14 -8q2 -2 2 -12q0 -14 -8 -17q-3 -8 -21 -8h-34zM457 -6h10v86h-10v-86zM457 -6h10v86h-10v-86zM457 -6h10v86h-10v-86z M465 489h18l-10 64zM489 -6h50v8h-39v78h-11v-86zM489 -6h50v8h-39v78h-11v-86zM489 -6h50v8h-39v78h-11v-86zM502 324q0 -20 8 -31q2 -14 20 -25q13 -10 33 -10q17 0 33 8q10 7 20 23q9 18 9 35q0 19 -9 34q-12 20 -20 25q-24 8 -33 8q-27 0 -45 -18q-16 -19 -16 -49z M518 324q0 29 12 41q18 12 33 12q14 0 25 -8q6 -3 12 -15q6 -8 6 -30q0 -24 -10 -37q-13 -13 -33 -13t-33 13q-12 12 -12 37zM530 580l9 10h36q41 0 41 -37v-25q0 -15 -16 -28l18 -72h-26l-12 61h-17v-61h-24v141zM553 -6h53v8h-41v78h-12v-86zM553 -6h53v8h-41v78h-12v-86z M553 -6h53v8h-41v78h-12v-86zM553 106h80v13h-64v114h-16v-127zM563 516h12q9 0 12 2.5t3 9.5v25q0 14 -15 14h-12v-51zM602 80l33 -51v-35h10v35l35 51h-12l-17 -27q-3 -3 -6 -8t-4 -6q-4 2 -8 14l-17 27h-14zM602 80l33 -51v-35h10v35l35 51h-12l-17 -27q-3 -3 -6 -8 t-4 -6q-4 2 -8 14l-17 27h-14zM602 80l33 -51v-35h10v35l35 51h-12l-17 -27q-3 -3 -6 -8t-4 -6q-4 2 -8 14l-17 27h-14zM602 786l31 -18l26 18l13 80h53l14 -80l29 -18l27 18l-60 353h-71zM637 465v88q0 41 39 41t39 -41v-18h-27v20q0 14 -12 14q-14 0 -14 -14v-90 q0 -12 14 -12q12 0 12 12v33h-12l-8 10l8 12h39v-55q0 -39 -39 -39t-39 39zM645 260h17v100l69 -100h17v127h-17v-98l-67 98h-19v-127zM653 106h97v13h-80v45h71v16h-71v41h78v12h-95v-127zM672 -6h10l12 24h35l10 -24h13l-35 86h-12zM672 -6h10l12 24h35l10 -24h13l-35 86 h-12zM672 -6h10l12 24h35l10 -24h13l-35 86h-12zM680 918l18 139l23 -139h-41zM696 29l9 24q4 8 4 15q2 -2 4 -8t2 -7l10 -24h-29zM696 29l9 24q4 8 4 15q2 -2 4 -8t2 -7l10 -24h-29zM696 29l9 24q4 8 4 15q2 -2 4 -8t2 -7l10 -24h-29zM729 580l6 10h70v-23h-45v-47h35v-22 h-35v-45h45v-25h-70v139zM760 -6h10v37h14h4l7 -2l3 -2q3 -2 3 -4q1 -1 3.5 -6t4.5 -7l12 -16h15l-17 20q-6 9 -8 15q-1 0 -1.5 0.5t-2 1t-4.5 0.5q3 2 7.5 3.5t7 2.5t3.5 2q6 6 6 16q0 9 -4 13q-3 5 -8 8q-2 0 -8 2t-10 2h-37v-86zM760 -6h10v37h14h4l7 -2l3 -2q3 -2 3 -4 q1 -1 3.5 -6t4.5 -7l12 -16h15l-17 20q-6 9 -8 15q-1 0 -1.5 0.5t-2 1t-4.5 0.5q3 2 7.5 3.5t7 2.5t3.5 2q6 6 6 16q0 9 -4 13q-3 5 -8 8q-2 0 -8 2t-10 2h-37v-86zM760 -6h10v37h14h4l7 -2l3 -2q3 -2 3 -4q1 -1 3.5 -6t4.5 -7l12 -16h15l-17 20q-6 9 -8 15q-1 0 -1.5 0.5 t-2 1t-4.5 0.5q3 2 7.5 3.5t7 2.5t3.5 2q6 6 6 16q0 9 -4 13q-3 5 -8 8q-2 0 -8 2t-10 2h-37v-86zM762 221h43v-115h18v115h43v12h-104v-12zM762 260h16l17 41h53l14 -41h21l-54 127h-18zM770 39v29h27q12 0 14 -2q4 -4 4 -11q0 -6 -2 -8q0 -6 -4 -6q-2 0 -6.5 -1t-7.5 -1 h-25zM770 39v29h27q12 0 14 -2q4 -4 4 -11q0 -6 -2 -8q0 -6 -4 -6q-2 0 -6.5 -1t-7.5 -1h-25zM770 39v29h27q12 0 14 -2q4 -4 4 -11q0 -6 -2 -8q0 -6 -4 -6q-2 0 -6.5 -1t-7.5 -1h-25zM797 313l16 37q6 24 6 25q8 -23 10 -27l13 -35h-45zM823 428v162l13 10l12 -10v-137h43 v-25h-68zM842 35q0 -4 1 -7.5t2.5 -8l2.5 -7.5q1 -5 16 -16q8 -4 21 -4q3 0 9.5 1t8.5 1q10 4 17 10v33h-35v-10h24v-17q-1 -1 -4.5 -2.5t-5.5 -3.5q-6 -2 -14 -2q-11 0 -17 2q-2 2 -10 14q-4 4 -4 19q0 2 1 7.5t1 8.5q6 6 6 8q6 5 10 7h13h10q8 -3 8 -7q6 -6 6 -8l11 2 q-2 6 -9 13q-3 6 -10 8q-6 4 -16 4q-5 0 -23 -6q-11 -4 -14 -17q0 -1 -3 -8.5t-3 -13.5zM842 35q0 -4 1 -7.5t2.5 -8l2.5 -7.5q1 -5 16 -16q8 -4 21 -4q3 0 9.5 1t8.5 1q10 4 17 10v33h-35v-10h24v-17q-1 -1 -4.5 -2.5t-5.5 -3.5q-6 -2 -14 -2q-11 0 -17 2q-2 2 -10 14 q-4 4 -4 19q0 2 1 7.5t1 8.5q6 6 6 8q6 5 10 7h13h10q8 -3 8 -7q6 -6 6 -8l11 2q-2 6 -9 13q-3 6 -10 8q-6 4 -16 4q-5 0 -23 -6q-11 -4 -14 -17q0 -1 -3 -8.5t-3 -13.5zM842 35q0 -4 1 -7.5t2.5 -8l2.5 -7.5q1 -5 16 -16q8 -4 21 -4q3 0 9.5 1t8.5 1q10 4 17 10v33h-35v-10 h24v-17q-1 -1 -4.5 -2.5t-5.5 -3.5q-6 -2 -14 -2q-11 0 -17 2q-2 2 -10 14q-4 4 -4 19q0 2 1 7.5t1 8.5q6 6 6 8q6 5 10 7h13h10q8 -3 8 -7q6 -6 6 -8l11 2q-2 6 -9 13q-3 6 -10 8q-6 4 -16 4q-5 0 -23 -6q-11 -4 -14 -17q0 -1 -3 -8.5t-3 -13.5zM885 106h96v13h-80v45h72 v16h-72v41h78v12h-94v-127zM893 260h82v16h-64v111h-18v-127zM915 580l7 10h69v-23h-43v-47h33v-22h-33v-70h-26v139zM938 -6h61v8h-51v29h47v10h-47v27h51v12h-61v-86zM938 -6h61v8h-51v29h47v10h-47v27h51v12h-61v-86zM938 -6h61v8h-51v29h47v10h-47v27h51v12h-61v-86z M1010 465v90q0 39 39 39q38 0 38 -39v-90q0 -37 -38 -37q-39 0 -39 37zM1016 -6h53v8h-43v78h-10v-86zM1016 -6h53v8h-43v78h-10v-86zM1016 -6h53v8h-43v78h-10v-86zM1034 465q0 -12 15 -12q12 0 12 12v90q0 14 -12 14q-15 0 -15 -14v-90zM1040 315q0 -26 2 -30 q13 -18 19 -19q8 -8 29 -8q19 0 30 8q12 6 15 19q4 8 4 30v72h-17v-72q0 -26 -8 -34q-10 -7 -27 -7q-3 0 -18 5q-6 2 -10 10q-4 6 -4 26v72h-15v-72zM1051 145q0 -12 4 -20q10 -14 20 -16q21 -7 29 -7q6 0 15.5 3.5t10.5 3.5q10 5 17 12q4 6 4 20q0 13 -4 19q-10 10 -17 12 q-20 7 -28 8q-6 2 -12 4.5t-9 3.5t-4 2q-6 4 -6 11q0 8 6 14q4 6 25 6q14 0 20 -6q7 -2 11 -18l16 2q0 13 -8 18q-2 6 -17 14q-10 5 -22 5q-19 0 -25 -3q-3 -2 -7 -4.5t-6 -4t-3 -3.5q-8 -8 -8 -20t6 -15q3 -10 12 -14q2 -1 11 -3.5t16 -4.5q20 -4 22 -4q2 -2 7 -4.5t6 -3.5 q2 -4 2 -11q0 -8 -2 -12q-4 -8 -11 -8q-6 -2 -18 -2q-15 0 -19 2q-9 5 -14 12q-4 4 -4 14zM1081 4v-10h15v10h-15zM1081 4v-10h15v10h-15zM1081 4v-10h15v10h-15zM1102 580l6 10h31l30 -109v109h25v-162h-27l-34 104v-104h-25v141zM1112 37q0 -9 4 -25q1 -1 5 -6.5t9 -9.5 q8 -4 21 -4q15 0 23 8q9 4 12 20l-10 3q-2 -8 -9 -15q-6 -6 -16 -6t-16 2l-7 14q-6 6 -6 19q0 2 1 7.5t1 8.5q1 1 5 6.5t6 6.5q4 2 16 2q10 0 14 -2q9 -4 9 -13l12 2q0 2 -12 19q-18 6 -23 6q-4 0 -7 -1t-7 -2.5t-7 -2.5q-2 0 -14 -13q-4 -16 -4 -24zM1112 37q0 -9 4 -25 q1 -1 5 -6.5t9 -9.5q8 -4 21 -4q15 0 23 8q9 4 12 20l-10 3q-2 -8 -9 -15q-6 -6 -16 -6t-16 2l-7 14q-6 6 -6 19q0 2 1 7.5t1 8.5q1 1 5 6.5t6 6.5q4 2 16 2q10 0 14 -2q9 -4 9 -13l12 2q0 2 -12 19q-18 6 -23 6q-4 0 -7 -1t-7 -2.5t-7 -2.5q-2 0 -14 -13q-4 -16 -4 -24z M1112 37q0 -9 4 -25q1 -1 5 -6.5t9 -9.5q8 -4 21 -4q15 0 23 8q9 4 12 20l-10 3q-2 -8 -9 -15q-6 -6 -16 -6t-16 2l-7 14q-6 6 -6 19q0 2 1 7.5t1 8.5q1 1 5 6.5t6 6.5q4 2 16 2q10 0 14 -2q9 -4 9 -13l12 2q0 2 -12 19q-18 6 -23 6q-4 0 -7 -1t-7 -2.5t-7 -2.5 q-2 0 -14 -13q-4 -16 -4 -24zM1161 303q0 -8 8 -24q2 -5 9.5 -10t9.5 -7q16 -4 31 -4q10 0 22 4q14 11 16 17q7 7 7 18q0 13 -7 18q-1 4 -16 15q-8 0 -29 8q-19 3 -24 8q-4 4 -4 10q0 10 8 13q3 8 20 8q18 0 23 -8q1 0 10 -19l17 4q0 3 -1.5 6t-3 7t-2.5 6q-6 8 -18 14 q-6 4 -25 4q-16 0 -24 -4q-11 -4 -14 -12q-7 -11 -7 -19q0 -9 7 -16q2 -7 12 -12q2 -5 24 -9q6 -2 14.5 -3.5t10.5 -2.5t5 -4t5 -4q2 -2 2 -10t-2 -10q-8 -8 -10 -9q-6 -2 -21 -2q-3 0 -18 5q-4 0 -12 8q0 1 -3 7t-3 9h-17zM1176 106h96v13h-78v45h72v16h-72v41h74v12h-92 v-127zM1196 35q0 -4 1 -7.5t2.5 -8l2.5 -7.5q1 -2 5.5 -7.5t6.5 -8.5q16 -4 23 -4q12 0 20 4q10 7 15 16q4 6 4 25q0 16 -2 20q-12 16 -17 17q-12 6 -20 6q-20 0 -29 -12q-12 -9 -12 -33zM1196 35q0 -4 1 -7.5t2.5 -8l2.5 -7.5q1 -2 5.5 -7.5t6.5 -8.5q16 -4 23 -4 q12 0 20 4q10 7 15 16q4 6 4 25q0 16 -2 20q-12 16 -17 17q-12 6 -20 6q-20 0 -29 -12q-12 -9 -12 -33zM1196 35q0 -4 1 -7.5t2.5 -8l2.5 -7.5q1 -2 5.5 -7.5t6.5 -8.5q16 -4 23 -4q12 0 20 4q10 7 15 16q4 6 4 25q0 16 -2 20q-12 16 -17 17q-12 6 -20 6q-20 0 -29 -12 q-12 -9 -12 -33zM1208 35q0 18 11 26q7 7 18 7q10 0 16 -2q6 -3 11 -13q2 -6 2 -16q0 -21 -9 -27q-5 -8 -20 -8t-23 8q-6 6 -6 25zM1208 35q0 18 11 26q7 7 18 7q10 0 16 -2q6 -3 11 -13q2 -6 2 -16q0 -21 -9 -27q-5 -8 -20 -8t-23 8q-6 6 -6 25zM1208 35q0 18 11 26 q7 7 18 7q10 0 16 -2q6 -3 11 -13q2 -6 2 -16q0 -21 -9 -27q-5 -8 -20 -8t-23 8q-6 6 -6 25zM1212 567v23h78v-23h-26v-139l-11 -8l-14 8v139h-27zM1288 221h41v-115h17v115h43v12h-101v-12zM1288 260h94v16h-75v43h67v15h-67v41h73v12h-92v-127zM1292 -6h11v72l24 -72h10 l25 69v-69h10v86h-16l-19 -62q-4 -12 -4 -14q0 2 -2 6.5t-2 7.5l-20 62h-17v-86zM1292 -6h11v72l24 -72h10l25 69v-69h10v86h-16l-19 -62q-4 -12 -4 -14q0 2 -2 6.5t-2 7.5l-20 62h-17v-86zM1292 -6h11v72l24 -72h10l25 69v-69h10v86h-16l-19 -62q-4 -12 -4 -14q0 2 -2 6.5 t-2 7.5l-20 62h-17v-86zM1309 473l8 8l12 -6q3 -15 7 -20.5t12 -5.5q16 0 16 18q0 12 -21 33q-18 18 -26 28q-8 16 -8 25q0 41 39 41q38 0 38 -39l-22 -4q-3 20 -16 20t-13 -18q0 -17 33 -43q21 -21 21 -39q0 -24 -9 -33.5t-32 -9.5q-39 0 -39 45z" />
<glyph unicode="8" horiz-adv-x="1394" d="M4 170q0 -22 8 -35q2 -11 19 -24q18 -9 35 -9q18 0 34 13q16 12 19 30l-17 7q-2 -10 -12 -25q-10 -10 -27 -10q-11 0 -22 8q-9 4 -12 18q-6 8 -6 27t2 27q5 10 16 18q8 8 25 8q15 0 20 -8q6 -2 14 -18l17 2q-6 21 -21 26q-8 11 -30 11q-18 0 -33 -9q-15 -7 -21 -20 q-8 -13 -8 -37zM6 80l25 -86h10l18 63q0 7 4 11q0 -2 3 -11l16 -63h10l25 86h-13l-12 -57q-4 -16 -6 -19q0 7 -4 31l-14 45h-13l-16 -60q0 -6 -2 -16q-2 3 -6 19l-11 57h-14zM6 80l25 -86h10l18 63q0 7 4 11q0 -2 3 -11l16 -63h10l25 86h-13l-12 -57q-4 -16 -6 -19 q0 7 -4 31l-14 45h-13l-16 -60q0 -6 -2 -16q-2 3 -6 19l-11 57h-14zM6 80l25 -86h10l18 63q0 7 4 11q0 -2 3 -11l16 -63h10l25 86h-13l-12 -57q-4 -16 -6 -19q0 7 -4 31l-14 45h-13l-16 -60q0 -6 -2 -16q-2 3 -6 19l-11 57h-14zM10 578l6 12h39q41 0 41 -45q0 -25 -18 -31 q22 -9 22 -39q0 -47 -37 -47h-47v139zM16 260h21v53h31q30 0 36 11q13 13 13 30q0 11 -4 15q-1 4 -11 14q-12 4 -16 4h-18h-52v-127zM37 330v45h31q14 0 16 -2q4 0 10 -6q0 -1 3 -7t3 -10q0 -8 -8 -16q-6 -4 -24 -4h-31zM43 453h12q19 0 19 22q0 27 -19 27h-12v-49zM43 524 h12q15 0 15 21q0 22 -15 22h-12v-43zM119 80l24 -86h11l18 63q0 7 2 11q0 -5 2 -11l17 -63h10l24 86h-10l-14 -57q-1 -4 -2 -10t-2 -9q0 13 -6 31l-13 45h-14l-16 -60q0 -1 -3 -16q-1 3 -2 9t-2 10l-12 57h-12zM119 80l24 -86h11l18 63q0 7 2 11q0 -5 2 -11l17 -63h10l24 86 h-10l-14 -57q-1 -4 -2 -10t-2 -9q0 13 -6 31l-13 45h-14l-16 -60q0 -1 -3 -16q-1 3 -2 9t-2 10l-12 57h-12zM119 80l24 -86h11l18 63q0 7 2 11q0 -5 2 -11l17 -63h10l24 86h-10l-14 -57q-1 -4 -2 -10t-2 -9q0 13 -6 31l-13 45h-14l-16 -60q0 -1 -3 -16q-1 3 -2 9t-2 10 l-12 57h-12zM121 428v162h24v-162l-14 -8zM135 168q0 -20 8 -33q6 -15 21 -24q23 -9 33 -9q12 0 30 9q17 10 25 24q8 20 8 35t-8 35q-9 15 -23 22q-15 9 -32 9q-29 0 -43 -19q-19 -14 -19 -49zM137 260h96v16h-77v43h69v15h-69v41h73v12h-92v-127zM154 168q0 31 12 41 q14 14 31 14t22 -8q13 -3 17 -18q6 -24 6 -27q0 -22 -15 -37q-11 -16 -30 -16q-18 0 -33 12q-10 15 -10 39zM170 428v162l10 10l13 -10v-137h43v-25h-66zM229 80l23 -86h12l19 63q0 7 4 11q0 -5 2 -11l16 -63h10l25 86h-10l-15 -57q-4 -16 -6 -19q0 7 -4 31l-14 45h-12 l-17 -60l-1 -5q-1 -5 -1 -11q-2 3 -6 19l-12 57h-13zM229 80l23 -86h12l19 63q0 7 4 11q0 -5 2 -11l16 -63h10l25 86h-10l-15 -57q-4 -16 -6 -19q0 7 -4 31l-14 45h-12l-17 -60l-1 -5q-1 -5 -1 -11q-2 3 -6 19l-12 57h-13zM229 80l23 -86h12l19 63q0 7 4 11q0 -5 2 -11 l16 -63h10l25 86h-10l-15 -57q-4 -16 -6 -19q0 7 -4 31l-14 45h-12l-17 -60l-1 -5q-1 -5 -1 -11q-2 3 -6 19l-12 57h-13zM252 428v162l10 10l14 -10v-137h41v-25h-65zM256 260h20v59h19q8 0 10 -4q4 0 8 -2q1 0 4 -3.5t5 -4.5l4 -7q5 -6 6 -11l18 -27h21l-23 35q-4 8 -14 18 q-1 1 -4 2.5t-6 3.5q18 3 28 13q8 8 8 22q0 5 -4 21q-5 7 -14 10q-8 2 -27 2h-59v-127zM276 332v43h39q15 0 21 -6t6 -15q0 -8 -2 -12q-4 -2 -10 -8q-4 -2 -21 -2h-33zM281 106h16v109l37 -109h16l37 107v-107h16v127h-20l-33 -88q-3 -15 -8 -20q0 6 -6 18l-31 90h-24v-127z M305 590h27l18 -58l19 58h26l-33 -92v-70h-22v70zM342 1067l254 27l106 233l103 -231l254 -29l-187 -170l50 -254l-220 129l-225 -129l53 248zM344 4v-10h14v10h-14zM344 4v-10h14v10h-14zM344 4v-10h14v10h-14zM377 -6h33h12l4 2q3 2 4 4q5 0 8 8l1 3q1 3 1 7q0 5 -4 13 q-6 6 -12 8q5 0 8 8q4 2 4 8q0 9 -4 13q-3 6 -10 8q-1 0 -5.5 2t-6.5 2h-33v-86zM377 -6h33h12l4 2q3 2 4 4q5 0 8 8l1 3q1 3 1 7q0 5 -4 13q-6 6 -12 8q5 0 8 8q4 2 4 8q0 9 -4 13q-3 6 -10 8q-1 0 -5.5 2t-6.5 2h-33v-86zM377 -6h33h12l4 2q3 2 4 4q5 0 8 8l1 3q1 3 1 7 q0 5 -4 13q-6 6 -12 8q5 0 8 8q4 2 4 8q0 9 -4 13q-3 6 -10 8q-1 0 -5.5 2t-6.5 2h-33v-86zM383 303q0 -8 4 -24q5 -6 19 -17q16 -4 30 -4q11 0 27 4q1 2 6.5 7t7.5 10q6 9 6 18q0 12 -6 18q-1 3 -3 5t-5.5 5t-5.5 5q-12 0 -31 8q-20 3 -22 8q-7 2 -7 10q0 10 7 13q5 8 22 8 q15 0 23 -8q6 -3 10 -19l16 4q0 7 -8 19q-4 8 -16 14q-8 4 -25 4q-18 0 -22 -4q-14 -4 -17 -12q-6 -6 -6 -19q0 -10 2 -16q3 -5 14 -12q10 -7 27 -9q4 -2 9 -3t8 -1.5t4 -1.5q9 -3 14 -8q2 -2 2 -10q0 -1 -1 -5t-1 -5q-3 -5 -14 -9q-2 -2 -15 -2q-5 0 -20 5q-5 0 -13 8 q-1 2 -3.5 7.5t-2.5 8.5h-14zM387 2v29h19h14q4 0 4 -4q4 -4 4 -9v-8q-4 -2 -6 -6h-6q-2 -2 -6 -2h-23zM387 2v29h19h14q4 0 4 -4q4 -4 4 -9v-8q-4 -2 -6 -6h-6q-2 -2 -6 -2h-23zM387 2v29h19h14q4 0 4 -4q4 -4 4 -9v-8q-4 -2 -6 -6h-6q-2 -2 -6 -2h-23zM387 41v27h16 q11 0 13 -2l6 -3q2 -2 2 -8t-2 -8q0 -2 -6 -2q-2 -4 -10 -4h-19zM387 41v27h16q11 0 13 -2l6 -3q2 -2 2 -8t-2 -8q0 -2 -6 -2q-2 -4 -10 -4h-19zM387 41v27h16q11 0 13 -2l6 -3q2 -2 2 -8t-2 -8q0 -2 -6 -2q-2 -4 -10 -4h-19zM430 428l27 162h35l26 -162l-14 -8l-12 8l-7 37 h-22l-8 -37l-15 -8zM432 106h17v54h32q29 0 39 10q10 13 10 27q0 6 -4 18q-7 11 -10 12q-6 6 -16 6h-19h-49v-127zM449 172v49h32q13 0 15 -4q6 0 14 -8q2 -2 2 -12q0 -14 -8 -17q-3 -8 -21 -8h-34zM457 -6h10v86h-10v-86zM457 -6h10v86h-10v-86zM457 -6h10v86h-10v-86z M465 489h18l-10 64zM489 -6h50v8h-39v78h-11v-86zM489 -6h50v8h-39v78h-11v-86zM489 -6h50v8h-39v78h-11v-86zM502 324q0 -20 8 -31q2 -14 20 -25q13 -10 33 -10q17 0 33 8q10 7 20 23q9 18 9 35q0 19 -9 34q-12 20 -20 25q-24 8 -33 8q-27 0 -45 -18q-16 -19 -16 -49z M518 324q0 29 12 41q18 12 33 12q14 0 25 -8q6 -3 12 -15q6 -8 6 -30q0 -24 -10 -37q-13 -13 -33 -13t-33 13q-12 12 -12 37zM530 580l9 10h36q41 0 41 -37v-25q0 -15 -16 -28l18 -72h-26l-12 61h-17v-61h-24v141zM553 -6h53v8h-41v78h-12v-86zM553 -6h53v8h-41v78h-12v-86z M553 -6h53v8h-41v78h-12v-86zM553 106h80v13h-64v114h-16v-127zM563 516h12q9 0 12 2.5t3 9.5v25q0 14 -15 14h-12v-51zM602 80l33 -51v-35h10v35l35 51h-12l-17 -27q-3 -3 -6 -8t-4 -6q-4 2 -8 14l-17 27h-14zM602 80l33 -51v-35h10v35l35 51h-12l-17 -27q-3 -3 -6 -8 t-4 -6q-4 2 -8 14l-17 27h-14zM602 80l33 -51v-35h10v35l35 51h-12l-17 -27q-3 -3 -6 -8t-4 -6q-4 2 -8 14l-17 27h-14zM602 786l31 -18l26 18l13 80h53l14 -80l29 -18l27 18l-60 353h-71zM637 465v88q0 41 39 41t39 -41v-18h-27v20q0 14 -12 14q-14 0 -14 -14v-90 q0 -12 14 -12q12 0 12 12v33h-12l-8 10l8 12h39v-55q0 -39 -39 -39t-39 39zM645 260h17v100l69 -100h17v127h-17v-98l-67 98h-19v-127zM653 106h97v13h-80v45h71v16h-71v41h78v12h-95v-127zM672 -6h10l12 24h35l10 -24h13l-35 86h-12zM672 -6h10l12 24h35l10 -24h13l-35 86 h-12zM672 -6h10l12 24h35l10 -24h13l-35 86h-12zM680 918l18 139l23 -139h-41zM696 29l9 24q4 8 4 15q2 -2 4 -8t2 -7l10 -24h-29zM696 29l9 24q4 8 4 15q2 -2 4 -8t2 -7l10 -24h-29zM696 29l9 24q4 8 4 15q2 -2 4 -8t2 -7l10 -24h-29zM729 580l6 10h70v-23h-45v-47h35v-22 h-35v-45h45v-25h-70v139zM760 -6h10v37h14h4l7 -2l3 -2q3 -2 3 -4q1 -1 3.5 -6t4.5 -7l12 -16h15l-17 20q-6 9 -8 15q-1 0 -1.5 0.5t-2 1t-4.5 0.5q3 2 7.5 3.5t7 2.5t3.5 2q6 6 6 16q0 9 -4 13q-3 5 -8 8q-2 0 -8 2t-10 2h-37v-86zM760 -6h10v37h14h4l7 -2l3 -2q3 -2 3 -4 q1 -1 3.5 -6t4.5 -7l12 -16h15l-17 20q-6 9 -8 15q-1 0 -1.5 0.5t-2 1t-4.5 0.5q3 2 7.5 3.5t7 2.5t3.5 2q6 6 6 16q0 9 -4 13q-3 5 -8 8q-2 0 -8 2t-10 2h-37v-86zM760 -6h10v37h14h4l7 -2l3 -2q3 -2 3 -4q1 -1 3.5 -6t4.5 -7l12 -16h15l-17 20q-6 9 -8 15q-1 0 -1.5 0.5 t-2 1t-4.5 0.5q3 2 7.5 3.5t7 2.5t3.5 2q6 6 6 16q0 9 -4 13q-3 5 -8 8q-2 0 -8 2t-10 2h-37v-86zM762 221h43v-115h18v115h43v12h-104v-12zM762 260h16l17 41h53l14 -41h21l-54 127h-18zM770 39v29h27q12 0 14 -2q4 -4 4 -11q0 -6 -2 -8q0 -6 -4 -6q-2 0 -6.5 -1t-7.5 -1 h-25zM770 39v29h27q12 0 14 -2q4 -4 4 -11q0 -6 -2 -8q0 -6 -4 -6q-2 0 -6.5 -1t-7.5 -1h-25zM770 39v29h27q12 0 14 -2q4 -4 4 -11q0 -6 -2 -8q0 -6 -4 -6q-2 0 -6.5 -1t-7.5 -1h-25zM797 313l16 37q6 24 6 25q8 -23 10 -27l13 -35h-45zM823 428v162l13 10l12 -10v-137h43 v-25h-68zM842 35q0 -4 1 -7.5t2.5 -8l2.5 -7.5q1 -5 16 -16q8 -4 21 -4q3 0 9.5 1t8.5 1q10 4 17 10v33h-35v-10h24v-17q-1 -1 -4.5 -2.5t-5.5 -3.5q-6 -2 -14 -2q-11 0 -17 2q-2 2 -10 14q-4 4 -4 19q0 2 1 7.5t1 8.5q6 6 6 8q6 5 10 7h13h10q8 -3 8 -7q6 -6 6 -8l11 2 q-2 6 -9 13q-3 6 -10 8q-6 4 -16 4q-5 0 -23 -6q-11 -4 -14 -17q0 -1 -3 -8.5t-3 -13.5zM842 35q0 -4 1 -7.5t2.5 -8l2.5 -7.5q1 -5 16 -16q8 -4 21 -4q3 0 9.5 1t8.5 1q10 4 17 10v33h-35v-10h24v-17q-1 -1 -4.5 -2.5t-5.5 -3.5q-6 -2 -14 -2q-11 0 -17 2q-2 2 -10 14 q-4 4 -4 19q0 2 1 7.5t1 8.5q6 6 6 8q6 5 10 7h13h10q8 -3 8 -7q6 -6 6 -8l11 2q-2 6 -9 13q-3 6 -10 8q-6 4 -16 4q-5 0 -23 -6q-11 -4 -14 -17q0 -1 -3 -8.5t-3 -13.5zM842 35q0 -4 1 -7.5t2.5 -8l2.5 -7.5q1 -5 16 -16q8 -4 21 -4q3 0 9.5 1t8.5 1q10 4 17 10v33h-35v-10 h24v-17q-1 -1 -4.5 -2.5t-5.5 -3.5q-6 -2 -14 -2q-11 0 -17 2q-2 2 -10 14q-4 4 -4 19q0 2 1 7.5t1 8.5q6 6 6 8q6 5 10 7h13h10q8 -3 8 -7q6 -6 6 -8l11 2q-2 6 -9 13q-3 6 -10 8q-6 4 -16 4q-5 0 -23 -6q-11 -4 -14 -17q0 -1 -3 -8.5t-3 -13.5zM885 106h96v13h-80v45h72 v16h-72v41h78v12h-94v-127zM893 260h82v16h-64v111h-18v-127zM915 580l7 10h69v-23h-43v-47h33v-22h-33v-70h-26v139zM938 -6h61v8h-51v29h47v10h-47v27h51v12h-61v-86zM938 -6h61v8h-51v29h47v10h-47v27h51v12h-61v-86zM938 -6h61v8h-51v29h47v10h-47v27h51v12h-61v-86z M1010 465v90q0 39 39 39q38 0 38 -39v-90q0 -37 -38 -37q-39 0 -39 37zM1016 -6h53v8h-43v78h-10v-86zM1016 -6h53v8h-43v78h-10v-86zM1016 -6h53v8h-43v78h-10v-86zM1034 465q0 -12 15 -12q12 0 12 12v90q0 14 -12 14q-15 0 -15 -14v-90zM1040 315q0 -26 2 -30 q13 -18 19 -19q8 -8 29 -8q19 0 30 8q12 6 15 19q4 8 4 30v72h-17v-72q0 -26 -8 -34q-10 -7 -27 -7q-3 0 -18 5q-6 2 -10 10q-4 6 -4 26v72h-15v-72zM1051 145q0 -12 4 -20q10 -14 20 -16q21 -7 29 -7q6 0 15.5 3.5t10.5 3.5q10 5 17 12q4 6 4 20q0 13 -4 19q-10 10 -17 12 q-20 7 -28 8q-6 2 -12 4.5t-9 3.5t-4 2q-6 4 -6 11q0 8 6 14q4 6 25 6q14 0 20 -6q7 -2 11 -18l16 2q0 13 -8 18q-2 6 -17 14q-10 5 -22 5q-19 0 -25 -3q-3 -2 -7 -4.5t-6 -4t-3 -3.5q-8 -8 -8 -20t6 -15q3 -10 12 -14q2 -1 11 -3.5t16 -4.5q20 -4 22 -4q2 -2 7 -4.5t6 -3.5 q2 -4 2 -11q0 -8 -2 -12q-4 -8 -11 -8q-6 -2 -18 -2q-15 0 -19 2q-9 5 -14 12q-4 4 -4 14zM1081 4v-10h15v10h-15zM1081 4v-10h15v10h-15zM1081 4v-10h15v10h-15zM1102 580l6 10h31l30 -109v109h25v-162h-27l-34 104v-104h-25v141zM1112 37q0 -9 4 -25q1 -1 5 -6.5t9 -9.5 q8 -4 21 -4q15 0 23 8q9 4 12 20l-10 3q-2 -8 -9 -15q-6 -6 -16 -6t-16 2l-7 14q-6 6 -6 19q0 2 1 7.5t1 8.5q1 1 5 6.5t6 6.5q4 2 16 2q10 0 14 -2q9 -4 9 -13l12 2q0 2 -12 19q-18 6 -23 6q-4 0 -7 -1t-7 -2.5t-7 -2.5q-2 0 -14 -13q-4 -16 -4 -24zM1112 37q0 -9 4 -25 q1 -1 5 -6.5t9 -9.5q8 -4 21 -4q15 0 23 8q9 4 12 20l-10 3q-2 -8 -9 -15q-6 -6 -16 -6t-16 2l-7 14q-6 6 -6 19q0 2 1 7.5t1 8.5q1 1 5 6.5t6 6.5q4 2 16 2q10 0 14 -2q9 -4 9 -13l12 2q0 2 -12 19q-18 6 -23 6q-4 0 -7 -1t-7 -2.5t-7 -2.5q-2 0 -14 -13q-4 -16 -4 -24z M1112 37q0 -9 4 -25q1 -1 5 -6.5t9 -9.5q8 -4 21 -4q15 0 23 8q9 4 12 20l-10 3q-2 -8 -9 -15q-6 -6 -16 -6t-16 2l-7 14q-6 6 -6 19q0 2 1 7.5t1 8.5q1 1 5 6.5t6 6.5q4 2 16 2q10 0 14 -2q9 -4 9 -13l12 2q0 2 -12 19q-18 6 -23 6q-4 0 -7 -1t-7 -2.5t-7 -2.5 q-2 0 -14 -13q-4 -16 -4 -24zM1161 303q0 -8 8 -24q2 -5 9.5 -10t9.5 -7q16 -4 31 -4q10 0 22 4q14 11 16 17q7 7 7 18q0 13 -7 18q-1 4 -16 15q-8 0 -29 8q-19 3 -24 8q-4 4 -4 10q0 10 8 13q3 8 20 8q18 0 23 -8q1 0 10 -19l17 4q0 3 -1.5 6t-3 7t-2.5 6q-6 8 -18 14 q-6 4 -25 4q-16 0 -24 -4q-11 -4 -14 -12q-7 -11 -7 -19q0 -9 7 -16q2 -7 12 -12q2 -5 24 -9q6 -2 14.5 -3.5t10.5 -2.5t5 -4t5 -4q2 -2 2 -10t-2 -10q-8 -8 -10 -9q-6 -2 -21 -2q-3 0 -18 5q-4 0 -12 8q0 1 -3 7t-3 9h-17zM1176 106h96v13h-78v45h72v16h-72v41h74v12h-92 v-127zM1196 35q0 -4 1 -7.5t2.5 -8l2.5 -7.5q1 -2 5.5 -7.5t6.5 -8.5q16 -4 23 -4q12 0 20 4q10 7 15 16q4 6 4 25q0 16 -2 20q-12 16 -17 17q-12 6 -20 6q-20 0 -29 -12q-12 -9 -12 -33zM1196 35q0 -4 1 -7.5t2.5 -8l2.5 -7.5q1 -2 5.5 -7.5t6.5 -8.5q16 -4 23 -4 q12 0 20 4q10 7 15 16q4 6 4 25q0 16 -2 20q-12 16 -17 17q-12 6 -20 6q-20 0 -29 -12q-12 -9 -12 -33zM1196 35q0 -4 1 -7.5t2.5 -8l2.5 -7.5q1 -2 5.5 -7.5t6.5 -8.5q16 -4 23 -4q12 0 20 4q10 7 15 16q4 6 4 25q0 16 -2 20q-12 16 -17 17q-12 6 -20 6q-20 0 -29 -12 q-12 -9 -12 -33zM1208 35q0 18 11 26q7 7 18 7q10 0 16 -2q6 -3 11 -13q2 -6 2 -16q0 -21 -9 -27q-5 -8 -20 -8t-23 8q-6 6 -6 25zM1208 35q0 18 11 26q7 7 18 7q10 0 16 -2q6 -3 11 -13q2 -6 2 -16q0 -21 -9 -27q-5 -8 -20 -8t-23 8q-6 6 -6 25zM1208 35q0 18 11 26 q7 7 18 7q10 0 16 -2q6 -3 11 -13q2 -6 2 -16q0 -21 -9 -27q-5 -8 -20 -8t-23 8q-6 6 -6 25zM1212 567v23h78v-23h-26v-139l-11 -8l-14 8v139h-27zM1288 221h41v-115h17v115h43v12h-101v-12zM1288 260h94v16h-75v43h67v15h-67v41h73v12h-92v-127zM1292 -6h11v72l24 -72h10 l25 69v-69h10v86h-16l-19 -62q-4 -12 -4 -14q0 2 -2 6.5t-2 7.5l-20 62h-17v-86zM1292 -6h11v72l24 -72h10l25 69v-69h10v86h-16l-19 -62q-4 -12 -4 -14q0 2 -2 6.5t-2 7.5l-20 62h-17v-86zM1292 -6h11v72l24 -72h10l25 69v-69h10v86h-16l-19 -62q-4 -12 -4 -14q0 2 -2 6.5 t-2 7.5l-20 62h-17v-86zM1309 473l8 8l12 -6q3 -15 7 -20.5t12 -5.5q16 0 16 18q0 12 -21 33q-18 18 -26 28q-8 16 -8 25q0 41 39 41q38 0 38 -39l-22 -4q-3 20 -16 20t-13 -18q0 -17 33 -43q21 -21 21 -39q0 -24 -9 -33.5t-32 -9.5q-39 0 -39 45z" />
<glyph unicode="9" horiz-adv-x="1394" d="M4 170q0 -22 8 -35q2 -11 19 -24q18 -9 35 -9q18 0 34 13q16 12 19 30l-17 7q-2 -10 -12 -25q-10 -10 -27 -10q-11 0 -22 8q-9 4 -12 18q-6 8 -6 27t2 27q5 10 16 18q8 8 25 8q15 0 20 -8q6 -2 14 -18l17 2q-6 21 -21 26q-8 11 -30 11q-18 0 -33 -9q-15 -7 -21 -20 q-8 -13 -8 -37zM6 80l25 -86h10l18 63q0 7 4 11q0 -2 3 -11l16 -63h10l25 86h-13l-12 -57q-4 -16 -6 -19q0 7 -4 31l-14 45h-13l-16 -60q0 -6 -2 -16q-2 3 -6 19l-11 57h-14zM6 80l25 -86h10l18 63q0 7 4 11q0 -2 3 -11l16 -63h10l25 86h-13l-12 -57q-4 -16 -6 -19 q0 7 -4 31l-14 45h-13l-16 -60q0 -6 -2 -16q-2 3 -6 19l-11 57h-14zM6 80l25 -86h10l18 63q0 7 4 11q0 -2 3 -11l16 -63h10l25 86h-13l-12 -57q-4 -16 -6 -19q0 7 -4 31l-14 45h-13l-16 -60q0 -6 -2 -16q-2 3 -6 19l-11 57h-14zM10 578l6 12h39q41 0 41 -45q0 -25 -18 -31 q22 -9 22 -39q0 -47 -37 -47h-47v139zM16 260h21v53h31q30 0 36 11q13 13 13 30q0 11 -4 15q-1 4 -11 14q-12 4 -16 4h-18h-52v-127zM37 330v45h31q14 0 16 -2q4 0 10 -6q0 -1 3 -7t3 -10q0 -8 -8 -16q-6 -4 -24 -4h-31zM43 453h12q19 0 19 22q0 27 -19 27h-12v-49zM43 524 h12q15 0 15 21q0 22 -15 22h-12v-43zM119 80l24 -86h11l18 63q0 7 2 11q0 -5 2 -11l17 -63h10l24 86h-10l-14 -57q-1 -4 -2 -10t-2 -9q0 13 -6 31l-13 45h-14l-16 -60q0 -1 -3 -16q-1 3 -2 9t-2 10l-12 57h-12zM119 80l24 -86h11l18 63q0 7 2 11q0 -5 2 -11l17 -63h10l24 86 h-10l-14 -57q-1 -4 -2 -10t-2 -9q0 13 -6 31l-13 45h-14l-16 -60q0 -1 -3 -16q-1 3 -2 9t-2 10l-12 57h-12zM119 80l24 -86h11l18 63q0 7 2 11q0 -5 2 -11l17 -63h10l24 86h-10l-14 -57q-1 -4 -2 -10t-2 -9q0 13 -6 31l-13 45h-14l-16 -60q0 -1 -3 -16q-1 3 -2 9t-2 10 l-12 57h-12zM121 428v162h24v-162l-14 -8zM135 168q0 -20 8 -33q6 -15 21 -24q23 -9 33 -9q12 0 30 9q17 10 25 24q8 20 8 35t-8 35q-9 15 -23 22q-15 9 -32 9q-29 0 -43 -19q-19 -14 -19 -49zM137 260h96v16h-77v43h69v15h-69v41h73v12h-92v-127zM154 168q0 31 12 41 q14 14 31 14t22 -8q13 -3 17 -18q6 -24 6 -27q0 -22 -15 -37q-11 -16 -30 -16q-18 0 -33 12q-10 15 -10 39zM170 428v162l10 10l13 -10v-137h43v-25h-66zM229 80l23 -86h12l19 63q0 7 4 11q0 -5 2 -11l16 -63h10l25 86h-10l-15 -57q-4 -16 -6 -19q0 7 -4 31l-14 45h-12 l-17 -60l-1 -5q-1 -5 -1 -11q-2 3 -6 19l-12 57h-13zM229 80l23 -86h12l19 63q0 7 4 11q0 -5 2 -11l16 -63h10l25 86h-10l-15 -57q-4 -16 -6 -19q0 7 -4 31l-14 45h-12l-17 -60l-1 -5q-1 -5 -1 -11q-2 3 -6 19l-12 57h-13zM229 80l23 -86h12l19 63q0 7 4 11q0 -5 2 -11 l16 -63h10l25 86h-10l-15 -57q-4 -16 -6 -19q0 7 -4 31l-14 45h-12l-17 -60l-1 -5q-1 -5 -1 -11q-2 3 -6 19l-12 57h-13zM252 428v162l10 10l14 -10v-137h41v-25h-65zM256 260h20v59h19q8 0 10 -4q4 0 8 -2q1 0 4 -3.5t5 -4.5l4 -7q5 -6 6 -11l18 -27h21l-23 35q-4 8 -14 18 q-1 1 -4 2.5t-6 3.5q18 3 28 13q8 8 8 22q0 5 -4 21q-5 7 -14 10q-8 2 -27 2h-59v-127zM276 332v43h39q15 0 21 -6t6 -15q0 -8 -2 -12q-4 -2 -10 -8q-4 -2 -21 -2h-33zM281 106h16v109l37 -109h16l37 107v-107h16v127h-20l-33 -88q-3 -15 -8 -20q0 6 -6 18l-31 90h-24v-127z M305 590h27l18 -58l19 58h26l-33 -92v-70h-22v70zM342 1067l254 27l106 233l103 -231l254 -29l-187 -170l50 -254l-220 129l-225 -129l53 248zM344 4v-10h14v10h-14zM344 4v-10h14v10h-14zM344 4v-10h14v10h-14zM377 -6h33h12l4 2q3 2 4 4q5 0 8 8l1 3q1 3 1 7q0 5 -4 13 q-6 6 -12 8q5 0 8 8q4 2 4 8q0 9 -4 13q-3 6 -10 8q-1 0 -5.5 2t-6.5 2h-33v-86zM377 -6h33h12l4 2q3 2 4 4q5 0 8 8l1 3q1 3 1 7q0 5 -4 13q-6 6 -12 8q5 0 8 8q4 2 4 8q0 9 -4 13q-3 6 -10 8q-1 0 -5.5 2t-6.5 2h-33v-86zM377 -6h33h12l4 2q3 2 4 4q5 0 8 8l1 3q1 3 1 7 q0 5 -4 13q-6 6 -12 8q5 0 8 8q4 2 4 8q0 9 -4 13q-3 6 -10 8q-1 0 -5.5 2t-6.5 2h-33v-86zM383 303q0 -8 4 -24q5 -6 19 -17q16 -4 30 -4q11 0 27 4q1 2 6.5 7t7.5 10q6 9 6 18q0 12 -6 18q-1 3 -3 5t-5.5 5t-5.5 5q-12 0 -31 8q-20 3 -22 8q-7 2 -7 10q0 10 7 13q5 8 22 8 q15 0 23 -8q6 -3 10 -19l16 4q0 7 -8 19q-4 8 -16 14q-8 4 -25 4q-18 0 -22 -4q-14 -4 -17 -12q-6 -6 -6 -19q0 -10 2 -16q3 -5 14 -12q10 -7 27 -9q4 -2 9 -3t8 -1.5t4 -1.5q9 -3 14 -8q2 -2 2 -10q0 -1 -1 -5t-1 -5q-3 -5 -14 -9q-2 -2 -15 -2q-5 0 -20 5q-5 0 -13 8 q-1 2 -3.5 7.5t-2.5 8.5h-14zM387 2v29h19h14q4 0 4 -4q4 -4 4 -9v-8q-4 -2 -6 -6h-6q-2 -2 -6 -2h-23zM387 2v29h19h14q4 0 4 -4q4 -4 4 -9v-8q-4 -2 -6 -6h-6q-2 -2 -6 -2h-23zM387 2v29h19h14q4 0 4 -4q4 -4 4 -9v-8q-4 -2 -6 -6h-6q-2 -2 -6 -2h-23zM387 41v27h16 q11 0 13 -2l6 -3q2 -2 2 -8t-2 -8q0 -2 -6 -2q-2 -4 -10 -4h-19zM387 41v27h16q11 0 13 -2l6 -3q2 -2 2 -8t-2 -8q0 -2 -6 -2q-2 -4 -10 -4h-19zM387 41v27h16q11 0 13 -2l6 -3q2 -2 2 -8t-2 -8q0 -2 -6 -2q-2 -4 -10 -4h-19zM430 428l27 162h35l26 -162l-14 -8l-12 8l-7 37 h-22l-8 -37l-15 -8zM432 106h17v54h32q29 0 39 10q10 13 10 27q0 6 -4 18q-7 11 -10 12q-6 6 -16 6h-19h-49v-127zM449 172v49h32q13 0 15 -4q6 0 14 -8q2 -2 2 -12q0 -14 -8 -17q-3 -8 -21 -8h-34zM457 -6h10v86h-10v-86zM457 -6h10v86h-10v-86zM457 -6h10v86h-10v-86z M465 489h18l-10 64zM489 -6h50v8h-39v78h-11v-86zM489 -6h50v8h-39v78h-11v-86zM489 -6h50v8h-39v78h-11v-86zM502 324q0 -20 8 -31q2 -14 20 -25q13 -10 33 -10q17 0 33 8q10 7 20 23q9 18 9 35q0 19 -9 34q-12 20 -20 25q-24 8 -33 8q-27 0 -45 -18q-16 -19 -16 -49z M518 324q0 29 12 41q18 12 33 12q14 0 25 -8q6 -3 12 -15q6 -8 6 -30q0 -24 -10 -37q-13 -13 -33 -13t-33 13q-12 12 -12 37zM530 580l9 10h36q41 0 41 -37v-25q0 -15 -16 -28l18 -72h-26l-12 61h-17v-61h-24v141zM553 -6h53v8h-41v78h-12v-86zM553 -6h53v8h-41v78h-12v-86z M553 -6h53v8h-41v78h-12v-86zM553 106h80v13h-64v114h-16v-127zM563 516h12q9 0 12 2.5t3 9.5v25q0 14 -15 14h-12v-51zM602 80l33 -51v-35h10v35l35 51h-12l-17 -27q-3 -3 -6 -8t-4 -6q-4 2 -8 14l-17 27h-14zM602 80l33 -51v-35h10v35l35 51h-12l-17 -27q-3 -3 -6 -8 t-4 -6q-4 2 -8 14l-17 27h-14zM602 80l33 -51v-35h10v35l35 51h-12l-17 -27q-3 -3 -6 -8t-4 -6q-4 2 -8 14l-17 27h-14zM602 786l31 -18l26 18l13 80h53l14 -80l29 -18l27 18l-60 353h-71zM637 465v88q0 41 39 41t39 -41v-18h-27v20q0 14 -12 14q-14 0 -14 -14v-90 q0 -12 14 -12q12 0 12 12v33h-12l-8 10l8 12h39v-55q0 -39 -39 -39t-39 39zM645 260h17v100l69 -100h17v127h-17v-98l-67 98h-19v-127zM653 106h97v13h-80v45h71v16h-71v41h78v12h-95v-127zM672 -6h10l12 24h35l10 -24h13l-35 86h-12zM672 -6h10l12 24h35l10 -24h13l-35 86 h-12zM672 -6h10l12 24h35l10 -24h13l-35 86h-12zM680 918l18 139l23 -139h-41zM696 29l9 24q4 8 4 15q2 -2 4 -8t2 -7l10 -24h-29zM696 29l9 24q4 8 4 15q2 -2 4 -8t2 -7l10 -24h-29zM696 29l9 24q4 8 4 15q2 -2 4 -8t2 -7l10 -24h-29zM729 580l6 10h70v-23h-45v-47h35v-22 h-35v-45h45v-25h-70v139zM760 -6h10v37h14h4l7 -2l3 -2q3 -2 3 -4q1 -1 3.5 -6t4.5 -7l12 -16h15l-17 20q-6 9 -8 15q-1 0 -1.5 0.5t-2 1t-4.5 0.5q3 2 7.5 3.5t7 2.5t3.5 2q6 6 6 16q0 9 -4 13q-3 5 -8 8q-2 0 -8 2t-10 2h-37v-86zM760 -6h10v37h14h4l7 -2l3 -2q3 -2 3 -4 q1 -1 3.5 -6t4.5 -7l12 -16h15l-17 20q-6 9 -8 15q-1 0 -1.5 0.5t-2 1t-4.5 0.5q3 2 7.5 3.5t7 2.5t3.5 2q6 6 6 16q0 9 -4 13q-3 5 -8 8q-2 0 -8 2t-10 2h-37v-86zM760 -6h10v37h14h4l7 -2l3 -2q3 -2 3 -4q1 -1 3.5 -6t4.5 -7l12 -16h15l-17 20q-6 9 -8 15q-1 0 -1.5 0.5 t-2 1t-4.5 0.5q3 2 7.5 3.5t7 2.5t3.5 2q6 6 6 16q0 9 -4 13q-3 5 -8 8q-2 0 -8 2t-10 2h-37v-86zM762 221h43v-115h18v115h43v12h-104v-12zM762 260h16l17 41h53l14 -41h21l-54 127h-18zM770 39v29h27q12 0 14 -2q4 -4 4 -11q0 -6 -2 -8q0 -6 -4 -6q-2 0 -6.5 -1t-7.5 -1 h-25zM770 39v29h27q12 0 14 -2q4 -4 4 -11q0 -6 -2 -8q0 -6 -4 -6q-2 0 -6.5 -1t-7.5 -1h-25zM770 39v29h27q12 0 14 -2q4 -4 4 -11q0 -6 -2 -8q0 -6 -4 -6q-2 0 -6.5 -1t-7.5 -1h-25zM797 313l16 37q6 24 6 25q8 -23 10 -27l13 -35h-45zM823 428v162l13 10l12 -10v-137h43 v-25h-68zM842 35q0 -4 1 -7.5t2.5 -8l2.5 -7.5q1 -5 16 -16q8 -4 21 -4q3 0 9.5 1t8.5 1q10 4 17 10v33h-35v-10h24v-17q-1 -1 -4.5 -2.5t-5.5 -3.5q-6 -2 -14 -2q-11 0 -17 2q-2 2 -10 14q-4 4 -4 19q0 2 1 7.5t1 8.5q6 6 6 8q6 5 10 7h13h10q8 -3 8 -7q6 -6 6 -8l11 2 q-2 6 -9 13q-3 6 -10 8q-6 4 -16 4q-5 0 -23 -6q-11 -4 -14 -17q0 -1 -3 -8.5t-3 -13.5zM842 35q0 -4 1 -7.5t2.5 -8l2.5 -7.5q1 -5 16 -16q8 -4 21 -4q3 0 9.5 1t8.5 1q10 4 17 10v33h-35v-10h24v-17q-1 -1 -4.5 -2.5t-5.5 -3.5q-6 -2 -14 -2q-11 0 -17 2q-2 2 -10 14 q-4 4 -4 19q0 2 1 7.5t1 8.5q6 6 6 8q6 5 10 7h13h10q8 -3 8 -7q6 -6 6 -8l11 2q-2 6 -9 13q-3 6 -10 8q-6 4 -16 4q-5 0 -23 -6q-11 -4 -14 -17q0 -1 -3 -8.5t-3 -13.5zM842 35q0 -4 1 -7.5t2.5 -8l2.5 -7.5q1 -5 16 -16q8 -4 21 -4q3 0 9.5 1t8.5 1q10 4 17 10v33h-35v-10 h24v-17q-1 -1 -4.5 -2.5t-5.5 -3.5q-6 -2 -14 -2q-11 0 -17 2q-2 2 -10 14q-4 4 -4 19q0 2 1 7.5t1 8.5q6 6 6 8q6 5 10 7h13h10q8 -3 8 -7q6 -6 6 -8l11 2q-2 6 -9 13q-3 6 -10 8q-6 4 -16 4q-5 0 -23 -6q-11 -4 -14 -17q0 -1 -3 -8.5t-3 -13.5zM885 106h96v13h-80v45h72 v16h-72v41h78v12h-94v-127zM893 260h82v16h-64v111h-18v-127zM915 580l7 10h69v-23h-43v-47h33v-22h-33v-70h-26v139zM938 -6h61v8h-51v29h47v10h-47v27h51v12h-61v-86zM938 -6h61v8h-51v29h47v10h-47v27h51v12h-61v-86zM938 -6h61v8h-51v29h47v10h-47v27h51v12h-61v-86z M1010 465v90q0 39 39 39q38 0 38 -39v-90q0 -37 -38 -37q-39 0 -39 37zM1016 -6h53v8h-43v78h-10v-86zM1016 -6h53v8h-43v78h-10v-86zM1016 -6h53v8h-43v78h-10v-86zM1034 465q0 -12 15 -12q12 0 12 12v90q0 14 -12 14q-15 0 -15 -14v-90zM1040 315q0 -26 2 -30 q13 -18 19 -19q8 -8 29 -8q19 0 30 8q12 6 15 19q4 8 4 30v72h-17v-72q0 -26 -8 -34q-10 -7 -27 -7q-3 0 -18 5q-6 2 -10 10q-4 6 -4 26v72h-15v-72zM1051 145q0 -12 4 -20q10 -14 20 -16q21 -7 29 -7q6 0 15.5 3.5t10.5 3.5q10 5 17 12q4 6 4 20q0 13 -4 19q-10 10 -17 12 q-20 7 -28 8q-6 2 -12 4.5t-9 3.5t-4 2q-6 4 -6 11q0 8 6 14q4 6 25 6q14 0 20 -6q7 -2 11 -18l16 2q0 13 -8 18q-2 6 -17 14q-10 5 -22 5q-19 0 -25 -3q-3 -2 -7 -4.5t-6 -4t-3 -3.5q-8 -8 -8 -20t6 -15q3 -10 12 -14q2 -1 11 -3.5t16 -4.5q20 -4 22 -4q2 -2 7 -4.5t6 -3.5 q2 -4 2 -11q0 -8 -2 -12q-4 -8 -11 -8q-6 -2 -18 -2q-15 0 -19 2q-9 5 -14 12q-4 4 -4 14zM1081 4v-10h15v10h-15zM1081 4v-10h15v10h-15zM1081 4v-10h15v10h-15zM1102 580l6 10h31l30 -109v109h25v-162h-27l-34 104v-104h-25v141zM1112 37q0 -9 4 -25q1 -1 5 -6.5t9 -9.5 q8 -4 21 -4q15 0 23 8q9 4 12 20l-10 3q-2 -8 -9 -15q-6 -6 -16 -6t-16 2l-7 14q-6 6 -6 19q0 2 1 7.5t1 8.5q1 1 5 6.5t6 6.5q4 2 16 2q10 0 14 -2q9 -4 9 -13l12 2q0 2 -12 19q-18 6 -23 6q-4 0 -7 -1t-7 -2.5t-7 -2.5q-2 0 -14 -13q-4 -16 -4 -24zM1112 37q0 -9 4 -25 q1 -1 5 -6.5t9 -9.5q8 -4 21 -4q15 0 23 8q9 4 12 20l-10 3q-2 -8 -9 -15q-6 -6 -16 -6t-16 2l-7 14q-6 6 -6 19q0 2 1 7.5t1 8.5q1 1 5 6.5t6 6.5q4 2 16 2q10 0 14 -2q9 -4 9 -13l12 2q0 2 -12 19q-18 6 -23 6q-4 0 -7 -1t-7 -2.5t-7 -2.5q-2 0 -14 -13q-4 -16 -4 -24z M1112 37q0 -9 4 -25q1 -1 5 -6.5t9 -9.5q8 -4 21 -4q15 0 23 8q9 4 12 20l-10 3q-2 -8 -9 -15q-6 -6 -16 -6t-16 2l-7 14q-6 6 -6 19q0 2 1 7.5t1 8.5q1 1 5 6.5t6 6.5q4 2 16 2q10 0 14 -2q9 -4 9 -13l12 2q0 2 -12 19q-18 6 -23 6q-4 0 -7 -1t-7 -2.5t-7 -2.5 q-2 0 -14 -13q-4 -16 -4 -24zM1161 303q0 -8 8 -24q2 -5 9.5 -10t9.5 -7q16 -4 31 -4q10 0 22 4q14 11 16 17q7 7 7 18q0 13 -7 18q-1 4 -16 15q-8 0 -29 8q-19 3 -24 8q-4 4 -4 10q0 10 8 13q3 8 20 8q18 0 23 -8q1 0 10 -19l17 4q0 3 -1.5 6t-3 7t-2.5 6q-6 8 -18 14 q-6 4 -25 4q-16 0 -24 -4q-11 -4 -14 -12q-7 -11 -7 -19q0 -9 7 -16q2 -7 12 -12q2 -5 24 -9q6 -2 14.5 -3.5t10.5 -2.5t5 -4t5 -4q2 -2 2 -10t-2 -10q-8 -8 -10 -9q-6 -2 -21 -2q-3 0 -18 5q-4 0 -12 8q0 1 -3 7t-3 9h-17zM1176 106h96v13h-78v45h72v16h-72v41h74v12h-92 v-127zM1196 35q0 -4 1 -7.5t2.5 -8l2.5 -7.5q1 -2 5.5 -7.5t6.5 -8.5q16 -4 23 -4q12 0 20 4q10 7 15 16q4 6 4 25q0 16 -2 20q-12 16 -17 17q-12 6 -20 6q-20 0 -29 -12q-12 -9 -12 -33zM1196 35q0 -4 1 -7.5t2.5 -8l2.5 -7.5q1 -2 5.5 -7.5t6.5 -8.5q16 -4 23 -4 q12 0 20 4q10 7 15 16q4 6 4 25q0 16 -2 20q-12 16 -17 17q-12 6 -20 6q-20 0 -29 -12q-12 -9 -12 -33zM1196 35q0 -4 1 -7.5t2.5 -8l2.5 -7.5q1 -2 5.5 -7.5t6.5 -8.5q16 -4 23 -4q12 0 20 4q10 7 15 16q4 6 4 25q0 16 -2 20q-12 16 -17 17q-12 6 -20 6q-20 0 -29 -12 q-12 -9 -12 -33zM1208 35q0 18 11 26q7 7 18 7q10 0 16 -2q6 -3 11 -13q2 -6 2 -16q0 -21 -9 -27q-5 -8 -20 -8t-23 8q-6 6 -6 25zM1208 35q0 18 11 26q7 7 18 7q10 0 16 -2q6 -3 11 -13q2 -6 2 -16q0 -21 -9 -27q-5 -8 -20 -8t-23 8q-6 6 -6 25zM1208 35q0 18 11 26 q7 7 18 7q10 0 16 -2q6 -3 11 -13q2 -6 2 -16q0 -21 -9 -27q-5 -8 -20 -8t-23 8q-6 6 -6 25zM1212 567v23h78v-23h-26v-139l-11 -8l-14 8v139h-27zM1288 221h41v-115h17v115h43v12h-101v-12zM1288 260h94v16h-75v43h67v15h-67v41h73v12h-92v-127zM1292 -6h11v72l24 -72h10 l25 69v-69h10v86h-16l-19 -62q-4 -12 -4 -14q0 2 -2 6.5t-2 7.5l-20 62h-17v-86zM1292 -6h11v72l24 -72h10l25 69v-69h10v86h-16l-19 -62q-4 -12 -4 -14q0 2 -2 6.5t-2 7.5l-20 62h-17v-86zM1292 -6h11v72l24 -72h10l25 69v-69h10v86h-16l-19 -62q-4 -12 -4 -14q0 2 -2 6.5 t-2 7.5l-20 62h-17v-86zM1309 473l8 8l12 -6q3 -15 7 -20.5t12 -5.5q16 0 16 18q0 12 -21 33q-18 18 -26 28q-8 16 -8 25q0 41 39 41q38 0 38 -39l-22 -4q-3 20 -16 20t-13 -18q0 -17 33 -43q21 -21 21 -39q0 -24 -9 -33.5t-32 -9.5q-39 0 -39 45z" />
<glyph unicode=":" horiz-adv-x="327" d="M82 184q0 59 14 84q141 0 158 -10q14 -77 14 -133q0 -58 -14 -96l-115 -25q-57 42 -57 180zM96 829v252l158 -22q16 -69 16 -125q0 -87 -43 -121q-26 10 -80 -2q-21 15 -51 18z" />
<glyph unicode=";" horiz-adv-x="327" d="M86 33q3 124 12 194q56 33 101 33q38 0 80 -31q1 -34 1 -88l3 -89v1q-3 -92 -35 -168v-84q-79 -62 -107 -69q-19 71 9 164l14 8l-17 82q-15 38 -61 47zM90 944q0 107 78 107q37 0 90 -35q0 -151 -6 -166q-15 -42 -111 -57q-51 68 -51 151z" />
<glyph unicode="&#x3c;" horiz-adv-x="630" d="M-23 670q33 10 48 73q12 0 18 -2q113 131 236 191q6 7 30.5 36.5t34 40t31.5 34t36.5 35t35 25t40.5 21.5q9 -7 16 -14.5t12.5 -18t9 -17t6 -20.5t4 -19t2 -22t0.5 -20.5v-23.5v-21q-37 -47 -52 -61q-7 -7 -55 -45q-52 -21 -111 -86q-66 -75 -100 -101q0 -45 4 -57 q6 -19 39 -33q16 -41 164 -186q125 -122 125 -209q0 -29 -12 -59q-16 -3 -50 -15q-200 105 -380 346q-68 47 -86 88q-17 40 -23 127q-9 -3 -16 -10q-7 17 -7 23zM27 582q4 -3 32 -31l15 20l-4 2q-19 12 -43 9zM51 614h45v11q-34 7 -45 8v-19zM51 670q17 7 45 10q0 8 -45 8 v-18zM115 715q35 7 47 8v12h-47v-20zM150 662h38v18q-38 -8 -38 -18zM154 508l8 -10l24 8q-8 2 -32 2zM205 395l41 23q-22 6 -41 -23zM360 934q12 6 23 6q0 11 6 23q-12 0 -20.5 -8.5t-8.5 -20.5zM545 498v26h26v-26h-26z" />
<glyph unicode="=" horiz-adv-x="757" d="M-23 793v18h39v-18h-39zM-10 618q0 8 4 48q12 6 22 6v-54h-26zM-10 715v51h16v-51h-16zM61 594q108 51 277 51q105 0 317 -31l9 -151q-62 -19 -228 -10l-280 -31q-73 30 -86 59q-6 15 -9 113zM66 918q76 43 221 43q41 0 188 -11q123 -14 170 -14q21 -34 21 -78 q0 -49 -29 -86l-299 1q19 1 57 1q-137 0 -239 -24q-84 47 -86 51q-4 12 -4 117zM143 1061v24h39v-24h-39zM266 852q26 -3 45 -14q13 3 13 20l-52 10q-6 -9 -6 -16zM338 1139q8 39 8 41q6 -25 12 -41h-20zM469 473h63q0 6 -32 6q-31 0 -31 -6zM588 535q14 9 28 12 q-7 2 -20 12z" />
<glyph unicode="&#x3e;" horiz-adv-x="630" d="M90 92h19q0 -5 6 -26l-15 -9q-7 14 -10 35zM90 217q6 98 34 148t105 92q2 5 35 82q93 46 139 106q-18 34 -12 66q-97 66 -289 270l-12 152l78 -9q33 -10 53 -55q70 -24 82 -33q43 -25 57 -67q218 -114 218 -320q0 -35 -11 -96q-43 -25 -75 -84q-49 -36 -121 -123 q-88 -105 -119 -131q-72 -64 -152 -76q0 25 6 74zM182 1026l8 -14h64v18q-14 0 -72 -4zM428 758h37v18h-37v-18zM444 684q56 3 66 16q-23 0 -66 -16z" />
<glyph unicode="?" horiz-adv-x="770" d="M59 1268l101 182q15 0 121 4q79 6 118 6q90 0 154 -18q50 -41 78 -47q0 -33 18 -74q23 -57 25 -66q0 -39 -5 -166.5t-5 -203.5q-7 -3 -12 -7.5t-8.5 -11t-5.5 -10.5t-3.5 -13t-2 -12.5t-1 -14.5t-0.5 -13q-28 4 -29 4q-52 -46 -61 -49q-28 -22 -72 -37q-5 -26 -37 -96 q-2 -16 -2 -80q13 0 21 -4q-15 -112 -152 -127q-57 18 -57 209q0 32 4 98q16 52 51 80q24 17 84 45q0 21 49 67q28 130 19 355q-18 2 -37 4.5t-32.5 4t-28.5 3.5t-24 3t-19.5 2t-15.5 1.5t-11 1t-6.5 0.5h-2.5q3 -2 9 -4v-33q-19 -3 -29 -10v-22q2 0 4 -1t5 -2t5 -2 q-15 -9 -12 -34l6 -41q-1 0 -9.5 -4t-14.5 -5l-9 -18q-111 0 -166 10q-2 33 -2 146zM154 51l12 33q0 -3 12 -33h-24zM154 102v93q1 0 2.5 -1t5.5 -2.5t8 -3.5v-77zM154 270q3 0 18 -6v-55q-6 0 -12 -6zM154 276v37h24v-37h-24zM154 346v33h24v-33h-24zM154 440h16 q-3 -41 -10 -43zM154 498h24q-6 -30 -6 -45q-5 0 -12 -7zM154 530h24q-6 -15 -18 -24zM154 633v43h24q-6 -17 -8 -35zM154 836h24q-6 -94 -6 -146l-12 -6zM154 854v25h30q-3 -3 -6 -19zM154 897v90q1 0 4 -0.5t8.5 -1.5t11.5 -2l-8 -78zM154 1065h24q-6 -37 -6 -53 q-6 0 -12 -6zM154 1505q0 10 4 92l20 -8l-8 -76zM160 549v59h18q-9 -56 -18 -59zM172 1239q0 -7 6 -22q6 9 27 18q-32 4 -33 4zM180 1364l15 -21q29 11 71 19q-4 32 -4 33q-27 -9 -82 -31zM252 145q0 27 14 142q78 0 105 -6q35 -8 86 -52q-18 -42 -21 -92q17 -7 25 -26 q-16 0 -31 -5q-9 -48 -47 -63q-1 0 -9.5 -1.5t-29.5 -6t-45 -8.5q-47 21 -47 118zM266 954v27q11 0 15 -4v-16q-5 0 -15 -7zM266 1006v24h25q-6 -14 -25 -24zM281 1311l30 10l-30 6v-16zM436 1335h33v27q-21 -6 -33 -27zM444 1407l7 -12h34v16q-9 0 -41 -4zM451 1288 q12 -8 24 -20q9 9 21 12q-4 12 -4 31zM477 1118l33 -28q0 24 2 30q-29 0 -35 -2zM487 897l29 -18q0 15 -18 49q-8 -13 -11 -31zM532 1069l50 -12v-19h14l8 29q-16 2 -72 2zM532 1176q12 10 58 20q2 5 -0.5 6.5t-9.5 1.5q-36 0 -48 -28zM537 913l12 -16l29 10q-21 9 -41 6z M541 938l28 6l-10 8zM551 1016l6 -10l29 8q-6 2 -35 2zM551 1270l6 -19q15 6 27 6q-2 4 -2 21l-12 -4q-12 -3 -19 -4zM555 1130q-3 -8 16 -30h66q0 9 -82 30z" />
<glyph unicode="@" horiz-adv-x="1144" d="M-2 104v25l20 -8q-3 -14 -20 -17zM-2 270v25q12 0 16 -2v-19q-4 0 -16 -4zM-2 723q4 6 35 16v-16h-35zM104 86q-8 513 11 1040q20 6 20 15h-18q33 100 63 184q33 9 66 47q131 64 348 64q342 0 395 -179h25v17q1 0 3 -0.5t6.5 -1.5t8.5 -2v-37q-35 -14 -41 -16 q29 -6 49 -11q-14 -48 -45 -69q23 -6 37 -11q23 -145 23 -165q0 -41 -13 -70q13 -13 13 -199q0 -417 -23 -465q-296 -9 -354 -2q-34 15 -37 144q-3 147 -23 180h-90q-11 -33 -20 -305q-40 -12 -121 -6q-25 49 -37 208h19v125h-19q21 273 21 529q63 112 204 112l16 -1 q16 -1 53.5 -3.5t80.5 -5.5q3 -11 28.5 -38t28.5 -40h19q0 -136 -17 -163l23 -609l78 8q3 78 18 287q15 187 15 297q0 120 -15 215q-12 4 -18 8q-21 75 -97 111q-61 26 -161 29l16 39q-42 3 -78 -48q-68 0 -215 -24l-8 -17l-27 -8v-16q-11 0 -26 -6q-16 -46 -17 -47 q-9 -24 -30 -39q24 -21 24 -148q0 -162 -24 -233q5 -2 22 -12q0 -51 -8 -158t-8 -187q0 -156 41 -227q225 -12 258 -12q98 0 176 16v-18q235 0 317 -15v-69q-3 -30 -26 -60q-172 -11 -672 -14l-139 8q-69 12 -99 74zM154 915l36 11q-7 1 -15.5 2t-13 1.5t-7.5 0.5v-15z M446 1141l60 30q-57 -15 -60 -30zM453 1325h77v8h-77v-8zM479 1073q11 5 21 29q-1 1 -4 -2t-7.5 -10t-9.5 -17zM498 1559h24q-4 -28 -4 -35q-9 0 -12 -6q-8 38 -8 41zM506 934q0 -38 24 -244l45 -10q84 15 84 172q0 2 -4 80q-3 46 0 67l-47 72l-86 -14q-16 -53 -16 -123z M549 1124h59v17q-34 -3 -59 -17zM659 1147l46 -14l12 6zM664 1110q12 -12 14 -18l20 8l-2 2q-14 11 -32 8zM842 1358q6 -19 10 -25q3 3 18 6v17q-6 2 -28 2zM989 930h33v18h-33v-18z" />
<glyph unicode="A" horiz-adv-x="782" d="M59 1085q0 168 45 273q55 131 168 131q33 -33 105 -33q16 0 67 4t64 4l151 -30q37 -73 37 -181q0 -10 -4 -88q-2 -39 -2 -84q0 -92 29 -161q-33 -98 -33 -244q0 -74 12 -227q13 -166 13 -230q0 -115 -21 -203q-27 -27 -74 -39q-7 10 -16.5 13t-64.5 14q0 290 -17 387 l23 47q-20 4 -25 4q0 79 -49 97l-121 18q-49 -41 -82 -74q11 -7 19 -10l8 -278q-11 -3 -19 -11q8 -8 11 -47q2 -13 1.5 -31t-1.5 -40q0 -6 -0.5 -12.5t-0.5 -11t-0.5 -9t-0.5 -8v-6.5v-4.5v-2.5v-2q-20 -10 -56 -10q-13 -2 -31 -2t-40 2q-35 2 -62 2q-24 58 -24 141 q0 55 8 131q10 98 10 129q0 68 -14 111l24 12q-30 88 -30 187q0 86 26 125q-33 85 -33 247zM98 152q34 6 54 6l-17 10q-17 -8 -37 -16zM109 393q31 -8 51 -18h37q0 9 -88 18zM115 840l82 16q-58 0 -74 -2zM135 700l17 -18q10 1 61 8q-37 11 -64 11q-7 0 -14 -1zM152 965 q12 6 16 6v18q-2 2 -16 2v-26zM158 653q-2 -11 8 -28l2 -4l14 8zM180 219l8 -31l33 17q-11 14 -41 14zM188 303h45v19q-45 -9 -45 -19zM207 575l8 -26h82l-8 33q-17 0 -82 -7zM250 -121l8 41q0 -36 -8 -41zM279 754l45 -15q5 -5 8 -20q61 20 155 20q13 19 21 29q9 0 39 -10 q20 -6 41 0q-39 16 -53 24l-15 62l47 22q-19 8 -47 25q8 38 8 41q-16 53 -16 115q0 12 4 90l8 88q11 7 27 10q-93 22 -150 22q-55 0 -98 -14q-12 -88 -24 -489zM397 1071v27q31 -9 31 -17zM406 375h20l8 -53h-20zM487 602q56 21 56 45q-32 -14 -56 -45zM524 549q20 10 51 18 l-10 23h-28q4 -4 8 -12q-9 -9 -21 -29zM532 700l11 -26h53v18h-9h-10t-9 0.5t-9 1.5t-7.5 3t-7 5t-5.5 7t-4 10q-3 -15 -3 -19zM575 395q57 0 70 -8q-2 -6 -2 -22l19 8q-3 12 -24.5 42.5t-21.5 43.5q-26 -45 -41 -45v-19zM578 612l24 9l-18 16q-9 -9 -6 -25zM588 700l30 11 l-30 8v-19zM596 567l74 25q-10 -1 -19.5 -2t-14 -1.5t-5.5 -0.5q-17 -3 -35 -21zM625 1126l8 -10l24 8q-8 2 -32 2zM625 1511q3 20 26 27v-27h-26z" />
<glyph unicode="B" horiz-adv-x="741" d="M88 584q0 51 21 69l-9 64q5 7 23 18q-6 2 -21 2q0 2 0.5 17t1.5 47t2 69q0 75 -16 131q7 17 29 35q-25 77 -25 191q0 88 15 196q62 47 213 47q125 0 243 -28l101 -64q0 -22 -13 -32q24 -8 31 -9q33 -73 33 -209l-16 -259l-1 -19q-2 -2 -20 -21.5t-23 -27t-12.5 -23.5 t-7.5 -30l39 -33q14 -15 24 -43q0 -260 -8 -293q23 -10 23 -98q0 -21 -17 -213q-103 -50 -245 -62l-256 -8l-99 43v375q2 10 2 25q0 22 -4 53q-8 60 -8 90zM150 547h34v18q-34 -9 -34 -18zM150 868h34q0 11 -28 17q-6 -9 -6 -17zM164 371l12 -27l43 8zM184 1208q73 4 88 19 l-20 20h-37q8 -12 12 -14zM184 1262q12 8 35 20q-4 2 -18 2zM205 999l33 13q-14 3 -33 -13zM223 834q8 6 31 12q-13 3 -27 -8zM236 887q36 -6 86 -45q53 7 124 32q23 104 23 226q0 73 -10 186q-109 -9 -140 -33q-28 -22 -55 -112l17 -8q5 -36 5 -133q0 -41 -1 -93 q-6 -1 -49 -20zM240 1395l120 -56q13 8 31 11q-39 33 -151 45zM252 94l43 -10q15 12 18 37q-38 3 -41 2q-17 -3 -20 -29zM252 207h43q0 9 -43 18v-18zM260 721h82q-10 19 -29 33q-19 0 -53 -6v-27zM260 1280l21 14q-3 8 -21 -14zM274 451q0 -36 7 -125q6 -83 6 -101 q53 -33 100 -45q86 9 113 56q17 30 28 126q-6 60 -12 183q8 2 37 2v18q-8 2 -29 2v49q-31 7 -37 7l-14 41q-58 0 -96 14l-8 -25q-5 -1 -12.5 -3t-19 -5.5t-20.5 -5.5q-43 -52 -43 -188zM352 1413q32 -14 43 -29l27 9q-12 8 -23 22q-37 0 -47 -2zM360 76h35l-8 16 q-27 -9 -27 -16zM442 135l17 -33q0 19 4 31q-6 2 -21 2zM500 1372q0 -6 6 -33v37q-6 0 -6 -4zM532 215l9 -27q6 4 12.5 8.5t12 8t7.5 4.5q-27 6 -41 6zM590 182q6 -3 16 -20q23 9 62 18q-18 2 -78 2zM604 264q-2 -8 21 -31q0 17 2 21q-9 4 -23 10zM678 -20h29l-9 -27l-20 -8 v35z" />
<glyph unicode="C" horiz-adv-x="788" d="M74 160v1108q6 54 53 75q21 52 45 70l78 37q62 -5 356 -35q4 -7 43 -51q-4 -12 -4 -16q0 -20 21 -54q22 -37 26 -53q-2 -31 -2 -149l-86 -60q-6 2 -19.5 8.5t-28 13.5t-30.5 13q-10 43 -16 152q-83 34 -141 43q-43 -19 -68 -23q-3 -78 -3 -257q0 -269 7 -765 q40 -19 160 -22l59 143q23 39 101 39q34 0 57 -2l16 -33q9 0 43 -6q6 -29 11 -49h-27q-7 7 -10 22q-14 -14 -17 -55q4 0 19 -6l8 -23h-27q-29 -103 -59 -145q-44 -53 -143 -68q-100 0 -291 -6q-79 60 -131 154zM127 1235q9 -9 16 -21q0 17 2 23q-14 0 -18 -2zM133 1157 l27 -27q8 1 21.5 3t17.5 2q0 11 6 20q-16 2 -72 2zM152 1434q0 35 2 43q10 -10 16 -43h-18zM233 1227q1 -3 3.5 -7t6.5 -10.5t7 -11.5q6 6 12 8q-18 21 -29 21zM238 1358h36v18h-36v-18zM242 1317l8 -8h41v16zM442 1376h80v8h-80v-8zM496 1300l30 11q-26 0 -30 -11z M555 1257l33 11l-33 6v-17zM725 471q20 -3 20 -22q0 5 -2 -5l-10 -49z" />
<glyph unicode="D" horiz-adv-x="792" d="M86 672q6 9 18 12q-10 17 -18 47q8 167 8 694q28 60 170 60q59 0 352 -47q11 -41 20 -54t40 -24q7 -744 10 -957l-22 -18q9 0 30 -6l-8 -197l-18 -8q5 0 26 -6v-27q-4 0 -24 -4l24 -49q-26 -3 -55 -22q-43 -64 -268 -64l-178 4l-56 -14q-25 31 -43 78q-9 64 -9 167 q0 62 3 138q4 94 4 163q0 85 -6 134zM154 145l63 -30q6 6 12 8l-20 22h-55zM164 203q8 2 53 16l8 19l-61 -9v-26zM172 369q67 0 90 -2q0 -11 -1 -32t-1.5 -60.5t-1.5 -71.5q72 -8 98 -27q100 15 129 31q2 52 21 168q-14 17 -17 51q-3 31 15 49q-17 31 -17 49l9 51 q-2 45 -7 162.5t-10.5 245.5t-9.5 260q-53 21 -96 21q-49 0 -101 -27q-7 -200 -7 -413q0 -71 1 -144l-12 -8q8 -81 7.5 -132.5t-7.5 -72.5l20 -10v-23q-12 -4 -18 -8q-4 -32 -4 -41q-28 0 -80 -6v-10zM172 406h59q0 7 -59 16v-16zM172 1073l14 14l-12 11q-11 -11 -2 -25z M180 1292q21 11 49 19l-24 24q-15 0 -19 -2zM324 526q0 5 4 33q12 0 16 -2q0 -10 6 -31h-26zM324 670q3 16 26 26q-2 -6 -3.5 -9.5t-3 -6t-4 -4t-3.5 -2t-5.5 -2t-6.5 -2.5zM326 1147q15 6 24 6v-27h-20q-4 20 -4 21zM330 791v36h20v-36h-20zM330 995q0 52 8 52q6 -25 8 -43 zM330 1575h20q-9 -12 -12 -33zM508 197q5 -5 8 -21q27 8 59 10l-6 2q-27 12 -61 9zM524 131h45q-5 14 -8 19q-37 -9 -37 -19zM539 397q32 -10 49 -18l8 16q-14 2 -57 2zM569 96q24 17 27 35q-17 -9 -27 -35zM604 1602h19l-9 -60zM606 1507l17 9q0 -46 -9 -46q-2 20 -8 37z " />
<glyph unicode="E" horiz-adv-x="628" d="M80 584q0 106 35 141q-25 25 -25 442q-2 18 -2 172q0 33 10 105q77 39 213 39q21 0 123 -4q92 -9 115 -9q24 -15 24 -63q0 -14 -4 -51.5t-4 -40.5q-52 -25 -139 -37l-147 -18q-17 -53 -17 -109q0 -8 4 -86t4 -88q0 -30 -4 -66l64 -63q154 0 190 -8q15 -58 15 -92 q0 -36 -17 -70h-37q-100 0 -147 14q-47 -59 -68 -151q-17 -2 -30 -11q8 0 43 -6q-1 -31 -1.5 -59t-1 -46t-1 -31t-1 -18.5t-0.5 -4.5q3 -95 31 -156l174 -16q94 -18 94 -97q0 -26 -8 -57q-45 -45 -194 -45q-220 0 -220 4h1h2q-70 34 -70 141q0 31 6 90q8 52 8 82 q0 18 -10 123q-8 84 -8 150zM111 465q0 -10 26 -19h43v19h-69zM145 1079q47 6 74 6l-6 17h-59zM164 711h61v18q-61 -9 -61 -18zM164 815h88q0 10 -88 19v-19zM172 578l8 -35q13 10 13 30q-4 1 -8.5 2t-7.5 2t-5 1zM199 180q62 -18 71 -33q6 2 21.5 8t21.5 7q-61 18 -114 18z M207 332q9 -22 10 -27h16v27h-26zM207 868q10 10 37 25q-2 0 -6.5 -0.5t-6 -1t-5.5 -1.5t-5.5 -2.5t-4.5 -4t-5 -6.5t-4 -9zM217 940q0 -8 16 -18h27v18h-43zM225 758l8 -15l25 9q-21 6 -33 6zM377 721l8 -10h53l-8 14q-7 0 -53 -4zM492 887v35h26v-35h-26zM563 993v33 q1 0 3.5 -0.5t7 -1.5t8.5 -2l8 -29h-27zM563 1159v27h27q-9 -18 -27 -27z" />
<glyph unicode="F" horiz-adv-x="620" d="M31 782q3 17 26 27v-27h-26zM35 1606q6 2 31 2q-6 -45 -17 -60l-6 19q-10 30 -8 39zM39 545h27q-5 -29 -17 -45zM39 877l8 32q0 -4 4 -24zM39 1186v26h27v-26h-27zM39 1450v80h27l-17 -80h-10zM84 401q0 94 6 269q6 178 6 258q10 7 27 10q-12 4 -27 16l8 502 q166 8 426 31q2 63 11 117q12 4 20 4q0 -34 6 -105q8 -63 8 -104q0 -51 -12 -94q-39 -25 -133 -31q-92 -6 -139 -35q-4 -94 -5 -170q0 -125 13 -197q81 -10 238 -43q9 -13 9 -85q0 -20 -1 -44q-85 -24 -189 -24q-52 0 -110 6v-14q3 0 6.5 -0.5t10 -1.5t11.5 -2q5 -16 15 -33 q-21 6 -33 6q-2 -6 -2 -29q14 0 22 -4l-14 -67q20 -7 29 -19q-20 -16 -41 -37q26 -7 39 -8q-17 -34 -17 -59t13 -41q-21 -35 -21 -101q0 -38 2 -65q6 -50 6 -62q-40 -9 -43 -18l27 -10l8 -72q-16 -26 -92 -47q-4 2 -23.5 11.5t-33.5 15.5q-31 152 -31 376zM129 289 q19 3 29 20q-15 0 -29 -20zM131 739q2 -1 7.5 -2t12.5 -3t13 -5v-27h53q-17 24 -53 48q-18 -4 -33 -11zM147 801l9 -10h53v18q-50 -7 -62 -8zM147 899l9 -12h26v16q-7 0 -35 -4zM209 827l41 -36q16 4 22 4q0 6 4 22l-8 2q-45 10 -59 8zM236 719l53 10q-1 2 -4 9t-4 12 q-36 9 -45 -31zM356 1055q5 36 13 59h14v-53zM369 446v46h14v-46h-14zM535 57v39h26l-8 -30q-9 -3 -18 -9zM535 111v98h26v-98h-26zM535 217q0 41 6 127q12 4 20 4l-8 -131h-18zM535 367q3 178 14 192q9 -24 12 -192h-26zM537 666q11 -29 11 -55q0 -17 -5 -33q-6 58 -6 88z " />
<glyph unicode="G" horiz-adv-x="761" d="M63 475q0 127 3 191l22 8q-15 6 -25 6q0 428 3 639q41 84 96 119q18 10 41.5 17t61 12t56.5 7t72.5 5t65.5 4q0 4 6 10l141 -27l72 -135l6 -231q-42 -31 -94 -31q-51 0 -78 27q-32 -6 -39 -2q-8 3 -8 28q16 9 4 60q6 2 25 2q0 86 -113 86q-44 0 -84 -19 q-14 -354 -29 -770q-10 -10 -16 -20q18 -27 24 -117q-20 0 -26 -2q5 0 26 -6v-121q122 -21 122 -25h-1q45 0 72 56q44 9 57 18q-1 2 -4 9t-4 12q21 9 21 14q0 4 -64 16q-6 21 -6 29l33 10q-8 6 -27 13q-1 20 14 49.5t15 34.5q0 8 -2 14q-8 2 -39 2q0 18 2 22h35q0 7 -13 23 q-26 33 -38 55q-21 6 -31 6q-4 12 -4 25q-27 27 -27 53t33 68q36 48 43 65h41l-8 -28q2 -2 120 -23q57 -12 80 -69v-584q-18 -55 -100 -70l-133 -18v16q-21 0 -117 8q-18 1 -34 1q-48 0 -81 -7q-28 28 -98 43q0 3 4 31q-71 53 -71 209l3 52q3 64 5 110q25 9 67 18 q-18 2 -78 2zM324 1597q10 7 20 7v-27h-14q-6 15 -6 20zM463 -45q1 0 29 -4l-29 -10v14zM463 811v27l29 -9q-24 -10 -29 -18z" />
<glyph unicode="H" horiz-adv-x="819" d="M94 82q0 19 6 72q3 37 3 56q0 10 -1 15l27 8q-5 1 -12.5 2t-12 2t-8.5 1q0 56 23 94q-6 2 -23 2l4 184q0 512 2 922q56 16 88 16q115 0 115 -168q0 -46 -16 -174q-15 -117 -15 -162q0 -15 5 -45q45 -48 83 -57q21 -6 115 -6q33 44 33 147q0 65 -12 135q6 153 6 229 q0 42 -2 60q62 33 209 33q1 -1 7.5 -13t12.5 -20q-10 -400 -10 -424q0 -173 16 -327q-13 -84 -16 -240q-2 -80 -2 -242q-17 -8 -35 -18q20 4 43 4q0 -8 4 -62q3 -31 0 -47q-2 -21 -20 -53q-35 -9 -119 -9q-23 0 -49 1q-41 41 -41 108q0 28 6 80q8 47 8 78q-16 37 -16 96 q0 46 12 129q12 91 12 113q-21 21 -12 53l-129 -4q-73 -3 -123 -24q10 -9 27 -17q-8 -101 -8 -596q-47 -35 -68 -41q-7 7 -15.5 12t-20.5 8.5t-19.5 5t-23.5 4t-21 3.5q-17 39 -17 76zM96 -70h35v-18h-35v18zM176 264q31 6 53 8q-9 21 -34 35v-26h-19v-17zM184 406 q12 4 23 4q0 6 4 22q-18 -6 -27 -26zM184 563q5 -12 19 -35q1 3 4 15t4 20h-27zM184 748q9 6 23 6q-6 40 -6 63q-11 -40 -17 -69zM195 854q0 12 6 39q-6 -27 -6 -39zM248 694q0 -5 6 -14q17 3 29 -6l-9 -12q24 9 45 12q-4 12 -4 16q-66 4 -67 4zM248 713q30 -5 53 -11 q-9 40 -53 46v-35zM309 766q31 6 53 8v19q-33 -10 -53 -27zM416 694q31 6 53 8l-8 17zM594 299q9 6 18 6v21q-5 -5 -18 -27z" />
<glyph unicode="I" horiz-adv-x="380" d="M-4 373v51h27l-9 -45zM4 786v43h19v-43h-19zM90 1047q0 161 6 339q7 29 40.5 51.5t66.5 22.5q31 0 53 -22l27 -95l-11 -1302q-8 -16 -16 -43l-127 -23q-21 51 -33 115zM156 195h98v10h-98v-10zM201 346q22 -7 26 -8q3 6 11 10q-23 8 -37 17v-19z" />
<glyph unicode="J" horiz-adv-x="526" d="M-4 84q0 43 80 78q103 39 121 53q3 95 3 200q0 141 -5 302l-13 502q2 60 29 243q108 27 131 27q44 0 102 -27q19 -127 19 -131q0 -56 -29 -82l23 -12v-565q-5 -2 -23 -15q23 -33 23 -106q-8 -2 -31 -21q16 -20 24.5 -47.5t9.5 -46.5t1 -53q-7 0 -43 -4q24 -12 39 -17v-55 q2 -23 2 -51q0 -113 -74 -193q0 -7 6 -16q-8 -4 -34.5 -15.5t-37 -15.5t-34 -13t-39.5 -12.5t-40 -8t-48 -5.5q-25 14 -123 23q-39 48 -39 84zM188 147q30 9 68 11v16l-37 16q-10 -3 -29 -16q-2 -6 -2 -27zM305 547l45 8q-6 12 -37 18q-1 -5 -8 -26zM313 1333l37 8 q-30 3 -37 -8zM340 1393q0 -13 4 -25l35 8zM344 295q35 3 53 18l-45 9z" />
<glyph unicode="K" horiz-adv-x="761" d="M10 -104l13 47l18 -47h-31zM20 952l9 45q7 -34 12 -45h-21zM57 502q0 183 33 227q-27 25 -27 157v27l19 529q21 43 86 43q9 0 44.5 -3t43.5 -3q11 -125 16 -275q6 -235 9 -276h53q0 20 6 57q28 43 63 193q33 143 70 206q55 99 164 99q23 0 33 -2q6 -27 6 -56 q0 -69 -35 -172q-36 -113 -51 -172q-19 0 -35 -4q-18 -167 -76 -295q0 -91 72 -250q23 -46 63.5 -133t51.5 -110q3 -50 47 -139q33 -67 33 -121q0 -9 -1 -17q-50 -29 -155 -43q-61 70 -123 271l-33 8q3 17 15 37q-48 39 -48 123q0 29 2 49q1 12 2 22.5t2 16.5t1 8 q-44 19 -58 35.5t-28 66.5q-26 7 -62 10q9 -69 16 -135q-16 -3 -26 -10q26 -23 29 -127q-2 49 -3 -11v-132q-33 -7 -47 -8q7 0 58 -7q-23 -146 -27 -184q-59 -16 -84 -16q-31 0 -86 22l-10 152l35 10l-41 14q0 -1 0 2.5t-1 13t-1.5 22t-2 33t-3.5 42.5q-9 120 -9 205z M129 332q7 -7 8 -10h70v18zM129 584q6 -12 8 -27q25 6 37 21zM133 203q0 -7 14 -35l43 8zM133 297l14 -21h21q-10 12 -14 25q-17 0 -21 -4zM137 674l45 31q-20 0 -45 -5v-26zM197 530h51v17l-51 18v-35zM197 666h51v16q-51 -9 -51 -16zM227 700l35 23h-29q-6 -9 -6 -23z M295 872l20 9q9 26 9 28h-29v-37zM324 666q41 -3 51 -19v53q-7 0 -39 -4q-6 -9 -12 -30zM340 631q5 -16 14 -31q26 6 80 12v17q-23 2 -94 2zM354 721q31 7 41 27q-6 -2 -12 -3.5t-8.5 -2.5t-3.5 -1q-6 -2 -17 -20zM375 791l61 8q0 9 6 18q-7 0 -61 -4q-6 -12 -6 -22z M383 539h51v26q-19 -2 -51 -8v-18zM463 956l10 -12h29v21q-2 0 -16 -4t-23 -5zM473 1126h41q0 9 -20 9v18h-21v-27zM522 1217q0 -9 21 -21h18v21h-39zM641 944v47h21v-47h-21z" />
<glyph unicode="L" horiz-adv-x="579" d="M74 70l12 20q2 197 2 345q0 297 -8 401q47 9 47 18h-35v573q56 24 101 27v19l83 -19q0 -264 -8 -272l21 -6q-6 -537 -6 -809q15 -144 45 -168q22 -19 196 -31q21 -27 45 -37q-6 -16 -12 -51q8 0 23 -6q-2 -6 -2 -29h-29q-10 -21 -17 -43l-151 -16q-113 8 -172 10 q-88 15 -135 74zM137 723q3 -14 19 -43h20l-18 39q-20 4 -21 4zM147 119l9 -15h65v19q-12 0 -74 -4zM147 1122q41 6 66 6q3 7 -59 7q-7 -3 -7 -13zM168 178l8 -10h27v16q-14 0 -35 -6zM176 575h55v11h-55v-11zM203 203q0 -10 45 -27h28v27h-73zM260 98h45v19h-45v-19z" />
<glyph unicode="M" horiz-adv-x="983" d="M74 1001q0 229 10 457q37 2 172 2q30 -27 39 -61q3 -3 12 -72q57 -92 92 -264l39 -281q11 -2 43 -20q54 41 80 153q13 70 27 168q36 58 51 177q14 106 47 147q46 54 152 54q15 0 32 -1q21 -79 21 -192v-29q-63 0 -113 -4q22 -13 75 -13q17 0 38 1l2 -1166 q-73 -49 -113 -49q-11 0 -39 4q-11 18 -18 35q0 195 2 293q-6 181 -49 285q-40 0 -49 -21l-19 -57q9 0 27 -6q-51 -110 -60 -258q-32 -19 -79 -19q-38 0 -86 12q-43 149 -97 363q55 13 60 20q-28 8 -62 13q-3 24 -18 33q17 7 26 36q-38 20 -71 25l8 -90q15 0 27 -4 q-3 -46 4 -58l-31 -14q0 -36 6 -156t6 -188q0 -200 -43 -252l-94 -12l-43 35q0 138 -8 487q-6 298 -6 487zM131 399q16 10 31 17q-3 6 -15 0t-16 -17zM143 1260l9 -11h28v15q-9 0 -37 -4zM152 1212l43 9q-36 4 -37 4q-6 -3 -6 -13zM160 594q72 18 86 20q-8 0 -86 -4v-16z M350 713q4 -2 17 -15q42 6 71 25q-1 2 -10 2q-19 0 -78 -12zM410 596q0 -8 6 -29h37v27q-10 2 -43 2zM416 530l20 -6l78 6l-92 17q-6 -9 -6 -17zM424 444q39 9 39 19h-39v-19zM444 358h76v9h-76v-9zM463 584h37v18h-37v-18zM473 479h47q-5 14 -8 19q-39 -9 -39 -19z M776 1335l60 11q-16 2 -54 -9z" />
<glyph unicode="N" horiz-adv-x="788" d="M-25 -51q1 0 29 -4l8 -23h-37v27zM-25 371q9 37 17 37v-37h-17zM-25 1307h21q1 -1 2 -4t2.5 -8t3.5 -9h-20zM-25 1438v24h29v-24h-29zM-25 1470v27h29v-27h-29zM-25 1589q2 6 13 10l12 -10l-16 -20zM-20 1044q4 1 9 2t8.5 2t6.5 1v-33h-20zM76 1444q94 35 137 41 q39 -28 88 -45l8 -135q44 -44 74 -222l51 -118h62q2 40 2 71t-2 54q-1 18 -2 32.5t-1.5 20t-0.5 4.5l16 8l-27 37q19 28 19 104q0 16 -4 86q-1 15 -2 29.5t-1.5 22.5t-0.5 10q55 14 180 14q11 -33 20 -145q-5 -149 -5 -463q0 -236 3 -565l-59 -11l49 -8q0 -155 -6 -182 q-15 -76 -84 -76q-34 0 -101 23q1 34 1 66q0 95 -7 171l-8 66q-6 2 -24 2l-125 397q-5 1 -9 1q-27 0 -45 -48q21 -273 21 -412q0 -126 -12 -237q-103 -37 -160 -43q-3 5 -33 35q-9 65 -12 1415zM141 1192l9 -10l32 10h-41zM160 207q4 -2 8 -10h29v16q-16 0 -37 -6zM176 1241 q30 3 96 41q-52 0 -88 -4zM213 1200l45 8v15q-14 -1 -45 -9v-14zM274 10l21 -8q1 -3 2 -11.5t3 -19.5t5 -22h-26q-5 35 -5 61zM279 1577h26v-107h-18q-7 92 -8 107zM432 918q6 1 51 8q-10 2 -20 2q-8 0 -31 -10zM442 -14v61h17v-61h-17zM442 1393q0 11 8.5 18.5t20.5 7.5 v-26h-29zM451 1444q-9 14 4 24l12 -10zM487 -41h19q-10 -10 -19 -37v37zM487 1505v45h19v-45h-19zM506 1339q33 11 47 13q-21 0 -47 -13zM526 1059l9 -10q10 7 32 10h-41zM526 1208h43q0 7 -43 19v-19zM561 330l35 6q0 8 -35 8v-14zM569 317q0 -5 19 -14l16 8z" />
<glyph unicode="O" d="M66 375q0 471 2 604l18 8q-12 18 -18 82q24 3 24 8t-24 8l8 111q1 16 1 31q0 45 -7 78q29 25 65 118q141 66 316 66q137 0 237 -47q62 -174 62 -414q0 -87 -13 -250q-19 -8 -26 -22q22 -36 22 -90t-22 -103q26 -33 26 -53t-43 -57l33 -17q3 -56 10 -63q-9 -211 -12 -226 q-27 -101 -145 -159q-96 -3 -283 -15l-141 62q-5 14 -24.5 31.5t-22.5 23.5l8 29q-27 12 -27 76q-15 6 -18 53l-4 67q25 7 34 7q-8 2 -34 2q0 11 6 32q9 6 18 9q-10 7 -26 10zM188 1257q40 8 52 9q-20 4 -45 4q-7 -7 -7 -13zM197 170l32 31q-4 2 -16 2zM227 236l197 -74 q56 12 72 14q40 49 57 49v19l25 8q-7 100 -7 125h17v20h-17q-2 42 -2 87q0 96 9 200l-17 8q-15 510 -24 557q-39 45 -134 45q-11 0 -81 -4q-13 -1 -30 -2t-26 -1.5t-14 -0.5v-29h57l-8 -16q-35 -3 -57 -10v-19h53q-1 -25 0 -45q0 -61 6 -82l-16 -8q6 -34 6 -67q0 -26 -4 -52 q4 -1 9 -3t13.5 -5.5t14.5 -5.5q0 -8 -21 -8l-8 -623q-12 -4 -18 -8v-26h26v-35zM360 440q24 -14 27 -55h-18zM360 971v26h27v-26h-27zM369 520q-2 33 6 31q-6 -15 -6 -31zM408 1374l34 -8l15 8q-17 13 -49 19v-19zM424 1409q6 -4 18 -8h27q-4 20 -4 22q-36 4 -41 4v-18z M516 143q0 -16 16 -26q3 6 15 10q-8 13 -31 16zM516 477q0 53 8 53q6 -32 8 -53h-16zM545 162q10 7 10 35q-7 -14 -10 -35zM598 180q20 12 37 15q-31 -3 -37 -15zM598 424q29 9 55 12q-40 0 -55 -12zM598 535q4 -5 8 -15q12 6 21 6q1 4 -6.5 6.5t-22.5 2.5zM614 700h66 q0 10 -66 19v-19z" />
<glyph unicode="P" horiz-adv-x="751" d="M80 467q6 22 24 37l-6 86q0 67 6 82q-5 10 -10 35q-6 52 -8 120q-2 55 -2 582q40 62 59 70q367 -9 437 -19q129 -52 129 -332q0 -19 -4 -133q-1 -22 -2 -47.5t-2 -41.5t-1 -25q0 -24 5 -64q-36 -145 -89 -229q-52 -9 -86 -43q-17 0 -127 10q-18 -18 -129 -33 q3 -34 3 -117q0 -49 -1 -116q-1 -24 -1 -47q0 -107 12 -185q-12 -16 -29 -51q-68 -18 -131 -24l-10 53l-23 8q2 52 2 94q0 98 -10 142q15 6 18 81q3 85 23 111q-11 0 -47 -4zM162 350q8 2 27.5 8t27.5 7l-47 12zM201 588q6 -6 8 -15q51 6 74 17q-64 0 -82 -2zM264 735 l74 -43q30 20 49 17l49 -9l23 109q-1 20 -1 44q0 40 3 91q8 96 8 141q0 119 -47 187h-14q-51 0 -121 -19q-6 -170 -23 -432q-2 -38 -2 -60t2 -26zM487 770q0 -21 5 -51l24 8q-9 33 -29 43zM532 856l15 -20l33 10l-5 2q-17 11 -43 8z" />
<glyph unicode="Q" horiz-adv-x="854" d="M61 190v1078q27 95 48 125q19 31 96 80q220 32 284 32q237 0 271 -254l-23 -8q14 -5 23 -10q0 -879 -8 -1030q55 -6 108 -39q-3 -100 -22 -129q-17 -33 -82 -33q-26 0 -94 6l-164 -22q-130 16 -293 49q-123 91 -144 155zM115 444q35 15 61 21q-18 0 -61 -21zM123 352h74 v13h-74v-13zM176 649q67 24 88 29h-51q-27 -3 -37 -29zM176 713q27 6 41 6q0 16 6 31zM197 557l16 -16h37v12q-50 4 -53 4zM223 291l17 -19h26v19h-43zM231 317q46 0 60 -2q14 -77 41 -133l182 15q33 33 53 43q27 11 72 14q-20 9 -59 18l-13 37q-39 -6 -49 4q49 27 49 133 h21q1 9 -12 43.5t-13 47.5q0 25 25 47l-25 41q3 11 10 18l-10 8q-9 546 -20 604q-27 37 -92 37h-17q-113 0 -133 -37q-6 -12 -12 -188q-2 -57 -2 -184q0 -192 4 -543q-36 0 -60 -4v-19zM332 111h18q3 25 10 36h-28v-36zM340 49h20v45l-20 -8q-3 -12 0 -37zM424 408 q4 22 16 34l17 -14q-17 -8 -33 -20zM424 633h27q0 -53 -9 -53zM442 1548v27l23 -8q-6 -12 -23 -19zM442 1602v34q17 -4 25 -16q-1 -1 -8 -18h-17zM506 78l8 -10l25 8q-8 2 -33 2zM524 901h27q-10 -10 -19 -37zM524 930v26q11 -6 23 -8q-18 -11 -23 -18zM524 1145v35h17 q-9 -13 -17 -35zM588 203l65 8q3 9 9 18h-74v-26zM598 94l16 -18q49 29 56 33q-32 0 -72 -15zM606 371l111 8v12h-111v-20zM612 334q0 -19 2 -25l17 8zM623 461h47v18h-47v-18zM649 68l39 8q0 7 -33 4q-6 -3 -6 -12zM670 309q1 0 13.5 -3t21.5 -7q0 11 6 20l-35 15 q-6 -15 -6 -25zM688 174l49 8l-2 4q-19 12 -43 9q-4 -8 -4 -21z" />
<glyph unicode="R" horiz-adv-x="774" d="M68 143q0 10 4 88q6 61 6 93q0 48 -8 79q0 430 2 553l24 25q-3 3 -12 10.5t-14 12.5q0 32 2 38l16 9q0 11 -10 116q-8 73 -8 131q0 122 41 181h348q20 14 43 14q86 0 188 -170q-2 -76 -2 -346q-7 0 -35 -4q15 0 35 -4l-8 -191q-15 -107 -98 -160l28 -219q27 -159 70 -213 q0 -19 2 -60.5t2 -47.5q0 -55 -25.5 -77t-99.5 -28l-55 50q-70 321 -82 489l82 16l-94 9l-17 26q-10 2 -45 2q0 11 6 23h-24q-9 -15 -49 -49q-9 -149 -11 -299q-8 -2 -20 -15l31 -14q-6 -148 -13 -166q-15 -43 -100 -43q-14 0 -68 4q-32 51 -32 137zM129 418l21 -15l24 9 q-35 6 -45 6zM141 365q14 -9 43 -23h29q-7 8 -14 23h-58zM141 451l27 -13h16v27h-43v-14zM150 1004l8 -27q12 9 12 24q-9 3 -20 3zM150 1366q27 8 59 10q-56 0 -59 -10zM168 162l16 -8q21 6 39 6q-13 7 -55 20v-18zM176 870q24 10 66 19v16l-66 -16v-19zM184 266l21 -16 l16 8q-2 0 -15.5 3.5t-21.5 4.5zM184 1239q20 9 62 21q-4 2 -9 2q-19 0 -53 -23zM223 692h35q-4 20 -4 21q-19 0 -25 -2q-6 -9 -6 -19zM231 666l9 -56h26l-16 49q-18 7 -19 7zM258 1374q29 -6 37 -20q3 6 12 12q-4 6 -10 20q-31 7 -39 7v-19zM264 950q0 -108 49 -178 q83 6 129 6q56 71 56 217q0 16 -27 277l-111 37l-51 -29q-26 -14 -39 -41q6 -37 6 -80q0 -35 -6 -106t-6 -103zM279 756q8 -20 26 -56l10 5l-8 47zM315 670l21 -13q-8 -13 -4 -30h28l9 92q-17 -13 -54 -49zM395 666q11 19 31 36q-9 3 -23 3zM401 1417q0 -12 21 -24l24 8 q-16 3 -45 16zM422 1343l45 -14q-8 -4 -16 -12q42 -9 45 -33h18l-35 57q-12 2 -57 2zM442 727l82 -8h72q0 8 -150 35q-4 -20 -4 -27zM459 565q24 6 41 23h-29q-8 -8 -12 -23zM485 -8h29l-10 -45h-19v45zM485 1608h29v-66h-18zM524 592q9 6 19 6l8 41l-19 -8q6 -6 -8 -39z M524 889l27 -35l33 8q-2 1 -23 11t-37 16zM541 315l51 9q-39 3 -51 -9zM541 1239l10 -27h72q0 9 -82 27zM567 180h47q0 9 -47 15v-15zM567 1122q41 12 58 15q-2 6 -2 18q-3 -1 -11.5 -3t-11.5 -3t-9.5 -3.5t-10 -5t-7.5 -7.5t-6 -11zM582 895q30 -10 41 -25q6 21 6 25 q0 5 -6 14h-33zM606 1239l31 10l-31 17v-27z" />
<glyph unicode="S" horiz-adv-x="737" d="M59 997q4 4 13.5 48t19.5 59q-17 22 -26 139q12 8 18 10q-10 10 -25 19q12 115 103 166q65 35 200 41q2 7 13 18q22 -22 110 -49l129 -39q0 -4 21 -84h-33v-14q19 0 25 -2q-4 -196 -4 -224q-47 -12 -76 -12q-57 0 -78 55q-9 33 -23 144q-120 6 -182 6q-8 -154 -8 -219 v-23q-9 0 -59 -4l55 -8q24 -102 113 -158l178 -104q13 -4 80 -35q24 -285 24 -369q0 -161 -33 -256q-52 -38 -100 -82q-206 0 -285 -12q-14 14 -20 23q-80 28 -109 100q-10 27 -34 152l22 8q0 39 2 49q22 -1 42 -2l30 -1.5t12 -0.5q51 -6 78 -27q0 -18 16 -90 q54 -10 100 -10.5t85 10.5q1 51 1 96q0 179 -10 252q-191 93 -360 215q-25 98 -25 215zM117 172q18 7 43 10q0 8 -43 8v-18zM178 1239q20 4 29 4q0 9 4 21q-9 0 -29 -4q-4 -12 -4 -21zM188 131q1 -3 17 -27q3 13 12 29q-23 0 -29 -2zM188 223q1 -5 17 -51q7 7 10 8 q3 37 -8 58l-2 4zM188 1397l17 -29q0 27 2 33q-15 0 -19 -4zM197 1161l8 -10q4 4 24 14q-20 0 -32 -4zM197 1317h32v18h-32v-18zM229 1282l54 33q-14 0 -41 -6q-10 -10 -13 -27zM248 147l41 21q-6 2 -27 2zM279 1364q26 -13 38 -29q34 11 84 19zM362 1368q8 6 31 12 q-9 2 -26 -8zM371 1001l8 52q0 -1 4 -37q-8 -3 -12 -15zM371 1571l8 31q0 -28 -8 -31zM496 1421q0 -2 0.5 -4.5t1.5 -7t2 -8.5l55 -33h18v18q-22 9 -41 11l-8 18q-21 6 -28 6zM514 289l29 10q-28 4 -29 4v-14zM516 1249l12 -18l50 8zM547 252q15 9 18 22zM555 190 q44 25 59 29q-4 1 -7 1q-22 0 -52 -30zM608 1526v26l21 -8q-3 -12 -21 -18zM662 1448v27q6 -6 20 -9q0 -7 -20 -18z" />
<glyph unicode="T" horiz-adv-x="614" d="M8 1409q58 55 205 55q16 0 77 -2t79 -2q68 0 118 13q2 10 15 38q4 -23 14 -55l66 -8q9 -27 47 -117l-35 -8q-5 -11 -8 -29q-132 -16 -160 -28q-27 -24 -51 -27q6 1 -2 2h-56q-6 -15 -6 -24q42 -6 90 -19q13 -23 13 -68q0 -43 -8 -98q-2 -18 -5 -39.5t-4.5 -32t-1.5 -14.5 l-22 -8q1 0 37 -4l-7 -41q-3 -19 19 -35q-19 -211 -19 -289q0 -119 21 -207q-25 -22 -25 -98q0 -36 2 -69q1 -12 2 -27.5t2 -26t1 -16.5q0 -59 -17 -98q-49 -11 -115 -29l-63 29q-4 28 -4 534v4q0 520 -4 656l-17 55q-84 0 -168 41q6 8 13 12q-12 11 -17 26t-5.5 23t-0.5 31 zM53 569v35h21v-35h-21zM53 623v24q20 -6 29 -24h-29zM53 1565h29v-33h-16q-8 17 -13 33zM209 1313h37q0 10 -31 16q-6 -9 -6 -16zM225 1272q24 12 21 22q-7 -5 -21 -22zM254 729l106 -55h21v16q-50 14 -127 39zM274 1006l50 -31q7 7 22 10q-21 15 -72 21zM287 1352 q5 -2 16 -21h21l-9 21h-28zM340 1409h41v18h-41v-18zM381 1323q62 13 76 14q-41 0 -76 -14zM485 422v51h29v-51h-29zM485 612l9 31q10 0 14 -2q0 -8 6 -29h-29zM485 768h29q-6 -56 -18 -59zM485 985v43h29v-43h-29zM485 1063l9 22q14 -3 20 -22h-29zM485 1583h29 q-6 -28 -8 -33t-10 -10q-7 22 -11 43zM489 535l15 10l10 -45h-18q-7 31 -7 35zM489 694h19q0 -33 -12 -39q-7 31 -7 39zM496 1116q0 68 8 68zM496 1202q0 19 6 49q-6 -30 -6 -49z" />
<glyph unicode="U" d="M80 1133q4 51 29 239q-17 31 -17 45q0 45 88 45q38 0 101 -8q0 -65 -1 -141q0 -378 13 -1020q21 -88 104 -88q54 0 144 41q8 24 8 88q0 98 -8 401q26 113 26 284v36q16 4 23 4q-27 37 -27 137q0 12 4 94q2 53 2 72v8q21 75 41 107q32 -2 131 -19q15 -62 15 -143 q0 -119 -31 -176l27 -13v-946q-73 -132 -207 -162q-60 -13 -293 -16q-83 61 -158 119q-12 53 -12 405l10 95q10 95 10 139q0 80 -20 106q18 24 18 107q0 107 -20 160zM137 1047h45q0 7 -45 16v-16zM166 1245q13 6 74 23q-13 2 -24 2q-39 0 -50 -25zM182 1114q35 19 43 21 q-33 0 -43 -2v-19zM182 1550v27q11 -6 25 -8q-3 -16 -25 -19z" />
<glyph unicode="V" horiz-adv-x="749" d="M53 1282q0 104 2 135q82 29 109 29q42 0 57 -43q9 -24 29 -127q15 -15 57 -37v-10q-35 0 -43 -2q-1 -5 -1 -13q0 -28 11 -88q-18 0 -30 -4q12 -17 41 -24q18 -156 18 -174q0 -41 -8 -54q36 -36 51 -272q25 -23 35 -45q41 69 59 199q19 152 35 204q0 32 4 240q28 4 37 4 q0 140 2 150q8 58 70 110q48 -3 139 -18q3 -3 3 -16q0 -25 -11 -87q-12 0 -33 -6q0 -62 2 -80q-18 -3 -33 -10q23 -13 23 -121q-39 -17 -39 -106q0 -15 3 -55.5t3 -45.5q-12 -22 -35 -92q-9 -157 -49 -415q-45 -290 -55 -408l-180 -8q-94 64 -121 244l-31 292 q-18 241 -29 256l11 15q-28 42 -28 133q0 30 3 65q-9 5 -26 34t-25 34q9 27 18 39q-15 6 -20 6q4 25 4 50q0 65 -29 122zM184 1227q0 -19 2 -23l17 6zM190 997q10 -11 15 -18q38 15 59 33q-3 0 -74 -15zM522 858l25 -8l16 8q-6 15 -6 19h-35v-19zM573 1167q6 -6 35 -24 q3 7 13 10q-20 14 -48 14zM719 676v26q13 -7 20 -8q0 -7 -20 -18z" />
<glyph unicode="W" horiz-adv-x="1140" d="M39 1317q0 77 4 139q73 31 102 31q39 0 54 -45q3 -9 26 -131q17 -17 56 -37v-12q-33 0 -41 -2q-1 -6 -1 -14q0 -29 11 -91q-23 0 -29 -2q8 -17 39 -27q16 -174 16 -178q0 -42 -8 -55q34 -37 49 -283q24 -24 33 -45q41 71 56 203q22 179 34 213q0 34 4 246q18 6 35 6 q0 159 13 192v37q7 1 26 11q5 6 15.5 15.5t13.5 12.5l131 -18q3 -6 3 -22q0 -27 -9 -85q-2 -2 -6 -2l10 -57q22 -22 55 -39v-10q-33 0 -41 -2q-2 -5 -2 -15q0 -26 12 -90q-24 0 -30 -2q11 -20 39 -29q18 -159 18 -178q0 -39 -8 -55q34 -34 49 -281q25 -25 31 -45 q42 74 57 203q21 170 33 213q0 87 6 246q18 6 33 6q0 144 2 154q9 62 67 114q87 -9 131 -18q2 -4 2 -16q0 -27 -10 -93q-6 0 -30 -4q0 -66 2 -84q-20 -3 -31 -10q20 -11 20 -123q-34 -21 -34 -110q0 -18 2 -59t2 -46l-33 -94q-11 -185 -47 -430q-45 -343 -51 -420l-172 -8 q-88 64 -115 250l-29 303q-15 249 -26 264q4 8 10 14q-14 22 -17 33l-2 -12q-9 -151 -47 -430q-45 -317 -53 -420l-170 -8q-91 67 -115 252l-30 301q-15 245 -27 266l10 12q-26 44 -26 147q0 28 2 60q-9 4 -25 34.5t-25 35.5q7 21 19 41q-20 4 -21 4q5 30 5 58q0 66 -27 120 zM1120 696v27l21 -8q-4 -7 -21 -19z" />
<glyph unicode="X" horiz-adv-x="681" d="M37 27q16 135 61 350q53 251 68 346q18 18 18 60v12l-8 75l-129 590q83 35 137 45l60 -53q0 -53 -8 -61q42 -95 51 -254q26 -20 45 -66l18 45q8 19 33 33q4 76 4 78q9 43 29 69q0 105 24.5 146t89.5 41q29 0 91 -10q-3 -46 -31 -156q-24 -105 -27 -164q-27 -85 -51 -174 q-37 -130 -37 -201q0 -40 10 -63q6 -80 47 -246q43 -172 48 -252q34 -67 34 -121q0 -43 -20 -82l-82 -8h-12q-42 0 -66 19q-35 277 -100 381h-27q-4 -10 -51 -211q-29 -128 -84 -189l-86 -12zM123 1327q2 -2 6 -14l25 8q-21 6 -31 6zM197 1231l26 -25q4 8 13 11 q-14 14 -39 14zM371 1057q16 0 22 -2q0 -1 3 -13t7 -22q2 9 2 16q0 34 -34 37v-16zM406 1075l16 -18q28 12 43 14q-54 4 -59 4zM473 1225q2 5 21 16q-3 8 -21 -16z" />
<glyph unicode="Y" horiz-adv-x="716" d="M47 225v62h27q-9 -30 -11 -62h-16zM47 1327v129l162 8q0 -96 49 -264q63 -214 70 -266h2q18 0 104 29l-31 16v20l29 11l-29 12q2 13 2 26q0 25 -8 52h17q24 134 45 182h14q15 119 27 182q103 -9 164 -18q-12 -86 -12 -147q0 -13 1 -25q-19 -6 -41 -35l27 -10 q-4 -1 -10 -3.5t-14.5 -6t-14.5 -5.5q-6 -70 -6 -114q-9 0 -29 -4q-4 -36 -4 -39q4 -4 10 -6q-16 -3 -20 -11l-16 -192l-17 -6v-80q-53 0 -53 -6h18q-24 -76 -24 -78q0 -15 6 -45h-16v-45q2 0 14 -4q-4 -90 -4 -107q-103 0 -103 -8q31 -3 103 -18q-1 -5 -1 -17q0 -26 3 -84 q2 -53 2 -121q0 -162 -39 -213l-121 -14l-37 14q-16 59 -16 131q0 31 6 125q3 65 3 99q0 17 -1 26q10 11 18 13q-20 17 -26 122l29 11q-23 23 -52 119q-40 4 -45 4v12h45q-23 50 -45 145q-20 3 -26 6q-6 21 -6 29q26 6 40 8l-8 35h-16q-62 268 -78 381h-25q6 21 31 37z M139 418v24q18 -6 27 -24h-27zM176 838l25 -23h16q-16 23 -41 23zM182 8h27q-9 -15 -27 -24v24zM193 1008l8 -11l30 7q-16 4 -38 4zM242 842q33 7 258 22q-97 19 -129 19q-67 0 -129 -41zM311 758q21 -26 45 -47l13 8l-23 39h-35zM334 227q21 6 35 6q0 -26 2 -34q2 2 9 11 t13 15q-42 23 -59 21v-19zM356 584l6 -11l25 9q-6 2 -31 2zM362 504h52q0 7 -52 16v-16zM449 1108l61 16q-43 0 -55 -2q-2 -2 -6 -14zM459 1004l6 -41l35 8v18h-17v15h-24zM465 1161l22 19q-3 1 -6.5 2t-5 1.5t-2.5 0.5zM492 -61q6 12 32 18v-18h-32z" />
<glyph unicode="Z" horiz-adv-x="600" d="M31 1393l26 8q0 45 2 57l433 -12q42 -33 63 -33h4q-26 -59 -41 -106q3 0 23 -4v-27q-19 0 -23 -2q-10 -37 -76 -295q-43 -163 -53 -295q-21 -10 -35 -90q-12 -50 -16 -109q-20 -3 -37 -12q15 -10 29 -16v-15l-27 -16l-10 -107q-18 -3 -33 -10l8 -88q118 -31 293 -31 q9 -38 9 -81t-9 -91q-44 -21 -235 -24h-248l-19 8l-6 43q-3 22 -16 35q12 12 33 278l26 -8q40 52 60 223q18 158 71 199q-14 17 -14 41q0 32 37 96q37 67 37 97q0 17 -8 28v56l32 22q-4 126 -4 135q-18 9 -241 27q-9 24 -35 119zM51 608q0 40 6 117q9 6 21 6v-123h-27z M59 504v26q10 0 25 -6q-6 -9 -6 -20h-19zM59 549v33q10 0 19 -33h-19zM59 748v61h19v-61h-19zM199 193q3 3 7.5 6t12 7.5t12.5 8.5q-22 0 -26 -2q-6 -9 -6 -20zM283 592q15 5 39 29q-19 -3 -39 -29zM328 844l24 -17l-8 21q-12 0 -16 -4zM334 973l53 10v14q-35 -9 -53 -24z M541 989q0 53 8 53q7 -35 10 -45q-12 -4 -18 -8z" />
<glyph unicode="[" horiz-adv-x="419" d="M31 469q0 7 4 23q12 4 20 4v-27h-24zM31 1497v19l26 -9q-21 -7 -26 -10zM31 1552q21 7 32 7v-27h-26zM37 74h26q-9 -59 -16 -117zM37 109l12 96q-3 -93 -12 -96zM37 -166h18q0 -90 -8 -90zM37 229v66h18v-66h-18zM37 549v37q15 0 12 -15q-3 -13 -12 -22zM37 1028v53h26 q-7 -35 -8 -47zM37 1100v26q17 -6 26 -26h-26zM37 1178v53h18l-8 -53h-10zM45 1450q0 -31 2 -41q-2 10 -2 41zM98 1239q0 182 76 240h135q94 -9 94 -64q0 -21 -16 -53q-34 -16 -108 -64q-29 -116 -29 -266q0 -140 24 -358q-18 0 -24 -2q7 -366 20 -672q-18 -21 -18 -68 q0 -5 4 -51q1 -11 2 -22.5t1.5 -17.5t0.5 -9q108 -89 150 -80q0 -66 -72 -94q-40 -13 -131 -29q-44 27 -72 107q23 12 37 14q-40 4 -41 4q-2 14 -2 60q-6 4 -20 10q22 93 22 188q0 58 -8 105q6 2 22 2l-10 98q3 6 15 10q-9 17 -21 56h-23q24 61 27 133q2 47 2 141 q-14 9 -18 16l28 66l-22 8v53q5 2 17 8t16 7q-22 17 -50 20v27l44 8l-23 16q0 2 4 48q20 4 25 4q3 8 -6 28q-14 33 -23 66q-29 293 -29 307zM150 283q3 -6 6 -27h18l-8 25q-4 2 -16 2zM150 354h24q-1 4 -3 9q-4 11 -6 13.5t-11 2.5q-4 -20 -4 -25z" />
<glyph unicode="\" horiz-adv-x="587" d="M33 1579l49 35q28 -4 33 -4q22 -36 43 -107q18 -61 39 -117q-5 -8 -11 -22q31 -54 76 -102q-3 -4 -14 -15l14 -139q16 -16 25 -113q9 -77 57 -77q12 -280 148 -658q28 -129 61 -254q25 -92 25 -100q-23 -23 -58 -23q-9 0 -42.5 4t-41.5 4q-33 56 -51 158l-25 166l-22 8 q-43 166 -133 611q-16 23 -33 77q-18 59 -18 97q0 28 12 34l-12 13q0 1 4 67h-23q-42 85 -67 224q0 1 -3.5 24t-12.5 84t-19 125zM141 1196h31q2 2 6 21l-12 8q-23 -23 -25 -29zM209 1008h41v18h-41v-18zM328 1055v96h10l14 -96h-24z" />
<glyph unicode="]" horiz-adv-x="419" d="M-8 -264q35 50 162 84l-29 12q20 572 -4 1434q-5 3 -92 59q-35 27 -35 57q0 28 24 72q156 21 164 21q69 0 111 -31q24 -102 24 -162q0 -54 -18 -84q0 -8 6 -29q-9 0 -24 -6q28 0 38 -2q-12 -102 -20 -110q6 -15 6 -127q0 -117 -8 -125q7 0 22 -6l-24 -344q1 0 4 -1 t8.5 -2t11.5 -2q-14 -116 -20 -370q-31 -9 -41 -23q55 -15 55 -96q0 -49 -18 -107l24 -8q-21 -82 -12 -159q-45 -34 -131 -43l-139 -7q-20 20 -45 105zM135 -246l39 13q-23 0 -39 -13zM166 408h33v18h-33v-18zM176 -176l6 -10h25v18zM190 303h41v19h-41v-19zM199 209 q14 8 32 12q-17 3 -32 -12zM207 1116q31 10 33 12q18 9 24 25q-38 -6 -57 -37zM231 -47v-14h39v14h-39zM231 950l15 -8l22 8l-30 17q-7 -11 -7 -17zM242 1049l14 -19l12 8q-14 14 -26 11z" />
<glyph unicode="_" horiz-adv-x="563" d="M10 -20q219 18 279 20q73 -6 270 -27q-6 -25 -20 -114q-87 -22 -136 -25q-127 25 -370 33q-32 49 -23 113zM252 63q10 16 33 25v-25h-33z" />
<glyph unicode="`" horiz-adv-x="311" d="M33 1405q129 -9 176 0q2 -16 35 -96q26 -62 26 -101q0 -40 -26 -63q-53 13 -64 14q-144 79 -147 246z" />
<glyph unicode="a" horiz-adv-x="782" d="M59 1085q0 168 45 273q55 131 168 131q33 -33 105 -33q16 0 67 4t64 4l151 -30q37 -73 37 -181q0 -10 -4 -88q-2 -39 -2 -84q0 -92 29 -161q-33 -98 -33 -244q0 -74 12 -227q13 -166 13 -230q0 -115 -21 -203q-27 -27 -74 -39q-7 10 -16.5 13t-64.5 14q0 290 -17 387 l23 47q-20 4 -25 4q0 79 -49 97l-121 18q-49 -41 -82 -74q11 -7 19 -10l8 -278q-11 -3 -19 -11q8 -8 11 -47q2 -13 1.5 -31t-1.5 -40q0 -6 -0.5 -12.5t-0.5 -11t-0.5 -9t-0.5 -8v-6.5v-4.5v-2.5v-2q-20 -10 -56 -10q-13 -2 -31 -2t-40 2q-35 2 -62 2q-24 58 -24 141 q0 55 8 131q10 98 10 129q0 68 -14 111l24 12q-30 88 -30 187q0 86 26 125q-33 85 -33 247zM98 152q34 6 54 6l-17 10q-17 -8 -37 -16zM109 393q31 -8 51 -18h37q0 9 -88 18zM115 840l82 16q-58 0 -74 -2zM135 700l17 -18q10 1 61 8q-37 11 -64 11q-7 0 -14 -1zM152 965 q12 6 16 6v18q-2 2 -16 2v-26zM158 653q-2 -11 8 -28l2 -4l14 8zM180 219l8 -31l33 17q-11 14 -41 14zM188 303h45v19q-45 -9 -45 -19zM207 575l8 -26h82l-8 33q-17 0 -82 -7zM250 -121l8 41q0 -36 -8 -41zM279 754l45 -15q5 -5 8 -20q61 20 155 20q13 19 21 29q9 0 39 -10 q20 -6 41 0q-39 16 -53 24l-15 62l47 22q-19 8 -47 25q8 38 8 41q-16 53 -16 115q0 12 4 90l8 88q11 7 27 10q-93 22 -150 22q-55 0 -98 -14q-12 -88 -24 -489zM397 1071v27q31 -9 31 -17zM406 375h20l8 -53h-20zM487 602q56 21 56 45q-32 -14 -56 -45zM524 549q20 10 51 18 l-10 23h-28q4 -4 8 -12q-9 -9 -21 -29zM532 700l11 -26h53v18h-9h-10t-9 0.5t-9 1.5t-7.5 3t-7 5t-5.5 7t-4 10q-3 -15 -3 -19zM575 395q57 0 70 -8q-2 -6 -2 -22l19 8q-3 12 -24.5 42.5t-21.5 43.5q-26 -45 -41 -45v-19zM578 612l24 9l-18 16q-9 -9 -6 -25zM588 700l30 11 l-30 8v-19zM596 567l74 25q-10 -1 -19.5 -2t-14 -1.5t-5.5 -0.5q-17 -3 -35 -21zM625 1126l8 -10l24 8q-8 2 -32 2zM625 1511q3 20 26 27v-27h-26z" />
<glyph unicode="b" horiz-adv-x="782" d="M88 584q0 51 21 69l-9 64q5 7 23 18q-6 2 -21 2q0 2 0.5 17t1.5 47t2 69q0 75 -16 131q7 17 29 35q-25 77 -25 191q0 88 15 196q62 47 213 47q125 0 243 -28l101 -64q0 -22 -13 -32q24 -8 31 -9q33 -73 33 -209l-16 -259l-1 -19q-2 -2 -20 -21.5t-23 -27t-12.5 -23.5 t-7.5 -30l39 -33q14 -15 24 -43q0 -260 -8 -293q23 -10 23 -98q0 -21 -17 -213q-103 -50 -245 -62l-256 -8l-99 43v375q2 10 2 25q0 22 -4 53q-8 60 -8 90zM150 547h34v18q-34 -9 -34 -18zM150 868h34q0 11 -28 17q-6 -9 -6 -17zM164 371l12 -27l43 8zM184 1208q73 4 88 19 l-20 20h-37q8 -12 12 -14zM184 1262q12 8 35 20q-4 2 -18 2zM205 999l33 13q-14 3 -33 -13zM223 834q8 6 31 12q-13 3 -27 -8zM236 887q36 -6 86 -45q53 7 124 32q23 104 23 226q0 73 -10 186q-109 -9 -140 -33q-28 -22 -55 -112l17 -8q5 -36 5 -133q0 -41 -1 -93 q-6 -1 -49 -20zM240 1395l120 -56q13 8 31 11q-39 33 -151 45zM252 94l43 -10q15 12 18 37q-38 3 -41 2q-17 -3 -20 -29zM252 207h43q0 9 -43 18v-18zM260 721h82q-10 19 -29 33q-19 0 -53 -6v-27zM260 1280l21 14q-3 8 -21 -14zM274 451q0 -36 7 -125q6 -83 6 -101 q53 -33 100 -45q86 9 113 56q17 30 28 126q-6 60 -12 183q8 2 37 2v18q-8 2 -29 2v49q-31 7 -37 7l-14 41q-58 0 -96 14l-8 -25q-5 -1 -12.5 -3t-19 -5.5t-20.5 -5.5q-43 -52 -43 -188zM352 1413q32 -14 43 -29l27 9q-12 8 -23 22q-37 0 -47 -2zM360 76h35l-8 16 q-27 -9 -27 -16zM442 135l17 -33q0 19 4 31q-6 2 -21 2zM500 1372q0 -6 6 -33v37q-6 0 -6 -4zM532 215l9 -27q6 4 12.5 8.5t12 8t7.5 4.5q-27 6 -41 6zM590 182q6 -3 16 -20q23 9 62 18q-18 2 -78 2zM604 264q-2 -8 21 -31q0 17 2 21q-9 4 -23 10zM678 -20h29l-9 -27l-20 -8 v35z" />
<glyph unicode="c" horiz-adv-x="741" d="M74 160v1108q6 54 53 75q21 52 45 70l78 37q62 -5 356 -35q4 -7 43 -51q-4 -12 -4 -16q0 -20 21 -54q22 -37 26 -53q-2 -31 -2 -149l-86 -60q-6 2 -19.5 8.5t-28 13.5t-30.5 13q-10 43 -16 152q-83 34 -141 43q-43 -19 -68 -23q-3 -78 -3 -257q0 -269 7 -765 q40 -19 160 -22l59 143q23 39 101 39q34 0 57 -2l16 -33q9 0 43 -6q6 -29 11 -49h-27q-7 7 -10 22q-14 -14 -17 -55q4 0 19 -6l8 -23h-27q-29 -103 -59 -145q-44 -53 -143 -68q-100 0 -291 -6q-79 60 -131 154zM127 1235q9 -9 16 -21q0 17 2 23q-14 0 -18 -2zM133 1157 l27 -27q8 1 21.5 3t17.5 2q0 11 6 20q-16 2 -72 2zM152 1434q0 35 2 43q10 -10 16 -43h-18zM233 1227q1 -3 3.5 -7t6.5 -10.5t7 -11.5q6 6 12 8q-18 21 -29 21zM238 1358h36v18h-36v-18zM242 1317l8 -8h41v16zM442 1376h80v8h-80v-8zM496 1300l30 11q-26 0 -30 -11z M555 1257l33 11l-33 6v-17zM725 471q20 -3 20 -22q0 5 -2 -5l-10 -49z" />
<glyph unicode="d" horiz-adv-x="792" d="M86 672q6 9 18 12q-10 17 -18 47q8 167 8 694q28 60 170 60q59 0 352 -47q11 -41 20 -54t40 -24q7 -744 10 -957l-22 -18q9 0 30 -6l-8 -197l-18 -8q5 0 26 -6v-27q-4 0 -24 -4l24 -49q-26 -3 -55 -22q-43 -64 -268 -64l-178 4l-56 -14q-25 31 -43 78q-9 64 -9 167 q0 62 3 138q4 94 4 163q0 85 -6 134zM154 145l63 -30q6 6 12 8l-20 22h-55zM164 203q8 2 53 16l8 19l-61 -9v-26zM172 369q67 0 90 -2q0 -11 -1 -32t-1.5 -60.5t-1.5 -71.5q72 -8 98 -27q100 15 129 31q2 52 21 168q-14 17 -17 51q-3 31 15 49q-17 31 -17 49l9 51 q-2 45 -7 162.5t-10.5 245.5t-9.5 260q-53 21 -96 21q-49 0 -101 -27q-7 -200 -7 -413q0 -71 1 -144l-12 -8q8 -81 7.5 -132.5t-7.5 -72.5l20 -10v-23q-12 -4 -18 -8q-4 -32 -4 -41q-28 0 -80 -6v-10zM172 406h59q0 7 -59 16v-16zM172 1073l14 14l-12 11q-11 -11 -2 -25z M180 1292q21 11 49 19l-24 24q-15 0 -19 -2zM324 526q0 5 4 33q12 0 16 -2q0 -10 6 -31h-26zM324 670q3 16 26 26q-2 -6 -3.5 -9.5t-3 -6t-4 -4t-3.5 -2t-5.5 -2t-6.5 -2.5zM326 1147q15 6 24 6v-27h-20q-4 20 -4 21zM330 791v36h20v-36h-20zM330 995q0 52 8 52q6 -25 8 -43 zM330 1575h20q-9 -12 -12 -33zM508 197q5 -5 8 -21q27 8 59 10l-6 2q-27 12 -61 9zM524 131h45q-5 14 -8 19q-37 -9 -37 -19zM539 397q32 -10 49 -18l8 16q-14 2 -57 2zM569 96q24 17 27 35q-17 -9 -27 -35zM604 1602h19l-9 -60zM606 1507l17 9q0 -46 -9 -46q-2 20 -8 37z " />
<glyph unicode="e" horiz-adv-x="628" d="M80 584q0 106 35 141q-25 25 -25 442q-2 18 -2 172q0 33 10 105q77 39 213 39q21 0 123 -4q92 -9 115 -9q24 -15 24 -63q0 -14 -4 -51.5t-4 -40.5q-52 -25 -139 -37l-147 -18q-17 -53 -17 -109q0 -8 4 -86t4 -88q0 -30 -4 -66l64 -63q154 0 190 -8q15 -58 15 -92 q0 -36 -17 -70h-37q-100 0 -147 14q-47 -59 -68 -151q-17 -2 -30 -11q8 0 43 -6q-1 -31 -1.5 -59t-1 -46t-1 -31t-1 -18.5t-0.5 -4.5q3 -95 31 -156l174 -16q94 -18 94 -97q0 -26 -8 -57q-45 -45 -194 -45q-220 0 -220 4h1h2q-70 34 -70 141q0 31 6 90q8 52 8 82 q0 18 -10 123q-8 84 -8 150zM111 465q0 -10 26 -19h43v19h-69zM145 1079q47 6 74 6l-6 17h-59zM164 711h61v18q-61 -9 -61 -18zM164 815h88q0 10 -88 19v-19zM172 578l8 -35q13 10 13 30q-4 1 -8.5 2t-7.5 2t-5 1zM199 180q62 -18 71 -33q6 2 21.5 8t21.5 7q-61 18 -114 18z M207 332q9 -22 10 -27h16v27h-26zM207 868q10 10 37 25q-2 0 -6.5 -0.5t-6 -1t-5.5 -1.5t-5.5 -2.5t-4.5 -4t-5 -6.5t-4 -9zM217 940q0 -8 16 -18h27v18h-43zM225 758l8 -15l25 9q-21 6 -33 6zM377 721l8 -10h53l-8 14q-7 0 -53 -4zM492 887v35h26v-35h-26zM563 993v33 q1 0 3.5 -0.5t7 -1.5t8.5 -2l8 -29h-27zM563 1159v27h27q-9 -18 -27 -27z" />
<glyph unicode="f" horiz-adv-x="620" d="M31 782q3 17 26 27v-27h-26zM35 1606q6 2 31 2q-6 -45 -17 -60l-6 19q-10 30 -8 39zM39 545h27q-5 -29 -17 -45zM39 877l8 32q0 -4 4 -24zM39 1186v26h27v-26h-27zM39 1450v80h27l-17 -80h-10zM84 401q0 94 6 269q6 178 6 258q10 7 27 10q-12 4 -27 16l8 502 q166 8 426 31q2 63 11 117q12 4 20 4q0 -34 6 -105q8 -63 8 -104q0 -51 -12 -94q-39 -25 -133 -31q-92 -6 -139 -35q-5 -95 -5 -170q0 -125 13 -197q81 -10 238 -43q9 -13 9 -85q0 -20 -1 -44q-85 -24 -189 -24q-53 0 -110 6v-14q3 0 6.5 -0.5t10 -1.5t11.5 -2q5 -16 15 -33 q-21 6 -33 6q-2 -6 -2 -29q14 0 22 -4l-14 -67q20 -7 29 -19q-20 -16 -41 -37q26 -7 39 -8q-17 -34 -17 -59t13 -41q-21 -35 -21 -101q0 -38 2 -65q6 -50 6 -62q-40 -9 -43 -18l27 -10l8 -72q-16 -26 -92 -47q-4 2 -23.5 11.5t-33.5 15.5q-31 152 -31 376zM129 289 q19 3 29 20q-15 0 -29 -20zM131 739q2 -1 7.5 -2t12.5 -3t13 -5v-27h53q-17 24 -53 48q-18 -4 -33 -11zM147 801l9 -10h53v18q-50 -7 -62 -8zM147 899l9 -12h26v16q-7 0 -35 -4zM209 827l41 -36q16 4 22 4q0 6 4 22l-8 2q-45 10 -59 8zM236 719l53 10q-1 2 -4 9t-4 12 q-36 9 -45 -31zM356 1055q5 36 13 59h14v-53zM369 446v46h14v-46h-14zM535 57v39h26l-8 -30q-9 -3 -18 -9zM535 111v98h26v-98h-26zM535 217q0 41 6 127q12 4 20 4l-8 -131h-18zM535 367q3 178 14 192q9 -24 12 -192h-26zM537 666q11 -29 11 -55q0 -17 -5 -33q-6 58 -6 88z " />
<glyph unicode="g" horiz-adv-x="761" d="M63 475q0 127 3 191l22 8q-15 6 -25 6q0 428 3 639q41 84 96 119q18 10 41.5 17t61 12t56.5 7t72.5 5t65.5 4q0 4 6 10l141 -27l72 -135l6 -231q-42 -31 -94 -31q-51 0 -78 27q-32 -6 -39 -2q-8 3 -8 28q16 9 4 60q6 2 25 2q0 86 -113 86q-44 0 -84 -19 q-14 -354 -29 -770q-10 -10 -16 -20q18 -27 24 -117q-20 0 -26 -2q5 0 26 -6v-121q122 -21 122 -25h-1q45 0 72 56q44 9 57 18q-1 2 -4 9t-4 12q21 9 21 14q0 4 -64 16q-6 21 -6 29l33 10q-8 6 -27 13q-1 20 14 49.5t15 34.5q0 8 -2 14q-8 2 -39 2q0 18 2 22h35q0 7 -13 23 q-26 33 -38 55q-21 6 -31 6q-4 12 -4 25q-27 27 -27 53t33 68q36 48 43 65h41l-8 -28q2 -2 120 -23q57 -12 80 -69v-584q-18 -55 -100 -70l-133 -18v16q-21 0 -117 8q-18 1 -34 1q-48 0 -81 -7q-28 28 -98 43q0 3 4 31q-71 53 -71 209l3 52q3 64 5 110q25 9 67 18 q-18 2 -78 2zM324 1597q10 7 20 7v-27h-14q-6 15 -6 20zM463 -45q1 0 29 -4l-29 -10v14zM463 811v27l29 -9q-24 -10 -29 -18z" />
<glyph unicode="h" horiz-adv-x="819" d="M94 82q0 19 6 72q3 37 3 56q0 10 -1 15l27 8q-5 1 -12.5 2t-12 2t-8.5 1q0 56 23 94q-6 2 -23 2l4 184q0 512 2 922q56 16 88 16q115 0 115 -168q0 -46 -16 -174q-15 -117 -15 -162q0 -15 5 -45q45 -48 83 -57q21 -6 115 -6q33 44 33 147q0 65 -12 135q6 153 6 229 q0 42 -2 60q62 33 209 33q1 -1 7.5 -13t12.5 -20q-10 -400 -10 -424q0 -173 16 -327q-13 -84 -16 -240q-2 -80 -2 -242q-17 -8 -35 -18q20 4 43 4q0 -8 4 -62q3 -31 0 -47q-2 -21 -20 -53q-35 -9 -119 -9q-23 0 -49 1q-41 41 -41 108q0 28 6 80q8 47 8 78q-16 37 -16 96 q0 46 12 129q12 91 12 113q-21 21 -12 53l-129 -4q-73 -3 -123 -24q10 -9 27 -17q-8 -101 -8 -596q-47 -35 -68 -41q-7 7 -15.5 12t-20.5 8.5t-19.5 5t-23.5 4t-21 3.5q-17 39 -17 76zM96 -70h35v-18h-35v18zM176 264q31 6 53 8q-9 21 -34 35v-26h-19v-17zM184 406 q12 4 23 4q0 6 4 22q-18 -6 -27 -26zM184 563q5 -12 19 -35q1 3 4 15t4 20h-27zM184 748q9 6 23 6q-6 40 -6 63q-11 -40 -17 -69zM195 854q0 12 6 39q-6 -27 -6 -39zM248 694q0 -5 6 -14q17 3 29 -6l-9 -12q24 9 45 12q-4 12 -4 16q-66 4 -67 4zM248 713q30 -5 53 -11 q-9 40 -53 46v-35zM309 766q31 6 53 8v19q-33 -10 -53 -27zM416 694q31 6 53 8l-8 17zM594 299q9 6 18 6v21q-5 -5 -18 -27z" />
<glyph unicode="i" horiz-adv-x="380" d="M-4 373v51h27l-9 -45zM4 786v43h19v-43h-19zM90 1047q0 161 6 339q7 29 40.5 51.5t66.5 22.5q31 0 53 -22l27 -95l-11 -1302q-8 -16 -16 -43l-127 -23q-21 51 -33 115zM156 195h98v10h-98v-10zM201 346q22 -7 26 -8q3 6 11 10q-23 8 -37 17v-19z" />
<glyph unicode="j" horiz-adv-x="526" d="M-4 84q0 43 80 78q103 39 121 53q3 95 3 200q0 141 -5 302l-13 502q2 60 29 243q108 27 131 27q44 0 102 -27q19 -127 19 -131q0 -56 -29 -82l23 -12v-565q-5 -2 -23 -15q23 -33 23 -106q-8 -2 -31 -21q16 -20 24.5 -47.5t9.5 -46.5t1 -53q-7 0 -43 -4q24 -12 39 -17v-55 q2 -23 2 -51q0 -113 -74 -193q0 -7 6 -16q-8 -4 -34.5 -15.5t-37 -15.5t-34 -13t-39.5 -12.5t-40 -8t-48 -5.5q-25 14 -123 23q-39 48 -39 84zM188 147q30 9 68 11v16l-37 16q-10 -3 -29 -16q-2 -6 -2 -27zM305 547l45 8q-6 12 -37 18q-1 -5 -8 -26zM313 1333l37 8 q-30 3 -37 -8zM340 1393q0 -13 4 -25l35 8zM344 295q35 3 53 18l-45 9z" />
<glyph unicode="k" horiz-adv-x="761" d="M10 -104l13 47l18 -47h-31zM20 952l9 45q7 -34 12 -45h-21zM57 502q0 183 33 227q-27 25 -27 157v27l19 529q21 43 86 43q9 0 44.5 -3t43.5 -3q11 -125 16 -275q6 -235 9 -276h53q0 20 6 57q28 43 63 193q33 143 70 206q55 99 164 99q23 0 33 -2q6 -27 6 -56 q0 -69 -35 -172q-36 -113 -51 -172q-19 0 -35 -4q-18 -167 -76 -295q0 -91 72 -250q23 -46 63.5 -133t51.5 -110q3 -50 47 -139q33 -67 33 -121q0 -9 -1 -17q-50 -29 -155 -43q-61 70 -123 271l-33 8q3 17 15 37q-48 39 -48 123q0 29 2 49q1 12 2 22.5t2 16.5t1 8 q-44 19 -58 35.5t-28 66.5q-26 7 -62 10q9 -69 16 -135q-16 -3 -26 -10q26 -23 29 -127q-2 49 -3 -11v-132q-33 -7 -47 -8q7 0 58 -7q-23 -146 -27 -184q-59 -16 -84 -16q-31 0 -86 22l-10 152l35 10l-41 14q0 -1 0 2.5t-1 13t-1.5 22t-2 33t-3.5 42.5q-9 120 -9 205z M129 332q7 -7 8 -10h70v18zM129 584q6 -12 8 -27q25 6 37 21zM133 203q0 -7 14 -35l43 8zM133 297l14 -21h21q-10 12 -14 25q-17 0 -21 -4zM137 674l45 31q-20 0 -45 -5v-26zM197 530h51v17l-51 18v-35zM197 666h51v16q-51 -9 -51 -16zM227 700l35 23h-29q-6 -9 -6 -23z M295 872l20 9q9 26 9 28h-29v-37zM324 666q41 -3 51 -19v53q-7 0 -39 -4q-6 -9 -12 -30zM340 631q5 -16 14 -31q26 6 80 12v17q-23 2 -94 2zM354 721q31 7 41 27q-6 -2 -12 -3.5t-8.5 -2.5t-3.5 -1q-6 -2 -17 -20zM375 791l61 8q0 9 6 18q-7 0 -61 -4q-6 -12 -6 -22z M383 539h51v26q-19 -2 -51 -8v-18zM463 956l10 -12h29v21q-2 0 -16 -4t-23 -5zM473 1126h41q0 9 -20 9v18h-21v-27zM522 1217q0 -9 21 -21h18v21h-39zM641 944v47h21v-47h-21z" />
<glyph unicode="l" horiz-adv-x="579" d="M74 70l12 20q2 197 2 345q0 297 -8 401q47 9 47 18h-35v573q56 24 101 27v19l83 -19q0 -264 -8 -272l21 -6q-6 -537 -6 -809q15 -144 45 -168q22 -19 196 -31q21 -27 45 -37q-6 -16 -12 -51q8 0 23 -6q-2 -6 -2 -29h-29q-10 -21 -17 -43l-151 -16q-113 8 -172 10 q-88 15 -135 74zM137 723q3 -14 19 -43h20l-18 39q-20 4 -21 4zM147 119l9 -15h65v19q-12 0 -74 -4zM147 1122q41 6 66 6q3 7 -59 7q-7 -3 -7 -13zM168 178l8 -10h27v16q-14 0 -35 -6zM176 575h55v11h-55v-11zM203 203q0 -10 45 -27h28v27h-73zM260 98h45v19h-45v-19z" />
<glyph unicode="m" horiz-adv-x="983" d="M74 1001q0 229 10 457q37 2 172 2q30 -27 39 -61q3 -3 12 -72q57 -92 92 -264l39 -281q11 -2 43 -20q54 41 80 153q13 70 27 168q36 58 51 177q14 106 47 147q46 54 152 54q15 0 32 -1q21 -79 21 -192v-29q-63 0 -113 -4q22 -13 75 -13q17 0 38 1l2 -1166 q-73 -49 -113 -49q-11 0 -39 4q-11 18 -18 35q0 195 2 293q-6 181 -49 285q-40 0 -49 -21l-19 -57q9 0 27 -6q-51 -110 -60 -258q-32 -19 -79 -19q-38 0 -86 12q-43 149 -97 363q55 13 60 20q-28 8 -62 13q-3 24 -18 33q17 7 26 36q-38 20 -71 25l8 -90q15 0 27 -4 q-3 -46 4 -58l-31 -14q0 -36 6 -156t6 -188q0 -200 -43 -252l-94 -12l-43 35q0 138 -8 487q-6 298 -6 487zM131 399q16 10 31 17q-3 6 -15 0t-16 -17zM143 1260l9 -11h28v15q-9 0 -37 -4zM152 1212l43 9q-36 4 -37 4q-6 -3 -6 -13zM160 594q72 18 86 20q-8 0 -86 -4v-16z M350 713q4 -2 17 -15q42 6 71 25q-1 2 -10 2q-19 0 -78 -12zM410 596q0 -8 6 -29h37v27q-10 2 -43 2zM416 530l20 -6l78 6l-92 17q-6 -9 -6 -17zM424 444q39 9 39 19h-39v-19zM444 358h76v9h-76v-9zM463 584h37v18h-37v-18zM473 479h47q-5 14 -8 19q-39 -9 -39 -19z M776 1335l60 11q-16 2 -54 -9z" />
<glyph unicode="n" horiz-adv-x="788" d="M-25 -51q1 0 29 -4l8 -23h-37v27zM-25 371q9 37 17 37v-37h-17zM-25 1307h21q1 -1 2 -4t2.5 -8t3.5 -9h-20zM-25 1438v24h29v-24h-29zM-25 1470v27h29v-27h-29zM-25 1589q2 6 13 10l12 -10l-16 -20zM-20 1044q4 1 9 2t8.5 2t6.5 1v-33h-20zM76 1444q94 35 137 41 q39 -28 88 -45l8 -135q44 -44 74 -222l51 -118h62q2 40 2 71t-2 54q-1 18 -2 32.5t-1.5 20t-0.5 4.5l16 8l-27 37q19 28 19 104q0 16 -4 86q-1 15 -2 29.5t-1.5 22.5t-0.5 10q55 14 180 14q11 -33 20 -145q-5 -149 -5 -463q0 -236 3 -565l-59 -11l49 -8q0 -155 -6 -182 q-15 -76 -84 -76q-34 0 -101 23q1 34 1 66q0 95 -7 171l-8 66q-6 2 -24 2l-125 397q-5 1 -9 1q-27 0 -45 -48q21 -273 21 -412q0 -126 -12 -237q-103 -37 -160 -43q-3 5 -33 35q-9 65 -12 1415zM141 1192l9 -10l32 10h-41zM160 207q4 -2 8 -10h29v16q-16 0 -37 -6zM176 1241 q30 3 96 41q-52 0 -88 -4zM213 1200l45 8v15q-14 -1 -45 -9v-14zM274 10l21 -8q1 -3 2 -11.5t3 -19.5t5 -22h-26q-5 35 -5 61zM279 1577h26v-107h-18q-7 92 -8 107zM432 918q6 1 51 8q-10 2 -20 2q-8 0 -31 -10zM442 -14v61h17v-61h-17zM442 1393q0 11 8.5 18.5t20.5 7.5 v-26h-29zM451 1444q-9 14 4 24l12 -10zM487 -41h19q-10 -10 -19 -37v37zM487 1505v45h19v-45h-19zM506 1339q33 11 47 13q-21 0 -47 -13zM526 1059l9 -10q10 7 32 10h-41zM526 1208h43q0 7 -43 19v-19zM561 330l35 6q0 8 -35 8v-14zM569 317q0 -5 19 -14l16 8z" />
<glyph unicode="o" d="M66 375q0 471 2 604l18 8q-12 18 -18 82q24 3 24 8t-24 8l8 111q1 16 1 31q0 45 -7 78q29 25 65 118q141 66 316 66q137 0 237 -47q62 -174 62 -414q0 -87 -13 -250q-19 -8 -26 -22q22 -36 22 -90t-22 -103q26 -33 26 -53t-43 -57l33 -17q3 -56 10 -63q-9 -211 -12 -226 q-27 -101 -145 -159q-96 -3 -283 -15l-141 62q-5 14 -24.5 31.5t-22.5 23.5l8 29q-27 12 -27 76q-15 6 -18 53l-4 67q25 7 34 7q-8 2 -34 2q0 11 6 32q9 6 18 9q-10 7 -26 10zM188 1257q40 8 52 9q-20 4 -45 4q-7 -7 -7 -13zM197 170l32 31q-4 2 -16 2zM227 236l197 -74 q56 12 72 14q40 49 57 49v19l25 8q-7 100 -7 125h17v20h-17q-2 42 -2 87q0 96 9 200l-17 8q-15 510 -24 557q-39 45 -134 45q-11 0 -81 -4q-13 -1 -30 -2t-26 -1.5t-14 -0.5v-29h57l-8 -16q-35 -3 -57 -10v-19h53q-1 -25 0 -45q0 -61 6 -82l-16 -8q6 -34 6 -67q0 -26 -4 -52 q4 -1 9 -3t13.5 -5.5t14.5 -5.5q0 -8 -21 -8l-8 -623q-12 -4 -18 -8v-26h26v-35zM360 440q24 -14 27 -55h-18zM360 971v26h27v-26h-27zM369 520q-2 33 6 31q-6 -15 -6 -31zM408 1374l34 -8l15 8q-17 13 -49 19v-19zM424 1409q6 -4 18 -8h27q-4 20 -4 22q-36 4 -41 4v-18z M516 143q0 -16 16 -26q3 6 15 10q-8 13 -31 16zM516 477q0 53 8 53q6 -32 8 -53h-16zM545 162q10 7 10 35q-7 -14 -10 -35zM598 180q20 12 37 15q-31 -3 -37 -15zM598 424q29 9 55 12q-40 0 -55 -12zM598 535q4 -5 8 -15q12 6 21 6q1 4 -6.5 6.5t-22.5 2.5zM614 700h66 q0 10 -66 19v-19z" />
<glyph unicode="p" horiz-adv-x="751" d="M80 467q6 22 24 37l-6 86q0 67 6 82q-5 10 -10 35q-6 52 -8 120q-2 55 -2 582q40 62 59 70q367 -9 437 -19q129 -52 129 -332q0 -19 -4 -133q-1 -22 -2 -47.5t-2 -41.5t-1 -25q0 -24 5 -64q-36 -145 -89 -229q-52 -9 -86 -43q-17 0 -127 10q-18 -18 -129 -33 q3 -34 3 -117q0 -49 -1 -116q-1 -24 -1 -47q0 -107 12 -185q-12 -16 -29 -51q-68 -18 -131 -24l-10 53l-23 8q2 52 2 94q0 98 -10 142q15 6 18 81q3 85 23 111q-11 0 -47 -4zM162 350q8 2 27.5 8t27.5 7l-47 12zM201 588q6 -6 8 -15q51 6 74 17q-64 0 -82 -2zM264 735 l74 -43q30 20 49 17l49 -9l23 109q-1 20 -1 44q0 40 3 91q8 96 8 141q0 119 -47 187h-14q-51 0 -121 -19q-6 -170 -23 -432q-2 -39 -2 -60t2 -26zM487 770q0 -21 5 -51l24 8q-9 33 -29 43zM532 856l15 -20l33 10l-5 2q-17 11 -43 8z" />
<glyph unicode="q" horiz-adv-x="854" d="M61 190v1078q27 95 48 125q19 31 96 80q220 32 284 32q237 0 271 -254l-23 -8q14 -5 23 -10q0 -879 -8 -1030q55 -6 108 -39q-3 -100 -22 -129q-17 -33 -82 -33q-26 0 -94 6l-164 -22q-130 16 -293 49q-123 91 -144 155zM115 444q35 15 61 21q-18 0 -61 -21zM123 352h74 v13h-74v-13zM176 649q67 24 88 29h-51q-27 -3 -37 -29zM176 713q27 6 41 6q0 16 6 31zM197 557l16 -16h37v12q-50 4 -53 4zM223 291l17 -19h26v19h-43zM231 317q46 0 60 -2q14 -77 41 -133l182 15q33 33 53 43q27 11 72 14q-20 9 -59 18l-13 37q-39 -6 -49 4q49 27 49 133 h21q1 9 -12 43.5t-13 47.5q0 25 25 47l-25 41q3 11 10 18l-10 8q-9 546 -20 604q-27 37 -92 37h-17q-113 0 -133 -37q-6 -12 -12 -188q-2 -57 -2 -184q0 -192 4 -543q-36 0 -60 -4v-19zM332 111h18q3 25 10 36h-28v-36zM340 49h20v45l-20 -8q-3 -12 0 -37zM424 408 q4 22 16 34l17 -14q-17 -8 -33 -20zM424 633h27q0 -53 -9 -53zM442 1548v27l23 -8q-6 -12 -23 -19zM442 1602v34q17 -4 25 -16q-1 -1 -8 -18h-17zM506 78l8 -10l25 8q-8 2 -33 2zM524 901h27q-10 -10 -19 -37zM524 930v26q11 -6 23 -8q-18 -11 -23 -18zM524 1145v35h17 q-9 -13 -17 -35zM588 203l65 8q3 9 9 18h-74v-26zM598 94l16 -18q49 29 56 33q-32 0 -72 -15zM606 371l111 8v12h-111v-20zM612 334q0 -19 2 -25l17 8zM623 461h47v18h-47v-18zM649 68l39 8q0 7 -33 4q-6 -3 -6 -12zM670 309q1 0 13.5 -3t21.5 -7q0 11 6 20l-35 15 q-6 -15 -6 -25zM688 174l49 8l-2 4q-19 12 -43 9q-4 -8 -4 -21z" />
<glyph unicode="r" horiz-adv-x="774" d="M68 143q0 10 4 88q6 61 6 93q0 48 -8 79q0 430 2 553l24 25q-3 3 -12 10.5t-14 12.5q0 32 2 38l16 9q0 11 -10 116q-8 73 -8 131q0 122 41 181h348q20 14 43 14q86 0 188 -170q-2 -76 -2 -346q-7 0 -35 -4q15 0 35 -4l-8 -191q-15 -107 -98 -160l28 -219q27 -159 70 -213 q0 -19 2 -60.5t2 -47.5q0 -55 -25.5 -77t-99.5 -28l-55 50q-70 321 -82 489l82 16l-94 9l-17 26q-10 2 -45 2q0 11 6 23h-24q-9 -15 -49 -49q-9 -149 -11 -299q-8 -2 -20 -15l31 -14q-6 -148 -13 -166q-15 -43 -100 -43q-14 0 -68 4q-32 51 -32 137zM129 418l21 -15l24 9 q-35 6 -45 6zM141 365q14 -9 43 -23h29q-7 8 -14 23h-58zM141 451l27 -13h16v27h-43v-14zM150 1004l8 -27q12 9 12 24q-9 3 -20 3zM150 1366q27 8 59 10q-56 0 -59 -10zM168 162l16 -8q21 6 39 6q-13 7 -55 20v-18zM176 870q24 10 66 19v16l-66 -16v-19zM184 266l21 -16 l16 8q-2 0 -15.5 3.5t-21.5 4.5zM184 1239q20 9 62 21q-4 2 -9 2q-19 0 -53 -23zM223 692h35q-4 20 -4 21q-19 0 -25 -2q-6 -9 -6 -19zM231 666l9 -56h26l-16 49q-18 7 -19 7zM258 1374q29 -6 37 -20q3 6 12 12q-4 6 -10 20q-31 7 -39 7v-19zM264 950q0 -108 49 -178 q83 6 129 6q56 71 56 217q0 16 -27 277l-111 37l-51 -29q-26 -14 -39 -41q6 -37 6 -80q0 -35 -6 -106t-6 -103zM279 756q8 -20 26 -56l10 5l-8 47zM315 670l21 -13q-8 -13 -4 -30h28l9 92q-17 -13 -54 -49zM395 666q11 19 31 36q-9 3 -23 3zM401 1417q0 -12 21 -24l24 8 q-16 3 -45 16zM422 1343l45 -14q-8 -4 -16 -12q42 -9 45 -33h18l-35 57q-12 2 -57 2zM442 727l82 -8h72q0 8 -150 35q-4 -20 -4 -27zM459 565q24 6 41 23h-29q-8 -8 -12 -23zM485 -8h29l-10 -45h-19v45zM485 1608h29v-66h-18zM524 592q9 6 19 6l8 41l-19 -8q6 -6 -8 -39z M524 889l27 -35l33 8q-2 1 -23 11t-37 16zM541 315l51 9q-39 3 -51 -9zM541 1239l10 -27h72q0 9 -82 27zM567 180h47q0 9 -47 15v-15zM567 1122q41 12 58 15q-2 6 -2 18q-3 -1 -11.5 -3t-11.5 -3t-9.5 -3.5t-10 -5t-7.5 -7.5t-6 -11zM582 895q30 -10 41 -25q6 21 6 25 q0 5 -6 14h-33zM606 1239l31 10l-31 17v-27z" />
<glyph unicode="s" horiz-adv-x="737" d="M59 997q4 4 13.5 48t19.5 59q-17 22 -26 139q12 8 18 10q-10 10 -25 19q12 115 103 166q65 35 200 41q2 7 13 18q22 -22 110 -49l129 -39q0 -4 21 -84h-33v-14q19 0 25 -2q-4 -196 -4 -224q-47 -12 -76 -12q-57 0 -78 55q-9 33 -23 144q-120 6 -182 6q-8 -154 -8 -219 v-23q-9 0 -59 -4l55 -8q24 -102 113 -158l178 -104q13 -4 80 -35q24 -285 24 -369q0 -161 -33 -256q-52 -38 -100 -82q-206 0 -285 -12q-14 14 -20 23q-80 28 -109 100q-10 27 -34 152l22 8q0 39 2 49q22 -1 42 -2l30 -1.5t12 -0.5q51 -6 78 -27q0 -18 16 -90 q54 -10 100 -10.5t85 10.5q1 51 1 96q0 179 -10 252q-191 93 -360 215q-25 98 -25 215zM117 172q18 7 43 10q0 8 -43 8v-18zM178 1239q20 4 29 4q0 9 4 21q-9 0 -29 -4q-4 -12 -4 -21zM188 131q1 -3 17 -27q3 13 12 29q-23 0 -29 -2zM188 223q1 -5 17 -51q7 7 10 8 q3 37 -8 58l-2 4zM188 1397l17 -29q0 27 2 33q-15 0 -19 -4zM197 1161l8 -10q4 4 24 14q-20 0 -32 -4zM197 1317h32v18h-32v-18zM229 1282l54 33q-14 0 -41 -6q-10 -10 -13 -27zM248 147l41 21q-6 2 -27 2zM279 1364q26 -13 38 -29q34 11 84 19zM362 1368q8 6 31 12 q-9 2 -26 -8zM371 1001l8 52q0 -1 4 -37q-8 -3 -12 -15zM371 1571l8 31q0 -28 -8 -31zM496 1421q0 -2 0.5 -4.5t1.5 -7t2 -8.5l55 -33h18v18q-22 9 -41 11l-8 18q-21 6 -28 6zM514 289l29 10q-28 4 -29 4v-14zM516 1249l12 -18l50 8zM547 252q15 9 18 22zM555 190 q44 25 59 29q-4 1 -7 1q-22 0 -52 -30zM608 1526v26l21 -8q-3 -12 -21 -18zM662 1448v27q6 -6 20 -9q0 -7 -20 -18z" />
<glyph unicode="t" horiz-adv-x="614" d="M8 1409q58 55 205 55q16 0 77 -2t79 -2q68 0 118 13q2 10 15 38q4 -23 14 -55l66 -8q9 -27 47 -117l-35 -8q-5 -11 -8 -29q-132 -16 -160 -28q-27 -24 -51 -27q6 1 -2 2h-56q-6 -15 -6 -24q42 -6 90 -19q13 -23 13 -68q0 -43 -8 -98q-2 -18 -5 -39.5t-4.5 -32t-1.5 -14.5 l-22 -8q1 0 37 -4l-7 -41q-3 -19 19 -35q-19 -211 -19 -289q0 -119 21 -207q-25 -22 -25 -98q0 -36 2 -69q1 -12 2 -27.5t2 -26t1 -16.5q0 -59 -17 -98q-49 -11 -115 -29l-63 29q-4 28 -4 534v4q0 520 -4 656l-17 55q-84 0 -168 41q6 8 13 12q-12 11 -17 26t-5.5 23t-0.5 31 zM53 569v35h21v-35h-21zM53 623v24q20 -6 29 -24h-29zM53 1565h29v-33h-16q-8 17 -13 33zM209 1313h37q0 10 -31 16q-6 -9 -6 -16zM225 1272q24 12 21 22q-7 -5 -21 -22zM254 729l106 -55h21v16q-50 14 -127 39zM274 1006l50 -31q7 7 22 10q-21 15 -72 21zM287 1352 q5 -2 16 -21h21l-9 21h-28zM340 1409h41v18h-41v-18zM381 1323q62 13 76 14q-41 0 -76 -14zM485 422v51h29v-51h-29zM485 612l9 31q10 0 14 -2q0 -8 6 -29h-29zM485 768h29q-6 -56 -18 -59zM485 985v43h29v-43h-29zM485 1063l9 22q14 -3 20 -22h-29zM485 1583h29 q-6 -28 -8 -33t-10 -10q-7 22 -11 43zM489 535l15 10l10 -45h-18q-7 31 -7 35zM489 694h19q0 -33 -12 -39q-7 31 -7 39zM496 1116q0 68 8 68zM496 1202q0 19 6 49q-6 -30 -6 -49z" />
<glyph unicode="u" d="M80 1133q4 51 29 239q-17 31 -17 45q0 45 88 45q38 0 101 -8q0 -65 -1 -141q0 -378 13 -1020q21 -88 104 -88q54 0 144 41q8 24 8 88q0 98 -8 401q26 113 26 284v36q16 4 23 4q-27 37 -27 137q0 12 4 94q2 53 2 72v8q21 75 41 107q32 -2 131 -19q15 -62 15 -143 q0 -119 -31 -176l27 -13v-946q-73 -132 -207 -162q-60 -13 -293 -16q-83 61 -158 119q-12 53 -12 405l10 95q10 95 10 139q0 80 -20 106q18 24 18 107q0 107 -20 160zM137 1047h45q0 7 -45 16v-16zM166 1245q13 6 74 23q-13 2 -24 2q-39 0 -50 -25zM182 1114q35 19 43 21 q-33 0 -43 -2v-19zM182 1550v27q11 -6 25 -8q-3 -16 -25 -19z" />
<glyph unicode="v" horiz-adv-x="749" d="M53 1282q0 104 2 135q82 29 109 29q42 0 57 -43q9 -24 29 -127q15 -15 57 -37v-10q-35 0 -43 -2q-1 -5 -1 -13q0 -28 11 -88q-18 0 -30 -4q12 -17 41 -24q18 -156 18 -174q0 -41 -8 -54q36 -36 51 -272q25 -23 35 -45q41 69 59 199q19 152 35 204q0 32 4 240q28 4 37 4 q0 140 2 150q8 58 70 110q48 -3 139 -18q3 -3 3 -16q0 -25 -11 -87q-12 0 -33 -6q0 -62 2 -80q-18 -3 -33 -10q23 -13 23 -121q-39 -17 -39 -106q0 -15 3 -55.5t3 -45.5q-12 -22 -35 -92q-9 -157 -49 -415q-45 -290 -55 -408l-180 -8q-94 64 -121 244l-31 292 q-18 241 -29 256l11 15q-28 42 -28 133q0 30 3 65q-9 5 -26 34t-25 34q9 27 18 39q-15 6 -20 6q4 25 4 50q0 65 -29 122zM184 1227q0 -19 2 -23l17 6zM190 997q10 -11 15 -18q38 15 59 33q-3 0 -74 -15zM522 858l25 -8l16 8q-6 15 -6 19h-35v-19zM573 1167q6 -6 35 -24 q3 7 13 10q-20 14 -48 14zM719 676v26q13 -7 20 -8q0 -7 -20 -18z" />
<glyph unicode="w" horiz-adv-x="1140" d="M39 1317q0 77 4 139q73 31 102 31q39 0 54 -45q3 -9 26 -131q17 -17 56 -37v-12q-33 0 -41 -2q-1 -6 -1 -14q0 -29 11 -91q-23 0 -29 -2q8 -17 39 -27q16 -174 16 -178q0 -42 -8 -55q34 -37 49 -283q24 -24 33 -45q41 71 56 203q22 179 34 213q0 34 4 246q18 6 35 6 q0 159 13 192v37q7 1 26 11q5 6 15.5 15.5t13.5 12.5l131 -18q3 -6 3 -22q0 -27 -9 -85q-2 -2 -6 -2l10 -57q22 -22 55 -39v-10q-33 0 -41 -2q-2 -5 -2 -15q0 -26 12 -90q-24 0 -30 -2q11 -20 39 -29q18 -159 18 -178q0 -39 -8 -55q34 -34 49 -281q25 -25 31 -45 q42 74 57 203q21 170 33 213q0 87 6 246q18 6 33 6q0 144 2 154q9 62 67 114q87 -9 131 -18q2 -4 2 -16q0 -27 -10 -93q-6 0 -30 -4q0 -66 2 -84q-20 -3 -31 -10q20 -11 20 -123q-34 -21 -34 -110q0 -18 2 -59t2 -46l-33 -94q-11 -185 -47 -430q-45 -343 -51 -420l-172 -8 q-88 64 -115 250l-29 303q-15 249 -26 264q4 8 10 14q-14 22 -17 33l-2 -12q-9 -151 -47 -430q-45 -317 -53 -420l-170 -8q-91 67 -115 252l-30 301q-15 245 -27 266l10 12q-26 44 -26 147q0 28 2 60q-9 4 -25 34.5t-25 35.5q7 21 19 41q-20 4 -21 4q5 30 5 58q0 66 -27 120 zM1120 696v27l21 -8q-4 -7 -21 -19z" />
<glyph unicode="x" horiz-adv-x="681" d="M37 27q16 135 61 350q53 251 68 346q18 18 18 60v12l-8 75l-129 590q83 35 137 45l60 -53q0 -53 -8 -61q42 -95 51 -254q26 -20 45 -66l18 45q8 19 33 33q4 76 4 78q9 43 29 69q0 105 24.5 146t89.5 41q29 0 91 -10q-3 -46 -31 -156q-24 -105 -27 -164q-27 -85 -51 -174 q-37 -130 -37 -201q0 -40 10 -63q6 -80 47 -246q43 -172 48 -252q34 -67 34 -121q0 -43 -20 -82l-82 -8h-12q-42 0 -66 19q-35 277 -100 381h-27q-4 -10 -51 -211q-29 -128 -84 -189l-86 -12zM123 1327q2 -2 6 -14l25 8q-21 6 -31 6zM197 1231l26 -25q4 8 13 11 q-14 14 -39 14zM371 1057q16 0 22 -2q0 -1 3 -13t7 -22q2 9 2 16q0 34 -34 37v-16zM406 1075l16 -18q28 12 43 14q-54 4 -59 4zM473 1225q2 5 21 16q-3 8 -21 -16z" />
<glyph unicode="y" horiz-adv-x="716" d="M47 225v62h27q-9 -30 -11 -62h-16zM47 1327v129l162 8q0 -96 49 -264q63 -214 70 -266h2q18 0 104 29l-31 16v20l29 11l-29 12q2 13 2 26q0 25 -8 52h17q24 134 45 182h14q15 119 27 182q103 -9 164 -18q-12 -86 -12 -147q0 -13 1 -25q-19 -6 -41 -35l27 -10 q-4 -1 -10 -3.5t-14.5 -6t-14.5 -5.5q-6 -70 -6 -114q-9 0 -29 -4q-4 -36 -4 -39q4 -4 10 -6q-16 -3 -20 -11l-16 -192l-17 -6v-80q-53 0 -53 -6h18q-24 -76 -24 -78q0 -15 6 -45h-16v-45q2 0 14 -4q-4 -90 -4 -107q-103 0 -103 -8q31 -3 103 -18q-1 -5 -1 -17q0 -26 3 -84 q2 -53 2 -121q0 -162 -39 -213l-121 -14l-37 14q-16 59 -16 131q0 31 6 125q3 65 3 99q0 17 -1 26q10 11 18 13q-20 17 -26 122l29 11q-23 23 -52 119q-40 4 -45 4v12h45q-23 50 -45 145q-20 3 -26 6q-6 21 -6 29q26 6 40 8l-8 35h-16q-62 268 -78 381h-25q6 21 31 37z M139 418v24q18 -6 27 -24h-27zM176 838l25 -23h16q-16 23 -41 23zM182 8h27q-9 -15 -27 -24v24zM193 1008l8 -11l30 7q-16 4 -38 4zM242 842q33 7 258 22q-97 19 -129 19q-67 0 -129 -41zM311 758q21 -26 45 -47l13 8l-23 39h-35zM334 227q21 6 35 6q0 -26 2 -34q2 2 9 11 t13 15q-42 23 -59 21v-19zM356 584l6 -11l25 9q-6 2 -31 2zM362 504h52q0 7 -52 16v-16zM449 1108l61 16q-43 0 -55 -2q-2 -2 -6 -14zM459 1004l6 -41l35 8v18h-17v15h-24zM465 1161l22 19q-3 1 -6.5 2t-5 1.5t-2.5 0.5zM492 -61q6 12 32 18v-18h-32z" />
<glyph unicode="z" horiz-adv-x="600" d="M31 1393l26 8q0 45 2 57l433 -12q42 -33 63 -33h4q-26 -59 -41 -106q3 0 23 -4v-27q-19 0 -23 -2q-10 -37 -76 -295q-43 -163 -53 -295q-21 -10 -35 -90q-12 -50 -16 -109q-20 -3 -37 -12q15 -10 29 -16v-15l-27 -16l-10 -107q-18 -3 -33 -10l8 -88q118 -31 293 -31 q9 -38 9 -81t-9 -91q-44 -21 -235 -24h-248l-19 8l-6 43q-3 22 -16 35q12 12 33 278l26 -8q40 52 60 223q18 158 71 199q-14 17 -14 41q0 32 37 96q37 67 37 97q0 17 -8 28v56l32 22q-4 126 -4 135q-18 9 -241 27q-9 24 -35 119zM51 608q0 40 6 117q9 6 21 6v-123h-27z M59 504v26q10 0 25 -6q-6 -9 -6 -20h-19zM59 549v33q10 0 19 -33h-19zM59 748v61h19v-61h-19zM199 193q3 3 7.5 6t12 7.5t12.5 8.5q-22 0 -26 -2q-6 -9 -6 -20zM283 592q15 5 39 29q-19 -3 -39 -29zM328 844l24 -17l-8 21q-12 0 -16 -4zM334 973l53 10v14q-35 -9 -53 -24z M541 989q0 53 8 53q7 -35 10 -45q-12 -4 -18 -8z" />
<glyph unicode="{" horiz-adv-x="464" d="M27 592q0 20 18 47q24 38 43 25l84 53q-24 260 0 661q21 23 30 48l9 26q116 35 147 35q77 0 68 -152q-59 -19 -64 -22q-27 -15 -49 -43v-525q0 -52 -75 -149q73 -49 73 -111q0 -186 2 -331q1 -59 1.5 -135t1 -122t1.5 -75q26 -36 84 -51q33 -9 33 -103q-37 -23 -174 -43 q-16 16 -49 19q-30 77 -78 108q11 12 29 19q-10 7 -23 12v731l-102 55q-10 17 -10 23zM152 199q13 10 38 18q-6 12 -26 12zM203 -4h33v20q-31 -10 -33 -20zM217 49h43v19h-43v-19zM227 129q8 9 37 18q-3 1 -16 4.5t-21 4.5v-27zM254 -180q0 -19 14 -27h19q-18 27 -33 27z M522 -223h35q-6 -21 -25 -27z" />
<glyph unicode="|" horiz-adv-x="389" d="M104 -164v1798h181v-1798h-181z" />
<glyph unicode="}" horiz-adv-x="464" d="M-82 -244h37q-6 -18 -10 -26q-17 3 -27 26zM43 -352q0 94 33 100q59 15 84 53q1 29 1.5 75t1 122t1.5 135q2 145 2 332q0 60 74 110q-78 101 -78 150v524q-25 38 -111 66q-9 149 68 149q41 0 147 -32q3 -5 6 -17t10.5 -27t22.5 -30q24 -403 0 -664l84 -53q18 15 43 -23 q19 -28 19 -49q0 -16 -11 -20l-102 -55v-734q-11 -2 -23 -10q19 -8 29 -18q-47 -30 -78 -109q-14 -3 -49 -18l-90 12q-56 9 -84 31zM190 -227h19q14 8 14 26q-19 0 -33 -26zM213 127q28 -9 37 -18v26zM217 29h43v18h-43v-18zM242 -6v-19h32q-4 8 -32 19zM287 197 q25 -8 39 -19l-13 31q-20 0 -26 -12z" />
<glyph unicode="&#xa1;" horiz-adv-x="399" d="M80 1329q0 41 12 121q25 22 139 49q30 -65 39 -127q4 -51 2 -135q-25 -6 -49 -33q-143 -3 -143 125zM94 686q16 58 2 199q-12 127 33 192l102 19l41 -37q12 -144 21 -1012q-35 -53 -90 -53q-38 0 -86 26q-8 301 -23 666zM135 274h55v17h-55v-17zM195 1579q0 35 8 35v-17 h18l2 -18h-28zM213 -47q16 0 37 6l2 -18q-30 3 -39 12z" />
<glyph unicode="&#xa2;" horiz-adv-x="710" d="M82 406v804q6 41 49 56q16 33 41 51l70 26l55 -6q-3 35 4 80h125q-3 -47 2 -88l141 -12q9 -12 37 -37q-2 -2 -2 -10q0 -14 19 -39q21 -30 24 -39q-2 -23 -2 -109l-80 -45q-45 19 -69 27q-12 37 -15 111q-80 24 -131 30q-29 -13 -59 -16q-10 -166 2 -744q38 -13 147 -16 l62 113q27 24 137 18l14 -24q21 0 39 -2l8 -37h-22q-7 3 -10 16q-12 -12 -15 -41q1 0 3 -0.5l6 -1.5l8 -2l8 -16h-25q-27 -77 -55 -105q-39 -39 -131 -51q-28 0 -51 2q-4 0 -4 -12q0 -7 3 -37t3 -37q0 -12 -4 -12q-19 0 -76 8q-7 0 -14 0.5t-11.5 1l-9 1t-7.5 0.5h-5h-3 l-1 -1q0 84 -4 84h-82q-69 40 -119 111zM131 1186q11 -11 14 -15q0 15 2 17q-14 0 -16 -2zM135 1130q15 -10 25 -20q32 4 37 4q0 6 4 14q-14 2 -66 2zM154 1333q0 25 2 31q11 -11 14 -31h-16zM227 1182l15 -21q1 1 2.5 1.5t4.5 1t5 1.5q-17 17 -27 17zM233 1278h33v12h-33 v-12zM236 1247l6 -8h39v14zM418 1290h74v6h-74v-6zM467 1235l29 6q-26 0 -29 -6zM522 1202q19 6 29 8l-29 7v-15zM678 631q18 -3 18 -17q0 4 -3 -5t-9 -34z" />
<glyph unicode="&#xa3;" horiz-adv-x="804" />
<glyph unicode="&#xa4;" horiz-adv-x="786" />
<glyph unicode="&#xa5;" horiz-adv-x="716" />
<glyph unicode="&#xa6;" horiz-adv-x="430" d="M117 -10q0 141 26 381q36 8 123 8q37 -90 37 -348q0 -192 -20 -289q-35 -43 -74 -117q-92 103 -92 365zM129 1069q0 130 27 379q36 8 123 8q36 -88 36 -348q0 -192 -20 -289q-35 -43 -74 -117q-92 106 -92 367z" />
</font>
</defs>
</svg>
